<svg version="1.1" xmlns="http://www.w3.org/2000/svg" viewBox="0 0 1364.5475425653858 584.6671547289325" width="2729.0950851307716" height="1169.334309457865">
  <!-- svg-source:excalidraw -->
  
  <defs>
    <style class="style-fonts">
      @font-face {
        font-family: "Virgil";
        src: url("https://excalidraw.com/Virgil.woff2");
      }
      @font-face {
        font-family: "Cascadia";
        src: url("https://excalidraw.com/Cascadia.woff2");
      }
      @font-face {
        font-family: "Assistant";
        src: url("https://excalidraw.com/Assistant-Regular.woff2");
      }
    </style>
    
  </defs>
  <g stroke-linecap="round" transform="translate(202.4225425653858 344.6671547289325) rotate(0 117.5 115)"><path d="M7.86 8.16 C7.86 8.16, 7.86 8.16, 7.86 8.16 M7.86 8.16 C7.86 8.16, 7.86 8.16, 7.86 8.16 M8.78 31.49 C12.14 25.8, 22.79 17.58, 34.37 2.05 M8.78 31.49 C18.42 22.8, 26.33 13.33, 34.37 2.05 M8.39 56.32 C20.44 41.02, 35.8 20.17, 55.63 1.98 M8.39 56.32 C22.25 35.57, 39.26 17.21, 55.63 1.98 M8.66 80.4 C22.43 63.57, 43.2 49.19, 76.89 1.91 M8.66 80.4 C26.63 58.99, 44.82 37.28, 76.89 1.91 M8.27 105.24 C36.64 74.85, 52.98 51.44, 98.15 1.85 M8.27 105.24 C43.18 65.8, 73.77 27.52, 98.15 1.85 M8.54 129.32 C39.19 92.64, 68.55 56.82, 119.41 1.78 M8.54 129.32 C52.99 79.05, 94.46 29.84, 119.41 1.78 M8.15 154.16 C54.88 102.84, 102.42 44.14, 140.67 1.71 M8.15 154.16 C51.81 108.06, 91.2 61.05, 140.67 1.71 M8.41 178.24 C47.14 131.34, 86.89 87.86, 161.28 2.39 M8.41 178.24 C44.47 135.88, 81.25 93.05, 161.28 2.39 M7.37 203.83 C64.04 133.21, 121.26 67.32, 182.54 2.32 M7.37 203.83 C75.62 125.82, 143.19 48.54, 182.54 2.32 M10.91 224.14 C58.48 167.51, 106.26 114.68, 204.45 1.5 M10.91 224.14 C69.89 157.22, 129.86 86.74, 204.45 1.5 M24.3 233.13 C70.43 180.97, 121.6 128.86, 221.78 5.96 M24.3 233.13 C74.24 174.91, 122.33 114.72, 221.78 5.96 M40.97 238.34 C114.41 154.99, 181.16 76.37, 235.16 14.95 M40.97 238.34 C88.36 180.37, 137.48 123.58, 235.16 14.95 M62.23 238.27 C109.64 184.81, 151.07 137.9, 238.71 35.26 M62.23 238.27 C106.38 182.91, 156.45 127.35, 238.71 35.26 M83.49 238.2 C147.7 172.35, 208.16 104.05, 238.98 59.34 M83.49 238.2 C126.89 187.83, 168.66 137.24, 238.98 59.34 M104.75 238.13 C147.7 188.32, 197.9 133.58, 238.59 84.17 M104.75 238.13 C156.1 181.22, 206.24 119.06, 238.59 84.17 M126.01 238.07 C158.91 199.11, 200.62 163.56, 238.85 108.26 M126.01 238.07 C163.73 193.44, 204.02 147.07, 238.85 108.26 M147.27 238 C178.57 192.41, 218.75 156.13, 238.46 133.09 M147.27 238 C172.37 206.64, 199.33 177.51, 238.46 133.09 M168.53 237.93 C183.35 219.98, 197.87 196.91, 238.73 157.17 M168.53 237.93 C193.36 209.61, 222.31 177.05, 238.73 157.17 M189.79 237.86 C212.08 218.86, 231 192.08, 239 181.26 M189.79 237.86 C198.45 224.34, 211.68 212.25, 239 181.26 M218.27 229.49 C224.72 226.78, 228.34 216.99, 233.36 212.13 M218.27 229.49 C221.85 227.02, 225.4 222.89, 233.36 212.13" stroke="#b2f2bb" stroke-width="2" fill="none"></path><path d="M32 0 C82.46 -1.85, 129.7 -5.31, 203 0 M32 0 C84.61 -0.43, 137.89 0.56, 203 0 M203 0 C226.31 -0.27, 237.24 7.03, 235 32 M203 0 C222.94 3.83, 233.91 9.46, 235 32 M235 32 C235.16 85.65, 233.71 144.75, 235 198 M235 32 C234.02 78.44, 234 121.35, 235 198 M235 198 C236.7 223.13, 224.29 226.3, 203 230 M235 198 C230.59 217.48, 223.81 226.92, 203 230 M203 230 C145.68 229.7, 88.43 228.3, 32 230 M203 230 C167.54 225.04, 132.84 225.87, 32 230 M32 230 C10.97 227.49, 2.17 216.88, 0 198 M32 230 C7.12 233.94, 3.52 223.75, 0 198 M0 198 C-0.5 135.54, 0.97 72.39, 0 32 M0 198 C2.39 136.68, 1.52 75.44, 0 32 M0 32 C-1.32 12.69, 6.87 -0.35, 32 0 M0 32 C1.49 12.75, 12.13 -0.93, 32 0" stroke="#1e1e1e" stroke-width="4" fill="none"></path></g><g transform="translate(259.03656386665534 424.6671547289325) rotate(0 60.88597869873047 35)"><text x="60.88597869873047" y="0" font-family="Virgil, Segoe UI Emoji" font-size="28px" fill="#1e1e1e" text-anchor="middle" style="white-space: pre;" direction="ltr" dominant-baseline="text-before-edge">Product </text><text x="60.88597869873047" y="35" font-family="Virgil, Segoe UI Emoji" font-size="28px" fill="#1e1e1e" text-anchor="middle" style="white-space: pre;" direction="ltr" dominant-baseline="text-before-edge">Service</text></g><g stroke-linecap="round"><g transform="translate(434.9581839504899 117.98645056849091) rotate(0 51.91666666666788 0.443537841224952)"><path d="M-1.43 0.17 C15.48 0.25, 84.84 0.38, 102.45 0.21 M3 -2.21 C20.76 -1.68, 91.49 2.89, 108.1 3.47" stroke="#1e1e1e" stroke-width="4" fill="none"></path></g><g transform="translate(434.9581839504899 117.98645056849091) rotate(0 51.91666666666788 0.443537841224952)"><path d="M84.31 9.8 C91.74 8.74, 98.99 7.24, 107.83 4.46 M83.89 11.63 C90.93 8.6, 98.63 7.31, 108.31 3.02" stroke="#1e1e1e" stroke-width="4" fill="none"></path></g><g transform="translate(434.9581839504899 117.98645056849091) rotate(0 51.91666666666788 0.443537841224952)"><path d="M85.2 -7.27 C92.31 -2.61, 99.26 1.62, 107.83 4.46 M84.78 -5.45 C91.65 -3.48, 99.1 0.24, 108.31 3.02" stroke="#1e1e1e" stroke-width="4" fill="none"></path></g></g><mask></mask><g stroke-linecap="round" transform="translate(1222.7975425653858 218.3328452710689) rotate(0 65.875 59.875)"><path d="M13.19 25.69 C18 18.1, 26.54 11.77, 35.82 7.58 C45.1 3.39, 58.8 0.93, 68.87 0.56 C78.94 0.19, 87.54 1.08, 96.24 5.35 C104.95 9.63, 115.52 18.25, 121.08 26.21 C126.65 34.16, 128.69 44.05, 129.62 53.08 C130.55 62.11, 129.86 71.53, 126.64 80.37 C123.42 89.21, 117.72 99.64, 110.3 106.11 C102.89 112.58, 92.46 117.14, 82.15 119.17 C71.83 121.2, 58.64 121.07, 48.41 118.26 C38.17 115.46, 28 108.67, 20.75 102.36 C13.5 96.05, 8.13 88.74, 4.91 80.41 C1.7 72.09, -3.24 64.45, 1.46 52.39 C6.15 40.33, 22.78 16.36, 33.08 8.07 C43.37 -0.22, 62.5 1.59, 63.23 2.65 M82.83 4.1 C91.79 6.07, 101.89 10.03, 109.73 16.62 C117.56 23.21, 126.12 35.05, 129.83 43.64 C133.53 52.24, 134.45 59.5, 131.97 68.21 C129.49 76.93, 121.9 88.66, 114.94 95.94 C107.99 103.22, 99.4 107.67, 90.25 111.9 C81.09 116.13, 70 121.32, 60.02 121.34 C50.04 121.36, 38.31 116.6, 30.38 112.03 C22.45 107.45, 17.61 101.57, 12.42 93.88 C7.23 86.2, 0.74 75.47, -0.76 65.92 C-2.26 56.36, -0.56 45.28, 3.43 36.55 C7.41 27.83, 15.21 19.66, 23.15 13.55 C31.09 7.45, 40.94 1.84, 51.09 -0.07 C61.24 -1.97, 77.95 1.91, 84.06 2.12 C90.17 2.33, 88.31 0.09, 87.75 1.18" stroke="none" stroke-width="0" fill="#a5d8ff"></path><path d="M74.93 1.59 C84.86 1.95, 96.29 7.29, 104.3 12.45 C112.32 17.62, 118.17 24.54, 123.02 32.57 C127.87 40.61, 133.4 51.14, 133.4 60.67 C133.4 70.2, 128.03 81.47, 123.02 89.74 C118 98.01, 111.91 105.65, 103.33 110.29 C94.75 114.93, 82.14 116.89, 71.52 117.56 C60.89 118.24, 48.99 117.73, 39.58 114.34 C30.17 110.96, 21.38 103.93, 15.05 97.25 C8.72 90.57, 3.44 82.88, 1.59 74.27 C-0.27 65.66, 1.28 54.63, 3.89 45.6 C6.5 36.57, 10.27 27.11, 17.24 20.08 C24.21 13.05, 33.92 6.41, 45.73 3.43 C57.54 0.46, 78.75 0.89, 88.1 2.22 C97.46 3.56, 102.17 10.08, 101.85 11.43 M44.19 1.7 C52.51 -2.26, 64.42 -3.41, 74.58 -2.1 C84.75 -0.79, 96.92 3.92, 105.18 9.57 C113.44 15.22, 120.02 23.19, 124.15 31.79 C128.27 40.38, 130.14 51.72, 129.94 61.14 C129.73 70.57, 127.51 80.36, 122.91 88.31 C118.3 96.27, 111.39 103.24, 102.3 108.88 C93.22 114.52, 78.45 120.69, 68.38 122.16 C58.32 123.62, 50.44 121.87, 41.91 117.66 C33.37 113.46, 24.32 104.77, 17.18 96.94 C10.03 89.1, 1.21 79.62, -0.96 70.66 C-3.13 61.69, 0.51 51.53, 4.18 43.14 C7.85 34.74, 14.66 26.56, 21.07 20.3 C27.48 14.04, 38.7 8.09, 42.65 5.57 C46.61 3.05, 44.37 4.29, 44.78 5.19" stroke="#1e1e1e" stroke-width="4" fill="none"></path></g><g transform="translate(1250.1019236379252 265.86982674752426) rotate(0 38.489959716796875 12.5)"><text x="38.489959716796875" y="0" font-family="Virgil, Segoe UI Emoji" font-size="20px" fill="#1e1e1e" text-anchor="middle" style="white-space: pre;" direction="ltr" dominant-baseline="text-before-edge">Product</text></g><g stroke-linecap="round" transform="translate(192.85196685791016 10) rotate(0 117.5 115)"><path d="M7.86 8.16 C7.86 8.16, 7.86 8.16, 7.86 8.16 M7.86 8.16 C7.86 8.16, 7.86 8.16, 7.86 8.16 M0.91 40.54 C9.98 32.66, 23.49 18.29, 36.34 -0.21 M0.91 40.54 C15.96 25.52, 28.57 7.34, 36.34 -0.21 M1.18 64.62 C13.52 49.59, 25.97 33.8, 57.6 -0.28 M1.18 64.62 C22.55 40.26, 40.81 18.26, 57.6 -0.28 M0.79 89.46 C23.16 58.72, 51.06 35.33, 78.2 0.41 M0.79 89.46 C25.77 59.64, 51.95 31.02, 78.2 0.41 M1.05 113.54 C26.77 91.31, 51.93 57.42, 99.46 0.34 M1.05 113.54 C38.87 72.3, 74.01 33.57, 99.46 0.34 M0.66 138.38 C50.11 82.79, 95.05 28.33, 120.72 0.27 M0.66 138.38 C31.71 97.23, 65.55 57.3, 120.72 0.27 M0.93 162.46 C33.04 122.83, 65.61 90.9, 141.98 0.2 M0.93 162.46 C45.96 109.36, 95.19 53.07, 141.98 0.2 M0.54 187.3 C65.25 110.44, 134.35 40.6, 163.24 0.13 M0.54 187.3 C55.43 119.57, 112.41 54.5, 163.24 0.13 M2.12 209.87 C72.99 135.79, 138.87 61.85, 184.5 0.06 M2.12 209.87 C45.78 158.37, 88.42 104.61, 184.5 0.06 M10.91 224.14 C78.3 144.74, 143.81 70.98, 205.11 0.75 M10.91 224.14 C76.23 147.04, 144.71 68.82, 205.11 0.75 M27.58 229.35 C65.34 186.32, 103.2 137.79, 222.43 5.21 M27.58 229.35 C82.07 164.19, 140.44 95.76, 222.43 5.21 M48.19 230.04 C88.79 186.15, 123.33 144.43, 233.19 17.21 M48.19 230.04 C94.95 172.57, 146.2 115.68, 233.19 17.21 M69.45 229.97 C113.78 179.72, 156.71 135.31, 235.43 39.03 M69.45 229.97 C123.46 165.15, 177.24 106.29, 235.43 39.03 M90.71 229.9 C129.39 183.95, 175.88 130.56, 235.7 63.11 M90.71 229.9 C121.4 191.51, 154.75 150.49, 235.7 63.11 M111.97 229.83 C152.46 174.86, 201.07 128.78, 235.96 87.19 M111.97 229.83 C143.36 194.03, 173.54 156.4, 235.96 87.19 M132.57 230.52 C162.92 192.76, 196.51 155.44, 235.57 112.03 M132.57 230.52 C163.42 196.33, 193.97 160.38, 235.57 112.03 M153.83 230.45 C176.28 203.65, 209.42 171.92, 235.84 136.11 M153.83 230.45 C184.43 196.97, 213.9 160.93, 235.84 136.11 M175.09 230.38 C188.75 206.5, 206.86 190.49, 235.45 160.95 M175.09 230.38 C192.45 212.81, 212 190.94, 235.45 160.95 M196.35 230.31 C210.09 217.02, 222 199.94, 235.72 185.03 M196.35 230.31 C207.09 217.79, 222.39 201.64, 235.72 185.03 M220.24 227.22 C220.19 220.95, 229.35 223.67, 233.36 212.13 M220.24 227.22 C222.59 222.76, 227.87 215.86, 233.36 212.13" stroke="#b2f2bb" stroke-width="2" fill="none"></path><path d="M32 0 C69.51 5.52, 116.24 5.93, 203 0 M32 0 C97.81 3.47, 164.87 4.08, 203 0 M203 0 C227.29 -3.76, 238.5 9.2, 235 32 M203 0 C226.03 -3.68, 238.58 9.15, 235 32 M235 32 C233.14 92, 233.12 147.56, 235 198 M235 32 C236.97 89.56, 238.55 150.6, 235 198 M235 198 C231.46 218.21, 223.46 226.69, 203 230 M235 198 C238.59 221.1, 227.93 232.14, 203 230 M203 230 C153.93 230.94, 112.01 230.6, 32 230 M203 230 C146.33 232.58, 88.27 232.99, 32 230 M32 230 C11.86 231.45, -2.77 216.19, 0 198 M32 230 C12.92 226.14, -1.11 221.1, 0 198 M0 198 C-5.34 137.16, -5.29 74.76, 0 32 M0 198 C-1.35 162.06, 0.01 121.84, 0 32 M0 32 C2.88 7.66, 12.01 -2.49, 32 0 M0 32 C0.99 6.65, 8.98 -1.73, 32 0" stroke="#1e1e1e" stroke-width="4" fill="none"></path></g><g transform="translate(212.3660125732422 107.5) rotate(0 97.98595428466797 17.5)"><text x="97.98595428466797" y="0" font-family="Virgil, Segoe UI Emoji" font-size="28px" fill="#1e1e1e" text-anchor="middle" style="white-space: pre;" direction="ltr" dominant-baseline="text-before-edge">Review Service</text></g><g stroke-linecap="round" transform="translate(831.8519668579102 147) rotate(0 117.5 115)"><path d="M7.86 8.16 C7.86 8.16, 7.86 8.16, 7.86 8.16 M7.86 8.16 C7.86 8.16, 7.86 8.16, 7.86 8.16 M8.78 31.49 C17.86 25.35, 23.67 22.51, 34.37 2.05 M8.78 31.49 C18.04 19.96, 27.49 10.29, 34.37 2.05 M8.39 56.32 C22.65 39.53, 41.11 22.76, 55.63 1.98 M8.39 56.32 C23.56 42.91, 35.31 24.35, 55.63 1.98 M8.66 80.4 C21.7 62.85, 34.81 47.43, 76.89 1.91 M8.66 80.4 C27.17 62.52, 44.28 42.4, 76.89 1.91 M8.27 105.24 C41.43 71.51, 72.17 33.3, 98.15 1.85 M8.27 105.24 C28.88 82.22, 50.71 58.57, 98.15 1.85 M8.54 129.32 C34.29 104.3, 59.69 76.64, 119.41 1.78 M8.54 129.32 C45.53 89.78, 79.7 49.97, 119.41 1.78 M8.15 154.16 C37.48 120.56, 69.76 86.28, 140.67 1.71 M8.15 154.16 C45.06 110.64, 85.17 62.16, 140.67 1.71 M8.41 178.24 C57.45 123.65, 103.81 69.1, 161.28 2.39 M8.41 178.24 C62.3 116.42, 116.54 52.37, 161.28 2.39 M7.37 203.83 C52.97 151.24, 98.43 101.33, 182.54 2.32 M7.37 203.83 C66.05 134.09, 129.25 61.9, 182.54 2.32 M10.91 224.14 C60.67 166.68, 107.47 116.53, 204.45 1.5 M10.91 224.14 C79.91 143.12, 151.2 64.22, 204.45 1.5 M24.3 233.13 C73.42 175.67, 123.7 120.46, 221.78 5.96 M24.3 233.13 C102.28 143.79, 179.97 53.94, 221.78 5.96 M40.97 238.34 C115.53 148.5, 191.52 63.35, 235.16 14.95 M40.97 238.34 C92.45 175.13, 145.42 115.93, 235.16 14.95 M62.23 238.27 C125.99 166.53, 193.06 91.36, 238.71 35.26 M62.23 238.27 C135.23 156.88, 203.75 77.56, 238.71 35.26 M83.49 238.2 C120.45 198.89, 159.35 153.44, 238.98 59.34 M83.49 238.2 C144.22 170.73, 205.42 102.61, 238.98 59.34 M104.75 238.13 C152.38 185.92, 195.96 133.59, 238.59 84.17 M104.75 238.13 C140.04 197.85, 174.18 156.31, 238.59 84.17 M126.01 238.07 C166.67 188.03, 207.41 138.27, 238.85 108.26 M126.01 238.07 C163.43 195.82, 202.51 152, 238.85 108.26 M147.27 238 C184.49 197.06, 218.32 161.62, 238.46 133.09 M147.27 238 C173.9 206.8, 200.51 175.09, 238.46 133.09 M168.53 237.93 C187.43 217.39, 201.5 198.78, 238.73 157.17 M168.53 237.93 C192.84 210.37, 217.84 184.81, 238.73 157.17 M189.79 237.86 C206.27 216.64, 221.93 200.67, 239 181.26 M189.79 237.86 C203.59 219.91, 220.61 204.76, 239 181.26 M218.27 229.49 C222.22 222.73, 226.37 223.6, 233.36 212.13 M218.27 229.49 C224.32 222.97, 228.08 215.95, 233.36 212.13" stroke="#b2f2bb" stroke-width="2" fill="none"></path><path d="M32 0 C90.48 2.62, 144.36 -1.61, 203 0 M32 0 C89.73 -3.71, 149.86 -1.59, 203 0 M203 0 C226.39 -2.77, 232.78 8.72, 235 32 M203 0 C228.19 2.57, 236.6 13.13, 235 32 M235 32 C232.81 82.4, 230.17 130.34, 235 198 M235 32 C237.81 76.28, 237.18 118, 235 198 M235 198 C232 218.07, 223.85 233.83, 203 230 M235 198 C234.16 223.42, 221.1 228.53, 203 230 M203 230 C148.37 230.76, 83.79 230.91, 32 230 M203 230 C141.04 230.66, 78.38 227.33, 32 230 M32 230 C12.08 230.69, -1.1 221.75, 0 198 M32 230 C15.04 227.15, 3.24 223.67, 0 198 M0 198 C0.02 159.61, 0.44 129.07, 0 32 M0 198 C2.76 144.45, 3.72 93, 0 32 M0 32 C-0.97 7.85, 13.29 1.73, 32 0 M0 32 C1.2 14.57, 8.72 -3, 32 0" stroke="#1e1e1e" stroke-width="4" fill="none"></path></g><g transform="translate(863.8399963378906 227) rotate(0 85.51197052001953 35)"><text x="85.51197052001953" y="0" font-family="Virgil, Segoe UI Emoji" font-size="28px" fill="#1e1e1e" text-anchor="middle" style="white-space: pre;" direction="ltr" dominant-baseline="text-before-edge">Aggregation </text><text x="85.51197052001953" y="35" font-family="Virgil, Segoe UI Emoji" font-size="28px" fill="#1e1e1e" text-anchor="middle" style="white-space: pre;" direction="ltr" dominant-baseline="text-before-edge">Service</text></g><g stroke-linecap="round" transform="translate(161.35196685791016 386.00000000000045) rotate(0 26 21.5)"><path d="M33.75 5.5 C35.22 8.79, 39.12 14.25, 45.25 16.5 C50.6 20.77, 51.2 19.31, 45.25 27.5 C45.01 34.43, 39.17 35.41, 33.75 37.5 C26.64 42.46, 26.77 38.09, 20.25 37.5 C18.17 31.96, 10.61 26.17, 6.75 27.5 C-4.57 19.84, 4.3 25.02, 6.75 16.5 C8.64 14.85, 12.36 9.63, 20.25 5.5 C22.72 -1.09, 31.03 0.77, 33.75 5.5" stroke="none" stroke-width="0" fill="#b2f2bb"></path><path d="M33.75 5.5 C33.79 5.02, 39.51 9.87, 45.25 16.5 M33.75 5.5 C37.37 8.41, 41.03 9.86, 45.25 16.5 M45.25 16.5 C50.97 23.06, 49.96 22.66, 45.25 27.5 M45.25 16.5 C54.18 21.79, 54.92 23.33, 45.25 27.5 M45.25 27.5 C40.69 28.67, 35.86 35.13, 33.75 37.5 M45.25 27.5 C39.67 31.77, 35.59 35.26, 33.75 37.5 M33.75 37.5 C26.31 42.59, 29.3 45.53, 20.25 37.5 M33.75 37.5 C26.98 42.72, 28.79 44.93, 20.25 37.5 M20.25 37.5 C17.55 34.27, 13.87 30.65, 6.75 27.5 M20.25 37.5 C16.22 35.95, 13.75 32.6, 6.75 27.5 M6.75 27.5 C-2.04 22.2, 3.48 23.78, 6.75 16.5 M6.75 27.5 C4.48 26.19, 2.75 21.41, 6.75 16.5 M6.75 16.5 C10.25 11.3, 11.9 12.7, 20.25 5.5 M6.75 16.5 C8.83 12.91, 13.57 11.61, 20.25 5.5 M20.25 5.5 C24.75 0.35, 30.13 -3.7, 33.75 5.5 M20.25 5.5 C31.17 -4.28, 23.38 0.92, 33.75 5.5" stroke="#1971c2" stroke-width="4" fill="none"></path></g><g stroke-linecap="round" transform="translate(166.35196685791016 491.50000000000045) rotate(0 26 21.5)"><path d="M33.75 5.5 C33.94 11.58, 41.23 10.08, 45.25 16.5 C57.27 16.42, 56.3 20.67, 45.25 27.5 C39.95 30.76, 33.83 35.65, 33.75 37.5 C24.76 40.5, 26.21 42.37, 20.25 37.5 C17.46 33.25, 15.33 31.86, 6.75 27.5 C3.18 25.24, -0.77 26.86, 6.75 16.5 C11.48 14.34, 15.09 12.09, 20.25 5.5 C28.05 -1.08, 27.2 2.85, 33.75 5.5" stroke="none" stroke-width="0" fill="#b2f2bb"></path><path d="M33.75 5.5 C37.57 4.78, 40.66 8.53, 45.25 16.5 M33.75 5.5 C38.25 9.94, 38.99 12.82, 45.25 16.5 M45.25 16.5 C55.86 20.34, 51.13 20.59, 45.25 27.5 M45.25 16.5 C52.2 20.42, 50.59 20.64, 45.25 27.5 M45.25 27.5 C43.44 29.19, 38.71 30.8, 33.75 37.5 M45.25 27.5 C39.83 31.72, 38.11 35.02, 33.75 37.5 M33.75 37.5 C23.08 45.73, 25.28 46.4, 20.25 37.5 M33.75 37.5 C26.23 45.9, 24.63 46.15, 20.25 37.5 M20.25 37.5 C18.66 37.43, 14.73 30.6, 6.75 27.5 M20.25 37.5 C15.19 33.56, 10.37 30.75, 6.75 27.5 M6.75 27.5 C-2.64 19.45, 0.12 20.51, 6.75 16.5 M6.75 27.5 C2.05 25.92, 0.57 22.73, 6.75 16.5 M6.75 16.5 C9.9 16.2, 11.81 6.94, 20.25 5.5 M6.75 16.5 C10.05 13.09, 15.52 7.76, 20.25 5.5 M20.25 5.5 C23.23 -0.49, 28.51 -0.18, 33.75 5.5 M20.25 5.5 C29.54 3.04, 22.93 -2.56, 33.75 5.5" stroke="#1971c2" stroke-width="4" fill="none"></path></g><g stroke-linecap="round" transform="translate(559.4769668579102 74.12500000000045) rotate(0 65.875 59.875)"><path d="M22.63 13.84 C29.41 8.11, 42.97 4.42, 53.43 2.62 C63.9 0.83, 76.04 1.08, 85.41 3.07 C94.78 5.07, 102.24 8.48, 109.66 14.58 C117.07 20.69, 126.47 30.36, 129.88 39.72 C133.29 49.07, 132.13 61.25, 130.13 70.71 C128.13 80.17, 123.83 89.28, 117.9 96.49 C111.96 103.69, 103.37 110.17, 94.52 113.92 C85.67 117.66, 74.89 119.05, 64.78 118.95 C54.68 118.85, 42.68 118.05, 33.9 113.31 C25.12 108.58, 17.87 98.54, 12.13 90.56 C6.38 82.58, 0.36 74.1, -0.57 65.42 C-1.5 56.75, 0.39 48.47, 6.54 38.52 C12.69 28.57, 29.3 11.61, 36.3 5.72 C43.3 -0.18, 47.96 1.78, 48.54 3.15 M32.37 10.6 C39.7 5.64, 51.2 3.45, 61.17 2.78 C71.14 2.11, 82.93 3.34, 92.19 6.57 C101.44 9.79, 110.87 15.4, 116.72 22.15 C122.58 28.9, 125.48 38.35, 127.32 47.08 C129.15 55.82, 130.23 66.05, 127.71 74.56 C125.19 83.07, 119.11 91.13, 112.19 98.15 C105.27 105.16, 95.54 112.87, 86.17 116.64 C76.81 120.41, 66.34 121.98, 56 120.77 C45.67 119.56, 32.13 115.02, 24.19 109.38 C16.26 103.74, 12.34 95.11, 8.39 86.94 C4.43 78.77, 0.18 69.98, 0.48 60.35 C0.78 50.71, 5.04 37.3, 10.17 29.14 C15.3 20.97, 27.35 14.91, 31.25 11.38 C35.14 7.85, 33.61 6.98, 33.55 7.94" stroke="none" stroke-width="0" fill="#a5d8ff"></path><path d="M116.01 19 C122.84 24.97, 125.71 36.14, 128.08 45.13 C130.45 54.13, 132.43 64.15, 130.22 72.97 C128.01 81.78, 121.8 90.89, 114.8 98.04 C107.8 105.18, 97.96 112.02, 88.22 115.84 C78.49 119.65, 66.17 121.98, 56.4 120.91 C46.64 119.84, 37.84 114.73, 29.64 109.44 C21.45 104.14, 12.48 97.3, 7.24 89.15 C1.99 81.01, -1.67 69.83, -1.81 60.58 C-1.96 51.32, 1.33 41.73, 6.36 33.61 C11.38 25.49, 19.38 17.31, 28.33 11.85 C37.28 6.39, 50.08 2.03, 60.07 0.85 C70.06 -0.34, 78.51 0.79, 88.26 4.76 C98.01 8.74, 112.96 20.02, 118.55 24.7 C124.15 29.38, 122.25 32.33, 121.84 32.84 M75.72 -0.41 C85.86 0.07, 100.45 8.39, 108.58 14.31 C116.7 20.24, 120.14 26.84, 124.46 35.16 C128.78 43.49, 134.52 55.26, 134.49 64.26 C134.47 73.25, 130.22 81.24, 124.33 89.15 C118.43 97.06, 108.57 107.09, 99.13 111.71 C89.69 116.34, 77.89 116.64, 67.7 116.9 C57.5 117.15, 47.24 116.95, 37.96 113.24 C28.68 109.54, 18.49 101.28, 12.02 94.68 C5.55 88.08, 0.29 82.51, -0.87 73.67 C-2.04 64.83, 2.24 50.76, 5.02 41.66 C7.81 32.57, 9.54 25.5, 15.83 19.1 C22.13 12.71, 32.48 6.4, 42.8 3.31 C53.12 0.22, 72.55 1.05, 77.73 0.56 C82.91 0.07, 74.14 -0.9, 73.89 0.4" stroke="#1e1e1e" stroke-width="4" fill="none"></path></g><g transform="translate(586.7813479304496 109.16198147645582) rotate(0 38.489959716796875 25)"><text x="38.489959716796875" y="0" font-family="Virgil, Segoe UI Emoji" font-size="20px" fill="#1e1e1e" text-anchor="middle" style="white-space: pre;" direction="ltr" dominant-baseline="text-before-edge">Product</text><text x="38.489959716796875" y="25" font-family="Virgil, Segoe UI Emoji" font-size="20px" fill="#1e1e1e" text-anchor="middle" style="white-space: pre;" direction="ltr" dominant-baseline="text-before-edge">review</text></g><g stroke-linecap="round" transform="translate(553.4769668579102 394.12500000000045) rotate(0 65.875 59.875)"><path d="M21.98 14.46 C28.33 7.72, 39.36 3.43, 49.06 1.32 C58.77 -0.78, 70.37 -0.78, 80.23 1.82 C90.09 4.42, 100.21 11.1, 108.23 16.92 C116.26 22.73, 124.71 28.38, 128.36 36.7 C132 45.03, 131.43 57.04, 130.09 66.88 C128.75 76.71, 125.7 87.97, 120.32 95.71 C114.95 103.44, 106.74 109.45, 97.83 113.27 C88.93 117.09, 77.48 118.42, 66.9 118.64 C56.33 118.86, 43.81 118.74, 34.37 114.59 C24.92 110.45, 15.91 101.53, 10.25 93.76 C4.58 85.99, 1.51 77.43, 0.38 67.99 C-0.75 58.56, -8.09 48.73, 3.46 37.13 C15.02 25.54, 50.94 0.87, 69.7 -1.59 C88.46 -4.04, 115.78 20.88, 116.03 22.41 M105.6 13.27 C114.49 17.89, 122.61 24.23, 126.62 31.75 C130.62 39.27, 130.33 48.6, 129.63 58.4 C128.93 68.19, 127.18 81.8, 122.44 90.53 C117.7 99.26, 109.82 105.54, 101.19 110.78 C92.56 116.02, 80.91 121.17, 70.64 121.95 C60.38 122.73, 48.7 119.24, 39.61 115.46 C30.51 111.67, 22.31 106.66, 16.07 99.25 C9.82 91.83, 4.59 80.09, 2.14 70.95 C-0.31 61.81, -0.71 52.62, 1.36 44.4 C3.43 36.18, 7.7 28.9, 14.56 21.63 C21.42 14.36, 32.05 4.03, 42.53 0.78 C53 -2.47, 66.71 0.49, 77.41 2.14 C88.11 3.78, 102.57 8.95, 106.72 10.67 C110.88 12.39, 103.52 11.62, 102.36 12.47" stroke="none" stroke-width="0" fill="#a5d8ff"></path><path d="M73.54 0.59 C83.05 0.73, 93.42 4.25, 101.84 9.26 C110.26 14.27, 118.8 22.3, 124.05 30.64 C129.3 38.98, 132.92 50.15, 133.34 59.29 C133.76 68.42, 131.63 76.96, 126.58 85.47 C121.53 93.98, 111.76 104.39, 103.03 110.34 C94.31 116.29, 83.88 120.52, 74.23 121.18 C64.58 121.83, 54.36 117.6, 45.13 114.27 C35.89 110.94, 26.15 107.83, 18.83 101.2 C11.51 94.56, 4.05 83.26, 1.2 74.45 C-1.65 65.64, -0.57 57.52, 1.72 48.34 C4.01 39.17, 8.11 27.02, 14.95 19.4 C21.79 11.79, 30.29 5.29, 42.77 2.67 C55.25 0.04, 79.99 2.2, 89.82 3.65 C99.66 5.1, 102.05 10.69, 101.8 11.35 M60.02 1.36 C69.49 -0.19, 81.28 -0.72, 90.43 2.44 C99.58 5.6, 108.28 12.58, 114.93 20.32 C121.58 28.05, 128.06 39.63, 130.32 48.86 C132.58 58.09, 131.59 67.35, 128.49 75.69 C125.39 84.03, 118.25 92.53, 111.73 98.93 C105.2 105.32, 98.72 110.77, 89.34 114.06 C79.96 117.34, 65.96 119.23, 55.43 118.62 C44.89 118.02, 34.6 116.03, 26.13 110.42 C17.66 104.81, 8.94 93.98, 4.6 84.97 C0.26 75.96, -1.06 65.62, 0.1 56.36 C1.27 47.11, 6.61 37.55, 11.58 29.44 C16.55 21.33, 22.02 12.41, 29.94 7.71 C37.87 3.02, 54.31 2.25, 59.13 1.29 C63.95 0.32, 58.7 1.4, 58.85 1.94" stroke="#1e1e1e" stroke-width="4" fill="none"></path></g><g transform="translate(580.7813479304496 441.6619814764558) rotate(0 38.489959716796875 12.5)"><text x="38.489959716796875" y="0" font-family="Virgil, Segoe UI Emoji" font-size="20px" fill="#1e1e1e" text-anchor="middle" style="white-space: pre;" direction="ltr" dominant-baseline="text-before-edge">Product</text></g><g stroke-linecap="round" transform="translate(151.35196685791016 46.500000000000455) rotate(0 26 21.5)"><path d="M33.75 5.5 C37.07 10.11, 41.1 9.43, 45.25 16.5 C51.67 25.72, 53.74 21.22, 45.25 27.5 C42.61 33.55, 38.53 37.38, 33.75 37.5 C26.39 38.88, 28.15 37.68, 20.25 37.5 C19.65 36.94, 15.69 26.93, 6.75 27.5 C1.91 25.4, 1.26 20.35, 6.75 16.5 C7.04 13.42, 13.18 5.59, 20.25 5.5 C22.47 -4.4, 30.57 0.94, 33.75 5.5" stroke="none" stroke-width="0" fill="#b2f2bb"></path><path d="M33.75 5.5 C36.26 9.1, 39.48 11.43, 45.25 16.5 M33.75 5.5 C37 7.24, 41.3 11.78, 45.25 16.5 M45.25 16.5 C48.87 20.88, 52.75 25.86, 45.25 27.5 M45.25 16.5 C52.41 24.15, 55.55 20.58, 45.25 27.5 M45.25 27.5 C41.9 32.62, 39.55 33.86, 33.75 37.5 M45.25 27.5 C41.49 30.3, 39.24 31.2, 33.75 37.5 M33.75 37.5 C29.38 47, 28.36 46.79, 20.25 37.5 M33.75 37.5 C22.85 47.26, 26.6 42.48, 20.25 37.5 M20.25 37.5 C14.9 35.72, 13.57 30.15, 6.75 27.5 M20.25 37.5 C16.29 34.4, 11.32 32.57, 6.75 27.5 M6.75 27.5 C-3.98 25.52, 1.93 25.08, 6.75 16.5 M6.75 27.5 C-1.75 19.53, 2.47 19.8, 6.75 16.5 M6.75 16.5 C14.1 14.72, 13.21 8.31, 20.25 5.5 M6.75 16.5 C10.5 14.07, 14.06 10.11, 20.25 5.5 M20.25 5.5 C25.08 1.73, 23.19 -2.63, 33.75 5.5 M20.25 5.5 C27.32 0.9, 25.43 -3.25, 33.75 5.5" stroke="#1971c2" stroke-width="4" fill="none"></path></g><g transform="translate(95.35196685791016 13.000000000000455) rotate(0 45.351966857910156 20)"><text x="0" y="0" font-family="Virgil, Segoe UI Emoji" font-size="16px" fill="#1e1e1e" text-anchor="start" style="white-space: pre;" direction="ltr" dominant-baseline="text-before-edge">Add review </text><text x="0" y="20" font-family="Virgil, Segoe UI Emoji" font-size="16px" fill="#1e1e1e" text-anchor="start" style="white-space: pre;" direction="ltr" dominant-baseline="text-before-edge">endpoint</text></g><g transform="translate(60 387.00000000000045) rotate(0 51.799957275390625 20)"><text x="0" y="0" font-family="Virgil, Segoe UI Emoji" font-size="16px" fill="#1e1e1e" text-anchor="start" style="white-space: pre;" direction="ltr" dominant-baseline="text-before-edge">Add product </text><text x="0" y="20" font-family="Virgil, Segoe UI Emoji" font-size="16px" fill="#1e1e1e" text-anchor="start" style="white-space: pre;" direction="ltr" dominant-baseline="text-before-edge">endpoint</text></g><g transform="translate(10 497.00000000000045) rotate(0 70.55994415283203 20)"><text x="0" y="0" font-family="Virgil, Segoe UI Emoji" font-size="16px" fill="#1e1e1e" text-anchor="start" style="white-space: pre;" direction="ltr" dominant-baseline="text-before-edge">Add specifications</text><text x="0" y="20" font-family="Virgil, Segoe UI Emoji" font-size="16px" fill="#1e1e1e" text-anchor="start" style="white-space: pre;" direction="ltr" dominant-baseline="text-before-edge">endpoint</text></g><g stroke-linecap="round"><g transform="translate(446.01607754615543 456.36875991798024) rotate(0 51.91666666666788 0.443537841224952)"><path d="M-2.43 0.48 C15.34 0.95, 87.51 0.85, 105.51 0.64 M1.45 -1.72 C19.1 -0.61, 86.98 3.62, 104.19 4.14" stroke="#1e1e1e" stroke-width="4" fill="none"></path></g><g transform="translate(446.01607754615543 456.36875991798024) rotate(0 51.91666666666788 0.443537841224952)"><path d="M80.65 12.74 C86.41 11.06, 91.62 6.7, 104.31 3.41 M81.11 11.26 C88.97 8.58, 99.19 6.37, 104.01 3.67" stroke="#1e1e1e" stroke-width="4" fill="none"></path></g><g transform="translate(446.01607754615543 456.36875991798024) rotate(0 51.91666666666788 0.443537841224952)"><path d="M81.48 -4.34 C86.9 -1.58, 91.89 -1.49, 104.31 3.41 M81.94 -5.82 C89.36 -1.87, 99.27 2.55, 104.01 3.67" stroke="#1e1e1e" stroke-width="4" fill="none"></path></g></g><mask></mask><g stroke-linecap="round"><g transform="translate(703.0160775461554 142.36875991798024) rotate(0 45.41666666666788 49.94353784122495)"><path d="M-1.87 -2.36 C12.91 14.42, 75.29 85.17, 90.47 101.98 M2.31 2.53 C16.52 18.42, 72.56 81.71, 88.03 98.1" stroke="#1e1e1e" stroke-width="4" fill="none"></path></g><g transform="translate(703.0160775461554 142.36875991798024) rotate(0 45.41666666666788 49.94353784122495)"><path d="M64.2 86.23 C75.49 89.7, 81.07 97.08, 87.87 98.78 M66.04 87.24 C71.79 90.14, 78.89 93.57, 87.31 98.76" stroke="#1e1e1e" stroke-width="4" fill="none"></path></g><g transform="translate(703.0160775461554 142.36875991798024) rotate(0 45.41666666666788 49.94353784122495)"><path d="M76.85 74.72 C83.59 82.29, 84.57 93.86, 87.87 98.78 M78.68 75.72 C80.97 81.79, 84.52 88.46, 87.31 98.76" stroke="#1e1e1e" stroke-width="4" fill="none"></path></g></g><mask></mask><g stroke-linecap="round"><g transform="translate(696.0529595231019 465.19007028392616) rotate(0 56.41666666666788 -68.05646215877505)"><path d="M1.95 -1.24 C20.7 -23.64, 95.37 -111.67, 114.07 -134.04 M-0.44 4.26 C17.91 -18.94, 93.59 -115.22, 112.5 -137.93" stroke="#1e1e1e" stroke-width="4" fill="none"></path></g><g transform="translate(696.0529595231019 465.19007028392616) rotate(0 56.41666666666788 -68.05646215877505)"><path d="M103.54 -113.39 C108.75 -121.82, 110.59 -129.63, 112.83 -138.31 M103.58 -113.73 C107.1 -119, 108.35 -124.55, 111.78 -138.43" stroke="#1e1e1e" stroke-width="4" fill="none"></path></g><g transform="translate(696.0529595231019 465.19007028392616) rotate(0 56.41666666666788 -68.05646215877505)"><path d="M90.22 -124.11 C100.17 -128.82, 106.75 -132.82, 112.83 -138.31 M90.26 -124.45 C96.66 -127.29, 100.81 -130.49, 111.78 -138.43" stroke="#1e1e1e" stroke-width="4" fill="none"></path></g></g><mask></mask><g stroke-linecap="round"><g transform="translate(1078.5354600280243 273.83566618538543) rotate(0 59.91666666666788 3.443537841224952)"><path d="M2.33 0.41 C21.88 2.05, 99.65 8.54, 119.47 9.68 M0.15 -1.84 C19.1 -0.89, 97.03 4.13, 117.03 6.18" stroke="#1e1e1e" stroke-width="4" fill="none"></path></g><g transform="translate(1078.5354600280243 273.83566618538543) rotate(0 59.91666666666788 3.443537841224952)"><path d="M93.22 12.55 C104.03 11.09, 111.38 8.9, 118.48 7.68 M92.43 12.71 C100.73 9.51, 109.83 8.56, 116.14 5.35" stroke="#1e1e1e" stroke-width="4" fill="none"></path></g><g transform="translate(1078.5354600280243 273.83566618538543) rotate(0 59.91666666666788 3.443537841224952)"><path d="M94.6 -4.49 C104.88 0.5, 111.71 4.74, 118.48 7.68 M93.81 -4.33 C101.76 -1.56, 110.37 3.44, 116.14 5.35" stroke="#1e1e1e" stroke-width="4" fill="none"></path></g></g><mask></mask></svg>