<svg version="1.1" xmlns="http://www.w3.org/2000/svg" viewBox="0 0 1737.5 612.6671547289316" width="3475" height="1225.3343094578631">
  <!-- svg-source:excalidraw -->
  
  <defs>
    <style class="style-fonts">
      @font-face {
        font-family: "Virgil";
        src: url("https://excalidraw.com/Virgil.woff2");
      }
      @font-face {
        font-family: "Cascadia";
        src: url("https://excalidraw.com/Cascadia.woff2");
      }
      @font-face {
        font-family: "Assistant";
        src: url("https://excalidraw.com/Assistant-Regular.woff2");
      }
    </style>
    
  </defs>
  <g stroke-linecap="round" transform="translate(194.07057570747565 372.66715472893156) rotate(0 117.5 115)"><path d="M7.86 8.16 C7.86 8.16, 7.86 8.16, 7.86 8.16 M7.86 8.16 C7.86 8.16, 7.86 8.16, 7.86 8.16 M8.78 31.49 C12.14 25.8, 22.79 17.58, 34.37 2.05 M8.78 31.49 C18.42 22.8, 26.33 13.33, 34.37 2.05 M8.39 56.32 C20.44 41.02, 35.8 20.17, 55.63 1.98 M8.39 56.32 C22.25 35.57, 39.26 17.21, 55.63 1.98 M8.66 80.4 C22.43 63.57, 43.2 49.19, 76.89 1.91 M8.66 80.4 C26.63 58.99, 44.82 37.28, 76.89 1.91 M8.27 105.24 C36.64 74.85, 52.98 51.44, 98.15 1.85 M8.27 105.24 C43.18 65.8, 73.77 27.52, 98.15 1.85 M8.54 129.32 C39.19 92.64, 68.55 56.82, 119.41 1.78 M8.54 129.32 C52.99 79.05, 94.46 29.84, 119.41 1.78 M8.15 154.16 C54.88 102.84, 102.42 44.14, 140.67 1.71 M8.15 154.16 C51.81 108.06, 91.2 61.05, 140.67 1.71 M8.41 178.24 C47.14 131.34, 86.89 87.86, 161.28 2.39 M8.41 178.24 C44.47 135.88, 81.25 93.05, 161.28 2.39 M7.37 203.83 C64.04 133.21, 121.26 67.32, 182.54 2.32 M7.37 203.83 C75.62 125.82, 143.19 48.54, 182.54 2.32 M10.91 224.14 C58.48 167.51, 106.26 114.68, 204.45 1.5 M10.91 224.14 C69.89 157.22, 129.86 86.74, 204.45 1.5 M24.3 233.13 C70.43 180.97, 121.6 128.86, 221.78 5.96 M24.3 233.13 C74.24 174.91, 122.33 114.72, 221.78 5.96 M40.97 238.34 C114.41 154.99, 181.16 76.37, 235.16 14.95 M40.97 238.34 C88.36 180.37, 137.48 123.58, 235.16 14.95 M62.23 238.27 C109.64 184.81, 151.07 137.9, 238.71 35.26 M62.23 238.27 C106.38 182.91, 156.45 127.35, 238.71 35.26 M83.49 238.2 C147.7 172.35, 208.16 104.05, 238.98 59.34 M83.49 238.2 C126.89 187.83, 168.66 137.24, 238.98 59.34 M104.75 238.13 C147.7 188.32, 197.9 133.58, 238.59 84.17 M104.75 238.13 C156.1 181.22, 206.24 119.06, 238.59 84.17 M126.01 238.07 C158.91 199.11, 200.62 163.56, 238.85 108.26 M126.01 238.07 C163.73 193.44, 204.02 147.07, 238.85 108.26 M147.27 238 C178.57 192.41, 218.75 156.13, 238.46 133.09 M147.27 238 C172.37 206.64, 199.33 177.51, 238.46 133.09 M168.53 237.93 C183.35 219.98, 197.87 196.91, 238.73 157.17 M168.53 237.93 C193.36 209.61, 222.31 177.05, 238.73 157.17 M189.79 237.86 C212.08 218.86, 231 192.08, 239 181.26 M189.79 237.86 C198.45 224.34, 211.68 212.25, 239 181.26 M218.27 229.49 C224.72 226.78, 228.34 216.99, 233.36 212.13 M218.27 229.49 C221.85 227.02, 225.4 222.89, 233.36 212.13" stroke="#b2f2bb" stroke-width="2" fill="none"></path><path d="M32 0 C82.46 -1.85, 129.7 -5.31, 203 0 M32 0 C84.61 -0.43, 137.89 0.56, 203 0 M203 0 C226.31 -0.27, 237.24 7.03, 235 32 M203 0 C222.94 3.83, 233.91 9.46, 235 32 M235 32 C235.16 85.65, 233.71 144.75, 235 198 M235 32 C234.02 78.44, 234 121.35, 235 198 M235 198 C236.7 223.13, 224.29 226.3, 203 230 M235 198 C230.59 217.48, 223.81 226.92, 203 230 M203 230 C145.68 229.7, 88.43 228.3, 32 230 M203 230 C167.54 225.04, 132.84 225.87, 32 230 M32 230 C10.97 227.49, 2.17 216.88, 0 198 M32 230 C7.12 233.94, 3.52 223.75, 0 198 M0 198 C-0.5 135.54, 0.97 72.39, 0 32 M0 198 C2.39 136.68, 1.52 75.44, 0 32 M0 32 C-1.32 12.69, 6.87 -0.35, 32 0 M0 32 C1.49 12.75, 12.13 -0.93, 32 0" stroke="#1e1e1e" stroke-width="4" fill="none"></path></g><g transform="translate(224.6726112299366 435.16715472893156) rotate(0 86.89796447753906 52.5)"><text x="86.89796447753906" y="0" font-family="Virgil, Segoe UI Emoji" font-size="28px" fill="#1e1e1e" text-anchor="middle" style="white-space: pre;" direction="ltr" dominant-baseline="text-before-edge">User </text><text x="86.89796447753906" y="35" font-family="Virgil, Segoe UI Emoji" font-size="28px" fill="#1e1e1e" text-anchor="middle" style="white-space: pre;" direction="ltr" dominant-baseline="text-before-edge">Preferences </text><text x="86.89796447753906" y="70" font-family="Virgil, Segoe UI Emoji" font-size="28px" fill="#1e1e1e" text-anchor="middle" style="white-space: pre;" direction="ltr" dominant-baseline="text-before-edge">Service</text></g><g stroke-linecap="round"><g transform="translate(426.60621709257975 145.98645056849) rotate(0 51.91666666666788 0.443537841224952)"><path d="M-1.43 0.17 C15.48 0.25, 84.84 0.38, 102.45 0.21 M3 -2.21 C20.76 -1.68, 91.49 2.89, 108.1 3.47" stroke="#1e1e1e" stroke-width="4" fill="none"></path></g><g transform="translate(426.60621709257975 145.98645056849) rotate(0 51.91666666666788 0.443537841224952)"><path d="M84.31 9.8 C91.74 8.74, 98.99 7.24, 107.83 4.46 M83.89 11.63 C90.93 8.6, 98.63 7.31, 108.31 3.02" stroke="#1e1e1e" stroke-width="4" fill="none"></path></g><g transform="translate(426.60621709257975 145.98645056849) rotate(0 51.91666666666788 0.443537841224952)"><path d="M85.2 -7.27 C92.31 -2.61, 99.26 1.62, 107.83 4.46 M84.78 -5.45 C91.65 -3.48, 99.1 0.24, 108.31 3.02" stroke="#1e1e1e" stroke-width="4" fill="none"></path></g></g><mask></mask><g stroke-linecap="round" transform="translate(1214.4455757074757 246.33284527106798) rotate(0 80.375 59.875)"><path d="M107.42 3.56 C118.15 4.75, 126.82 8.95, 134.94 14.78 C143.06 20.62, 152.17 30.23, 156.12 38.58 C160.07 46.93, 159.85 56.49, 158.63 64.91 C157.4 73.34, 154.22 81.49, 148.78 89.13 C143.33 96.77, 135.35 105.57, 125.96 110.74 C116.56 115.92, 104.31 119.09, 92.42 120.17 C80.53 121.25, 66 120.39, 54.59 117.25 C43.18 114.1, 32.07 107.37, 23.98 101.32 C15.88 95.27, 9.82 88.65, 6.03 80.93 C2.23 73.21, 0.46 63.53, 1.19 54.99 C1.92 46.45, 4.4 36.98, 10.38 29.67 C16.36 22.37, 27.14 15.71, 37.07 11.15 C46.99 6.58, 52.55 0.64, 69.93 2.29 C87.31 3.95, 126.94 13.58, 141.35 21.08 C155.75 28.58, 157.3 47.02, 156.35 47.28 M62.38 -0.45 C72.13 -3.71, 83.25 -1.1, 93.93 0.63 C104.61 2.37, 117.12 4.29, 126.46 9.96 C135.81 15.63, 144.57 26.37, 150 34.65 C155.44 42.92, 158.05 50.77, 159.07 59.61 C160.09 68.46, 160.88 79.62, 156.15 87.72 C151.41 95.82, 140.47 102.98, 130.67 108.19 C120.87 113.41, 108.81 117.2, 97.36 119.02 C85.91 120.84, 73.42 121.25, 61.98 119.12 C50.55 116.98, 37.82 111.7, 28.74 106.23 C19.65 100.75, 11.74 94.26, 7.45 86.27 C3.15 78.29, 3.39 66.84, 2.95 58.31 C2.52 49.78, 0.04 42.24, 4.81 35.1 C9.59 27.96, 22.1 20.54, 31.6 15.45 C41.1 10.37, 56.74 7.12, 61.81 4.6 C66.87 2.08, 61.43 -0.05, 61.98 0.35" stroke="none" stroke-width="0" fill="#a5d8ff"></path><path d="M91.49 1.59 C102.78 1.85, 115.62 6.71, 125.01 11.27 C134.41 15.83, 141.67 21.74, 147.86 28.94 C154.05 36.14, 160.97 45.59, 162.14 54.47 C163.32 63.36, 159.13 74.01, 154.89 82.25 C150.64 90.48, 145.21 98.42, 136.68 103.89 C128.16 109.36, 115.29 112.69, 103.74 115.06 C92.19 117.43, 78.82 119.23, 67.37 118.09 C55.91 116.95, 44.38 112.66, 35 108.23 C25.62 103.8, 16.58 98.53, 11.07 91.5 C5.55 84.48, 2.9 74.79, 1.9 66.08 C0.9 57.38, 0.86 47.57, 5.07 39.27 C9.28 30.97, 18.96 22.67, 27.16 16.27 C35.36 9.87, 40.83 3, 54.25 0.88 C67.68 -1.24, 96.45 1.84, 107.7 3.56 C118.95 5.27, 122.19 10.06, 121.75 11.17 M60.68 -1.53 C71.3 -4.43, 86.66 -3.12, 98.12 -1.11 C109.59 0.89, 120.6 4.86, 129.46 10.49 C138.32 16.13, 146.03 24.69, 151.28 32.68 C156.53 40.66, 160.49 49.78, 160.97 58.39 C161.46 67.01, 159.72 75.86, 154.19 84.38 C148.65 92.89, 136.78 103.36, 127.76 109.5 C118.73 115.64, 110.56 119.85, 100.04 121.22 C89.51 122.58, 76.67 120.28, 64.6 117.69 C52.54 115.1, 36.89 110.98, 27.65 105.67 C18.41 100.37, 13.39 93.17, 9.17 85.84 C4.96 78.5, 3 69.97, 2.37 61.69 C1.74 53.41, 0.84 44.13, 5.37 36.16 C9.91 28.2, 20.38 19.32, 29.58 13.92 C38.79 8.52, 55.15 5.39, 60.61 3.75 C66.08 2.11, 62.15 3.56, 62.37 4.1" stroke="#1e1e1e" stroke-width="4" fill="none"></path></g><g transform="translate(1244.9869063165788 281.36982674752335) rotate(0 49.999961853027344 25)"><text x="49.999961853027344" y="0" font-family="Virgil, Segoe UI Emoji" font-size="20px" fill="#1e1e1e" text-anchor="middle" style="white-space: pre;" direction="ltr" dominant-baseline="text-before-edge">Extended </text><text x="49.999961853027344" y="25" font-family="Virgil, Segoe UI Emoji" font-size="20px" fill="#1e1e1e" text-anchor="middle" style="white-space: pre;" direction="ltr" dominant-baseline="text-before-edge">profile</text></g><g stroke-linecap="round" transform="translate(184.5 37.99999999999909) rotate(0 117.5 115)"><path d="M7.86 8.16 C7.86 8.16, 7.86 8.16, 7.86 8.16 M7.86 8.16 C7.86 8.16, 7.86 8.16, 7.86 8.16 M0.91 40.54 C9.98 32.66, 23.49 18.29, 36.34 -0.21 M0.91 40.54 C15.96 25.52, 28.57 7.34, 36.34 -0.21 M1.18 64.62 C13.52 49.59, 25.97 33.8, 57.6 -0.28 M1.18 64.62 C22.55 40.26, 40.81 18.26, 57.6 -0.28 M0.79 89.46 C23.16 58.72, 51.06 35.33, 78.2 0.41 M0.79 89.46 C25.77 59.64, 51.95 31.02, 78.2 0.41 M1.05 113.54 C26.77 91.31, 51.93 57.42, 99.46 0.34 M1.05 113.54 C38.87 72.3, 74.01 33.57, 99.46 0.34 M0.66 138.38 C50.11 82.79, 95.05 28.33, 120.72 0.27 M0.66 138.38 C31.71 97.23, 65.55 57.3, 120.72 0.27 M0.93 162.46 C33.04 122.83, 65.61 90.9, 141.98 0.2 M0.93 162.46 C45.96 109.36, 95.19 53.07, 141.98 0.2 M0.54 187.3 C65.25 110.44, 134.35 40.6, 163.24 0.13 M0.54 187.3 C55.43 119.57, 112.41 54.5, 163.24 0.13 M2.12 209.87 C72.99 135.79, 138.87 61.85, 184.5 0.06 M2.12 209.87 C45.78 158.37, 88.42 104.61, 184.5 0.06 M10.91 224.14 C78.3 144.74, 143.81 70.98, 205.11 0.75 M10.91 224.14 C76.23 147.04, 144.71 68.82, 205.11 0.75 M27.58 229.35 C65.34 186.32, 103.2 137.79, 222.43 5.21 M27.58 229.35 C82.07 164.19, 140.44 95.76, 222.43 5.21 M48.19 230.04 C88.79 186.15, 123.33 144.43, 233.19 17.21 M48.19 230.04 C94.95 172.57, 146.2 115.68, 233.19 17.21 M69.45 229.97 C113.78 179.72, 156.71 135.31, 235.43 39.03 M69.45 229.97 C123.46 165.15, 177.24 106.29, 235.43 39.03 M90.71 229.9 C129.39 183.95, 175.88 130.56, 235.7 63.11 M90.71 229.9 C121.4 191.51, 154.75 150.49, 235.7 63.11 M111.97 229.83 C152.46 174.86, 201.07 128.78, 235.96 87.19 M111.97 229.83 C143.36 194.03, 173.54 156.4, 235.96 87.19 M132.57 230.52 C162.92 192.76, 196.51 155.44, 235.57 112.03 M132.57 230.52 C163.42 196.33, 193.97 160.38, 235.57 112.03 M153.83 230.45 C176.28 203.65, 209.42 171.92, 235.84 136.11 M153.83 230.45 C184.43 196.97, 213.9 160.93, 235.84 136.11 M175.09 230.38 C188.75 206.5, 206.86 190.49, 235.45 160.95 M175.09 230.38 C192.45 212.81, 212 190.94, 235.45 160.95 M196.35 230.31 C210.09 217.02, 222 199.94, 235.72 185.03 M196.35 230.31 C207.09 217.79, 222.39 201.64, 235.72 185.03 M220.24 227.22 C220.19 220.95, 229.35 223.67, 233.36 212.13 M220.24 227.22 C222.59 222.76, 227.87 215.86, 233.36 212.13" stroke="#b2f2bb" stroke-width="2" fill="none"></path><path d="M32 0 C69.51 5.52, 116.24 5.93, 203 0 M32 0 C97.81 3.47, 164.87 4.08, 203 0 M203 0 C227.29 -3.76, 238.5 9.2, 235 32 M203 0 C226.03 -3.68, 238.58 9.15, 235 32 M235 32 C233.14 92, 233.12 147.56, 235 198 M235 32 C236.97 89.56, 238.55 150.6, 235 198 M235 198 C231.46 218.21, 223.46 226.69, 203 230 M235 198 C238.59 221.1, 227.93 232.14, 203 230 M203 230 C153.93 230.94, 112.01 230.6, 32 230 M203 230 C146.33 232.58, 88.27 232.99, 32 230 M32 230 C11.86 231.45, -2.77 216.19, 0 198 M32 230 C12.92 226.14, -1.11 221.1, 0 198 M0 198 C-5.34 137.16, -5.29 74.76, 0 32 M0 198 C-1.35 162.06, 0.01 121.84, 0 32 M0 32 C2.88 7.66, 12.01 -2.49, 32 0 M0 32 C0.99 6.65, 8.98 -1.73, 32 0" stroke="#1e1e1e" stroke-width="4" fill="none"></path></g><g transform="translate(212.48403930664062 117.99999999999909) rotate(0 89.51596069335938 35)"><text x="89.51596069335938" y="0" font-family="Virgil, Segoe UI Emoji" font-size="28px" fill="#1e1e1e" text-anchor="middle" style="white-space: pre;" direction="ltr" dominant-baseline="text-before-edge">User Profile </text><text x="89.51596069335938" y="35" font-family="Virgil, Segoe UI Emoji" font-size="28px" fill="#1e1e1e" text-anchor="middle" style="white-space: pre;" direction="ltr" dominant-baseline="text-before-edge">Service</text></g><g stroke-linecap="round" transform="translate(823.5 174.9999999999991) rotate(0 117.5 115)"><path d="M7.86 8.16 C7.86 8.16, 7.86 8.16, 7.86 8.16 M7.86 8.16 C7.86 8.16, 7.86 8.16, 7.86 8.16 M8.78 31.49 C17.86 25.35, 23.67 22.51, 34.37 2.05 M8.78 31.49 C18.04 19.96, 27.49 10.29, 34.37 2.05 M8.39 56.32 C22.65 39.53, 41.11 22.76, 55.63 1.98 M8.39 56.32 C23.56 42.91, 35.31 24.35, 55.63 1.98 M8.66 80.4 C21.7 62.85, 34.81 47.43, 76.89 1.91 M8.66 80.4 C27.17 62.52, 44.28 42.4, 76.89 1.91 M8.27 105.24 C41.43 71.51, 72.17 33.3, 98.15 1.85 M8.27 105.24 C28.88 82.22, 50.71 58.57, 98.15 1.85 M8.54 129.32 C34.29 104.3, 59.69 76.64, 119.41 1.78 M8.54 129.32 C45.53 89.78, 79.7 49.97, 119.41 1.78 M8.15 154.16 C37.48 120.56, 69.76 86.28, 140.67 1.71 M8.15 154.16 C45.06 110.64, 85.17 62.16, 140.67 1.71 M8.41 178.24 C57.45 123.65, 103.81 69.1, 161.28 2.39 M8.41 178.24 C62.3 116.42, 116.54 52.37, 161.28 2.39 M7.37 203.83 C52.97 151.24, 98.43 101.33, 182.54 2.32 M7.37 203.83 C66.05 134.09, 129.25 61.9, 182.54 2.32 M10.91 224.14 C60.67 166.68, 107.47 116.53, 204.45 1.5 M10.91 224.14 C79.91 143.12, 151.2 64.22, 204.45 1.5 M24.3 233.13 C73.42 175.67, 123.7 120.46, 221.78 5.96 M24.3 233.13 C102.28 143.79, 179.97 53.94, 221.78 5.96 M40.97 238.34 C115.53 148.5, 191.52 63.35, 235.16 14.95 M40.97 238.34 C92.45 175.13, 145.42 115.93, 235.16 14.95 M62.23 238.27 C125.99 166.53, 193.06 91.36, 238.71 35.26 M62.23 238.27 C135.23 156.88, 203.75 77.56, 238.71 35.26 M83.49 238.2 C120.45 198.89, 159.35 153.44, 238.98 59.34 M83.49 238.2 C144.22 170.73, 205.42 102.61, 238.98 59.34 M104.75 238.13 C152.38 185.92, 195.96 133.59, 238.59 84.17 M104.75 238.13 C140.04 197.85, 174.18 156.31, 238.59 84.17 M126.01 238.07 C166.67 188.03, 207.41 138.27, 238.85 108.26 M126.01 238.07 C163.43 195.82, 202.51 152, 238.85 108.26 M147.27 238 C184.49 197.06, 218.32 161.62, 238.46 133.09 M147.27 238 C173.9 206.8, 200.51 175.09, 238.46 133.09 M168.53 237.93 C187.43 217.39, 201.5 198.78, 238.73 157.17 M168.53 237.93 C192.84 210.37, 217.84 184.81, 238.73 157.17 M189.79 237.86 C206.27 216.64, 221.93 200.67, 239 181.26 M189.79 237.86 C203.59 219.91, 220.61 204.76, 239 181.26 M218.27 229.49 C222.22 222.73, 226.37 223.6, 233.36 212.13 M218.27 229.49 C224.32 222.97, 228.08 215.95, 233.36 212.13" stroke="#b2f2bb" stroke-width="2" fill="none"></path><path d="M32 0 C90.48 2.62, 144.36 -1.61, 203 0 M32 0 C89.73 -3.71, 149.86 -1.59, 203 0 M203 0 C226.39 -2.77, 232.78 8.72, 235 32 M203 0 C228.19 2.57, 236.6 13.13, 235 32 M235 32 C232.81 82.4, 230.17 130.34, 235 198 M235 32 C237.81 76.28, 237.18 118, 235 198 M235 198 C232 218.07, 223.85 233.83, 203 230 M235 198 C234.16 223.42, 221.1 228.53, 203 230 M203 230 C148.37 230.76, 83.79 230.91, 32 230 M203 230 C141.04 230.66, 78.38 227.33, 32 230 M32 230 C12.08 230.69, -1.1 221.75, 0 198 M32 230 C15.04 227.15, 3.24 223.67, 0 198 M0 198 C0.02 159.61, 0.44 129.07, 0 32 M0 198 C2.76 144.45, 3.72 93, 0 32 M0 32 C-0.97 7.85, 13.29 1.73, 32 0 M0 32 C1.2 14.57, 8.72 -3, 32 0" stroke="#1e1e1e" stroke-width="4" fill="none"></path></g><g transform="translate(855.4880294799805 254.9999999999991) rotate(0 85.51197052001953 35)"><text x="85.51197052001953" y="0" font-family="Virgil, Segoe UI Emoji" font-size="28px" fill="#1e1e1e" text-anchor="middle" style="white-space: pre;" direction="ltr" dominant-baseline="text-before-edge">Aggregation </text><text x="85.51197052001953" y="35" font-family="Virgil, Segoe UI Emoji" font-size="28px" fill="#1e1e1e" text-anchor="middle" style="white-space: pre;" direction="ltr" dominant-baseline="text-before-edge">Service</text></g><g stroke-linecap="round" transform="translate(153 413.99999999999955) rotate(0 26 21.5)"><path d="M33.75 5.5 C35.22 8.79, 39.12 14.25, 45.25 16.5 C50.6 20.77, 51.2 19.31, 45.25 27.5 C45.01 34.43, 39.17 35.41, 33.75 37.5 C26.64 42.46, 26.77 38.09, 20.25 37.5 C18.17 31.96, 10.61 26.17, 6.75 27.5 C-4.57 19.84, 4.3 25.02, 6.75 16.5 C8.64 14.85, 12.36 9.63, 20.25 5.5 C22.72 -1.09, 31.03 0.77, 33.75 5.5" stroke="none" stroke-width="0" fill="#b2f2bb"></path><path d="M33.75 5.5 C33.79 5.02, 39.51 9.87, 45.25 16.5 M33.75 5.5 C37.37 8.41, 41.03 9.86, 45.25 16.5 M45.25 16.5 C50.97 23.06, 49.96 22.66, 45.25 27.5 M45.25 16.5 C54.18 21.79, 54.92 23.33, 45.25 27.5 M45.25 27.5 C40.69 28.67, 35.86 35.13, 33.75 37.5 M45.25 27.5 C39.67 31.77, 35.59 35.26, 33.75 37.5 M33.75 37.5 C26.31 42.59, 29.3 45.53, 20.25 37.5 M33.75 37.5 C26.98 42.72, 28.79 44.93, 20.25 37.5 M20.25 37.5 C17.55 34.27, 13.87 30.65, 6.75 27.5 M20.25 37.5 C16.22 35.95, 13.75 32.6, 6.75 27.5 M6.75 27.5 C-2.04 22.2, 3.48 23.78, 6.75 16.5 M6.75 27.5 C4.48 26.19, 2.75 21.41, 6.75 16.5 M6.75 16.5 C10.25 11.3, 11.9 12.7, 20.25 5.5 M6.75 16.5 C8.83 12.91, 13.57 11.61, 20.25 5.5 M20.25 5.5 C24.75 0.35, 30.13 -3.7, 33.75 5.5 M20.25 5.5 C31.17 -4.28, 23.38 0.92, 33.75 5.5" stroke="#1971c2" stroke-width="4" fill="none"></path></g><g stroke-linecap="round" transform="translate(551.125 102.12499999999955) rotate(0 65.875 59.875)"><path d="M22.63 13.84 C29.41 8.11, 42.97 4.42, 53.43 2.62 C63.9 0.83, 76.04 1.08, 85.41 3.07 C94.78 5.07, 102.24 8.48, 109.66 14.58 C117.07 20.69, 126.47 30.36, 129.88 39.72 C133.29 49.07, 132.13 61.25, 130.13 70.71 C128.13 80.17, 123.83 89.28, 117.9 96.49 C111.96 103.69, 103.37 110.17, 94.52 113.92 C85.67 117.66, 74.89 119.05, 64.78 118.95 C54.68 118.85, 42.68 118.05, 33.9 113.31 C25.12 108.58, 17.87 98.54, 12.13 90.56 C6.38 82.58, 0.36 74.1, -0.57 65.42 C-1.5 56.75, 0.39 48.47, 6.54 38.52 C12.69 28.57, 29.3 11.61, 36.3 5.72 C43.3 -0.18, 47.96 1.78, 48.54 3.15 M32.37 10.6 C39.7 5.64, 51.2 3.45, 61.17 2.78 C71.14 2.11, 82.93 3.34, 92.19 6.57 C101.44 9.79, 110.87 15.4, 116.72 22.15 C122.58 28.9, 125.48 38.35, 127.32 47.08 C129.15 55.82, 130.23 66.05, 127.71 74.56 C125.19 83.07, 119.11 91.13, 112.19 98.15 C105.27 105.16, 95.54 112.87, 86.17 116.64 C76.81 120.41, 66.34 121.98, 56 120.77 C45.67 119.56, 32.13 115.02, 24.19 109.38 C16.26 103.74, 12.34 95.11, 8.39 86.94 C4.43 78.77, 0.18 69.98, 0.48 60.35 C0.78 50.71, 5.04 37.3, 10.17 29.14 C15.3 20.97, 27.35 14.91, 31.25 11.38 C35.14 7.85, 33.61 6.98, 33.55 7.94" stroke="none" stroke-width="0" fill="#a5d8ff"></path><path d="M116.01 19 C122.84 24.97, 125.71 36.14, 128.08 45.13 C130.45 54.13, 132.43 64.15, 130.22 72.97 C128.01 81.78, 121.8 90.89, 114.8 98.04 C107.8 105.18, 97.96 112.02, 88.22 115.84 C78.49 119.65, 66.17 121.98, 56.4 120.91 C46.64 119.84, 37.84 114.73, 29.64 109.44 C21.45 104.14, 12.48 97.3, 7.24 89.15 C1.99 81.01, -1.67 69.83, -1.81 60.58 C-1.96 51.32, 1.33 41.73, 6.36 33.61 C11.38 25.49, 19.38 17.31, 28.33 11.85 C37.28 6.39, 50.08 2.03, 60.07 0.85 C70.06 -0.34, 78.51 0.79, 88.26 4.76 C98.01 8.74, 112.96 20.02, 118.55 24.7 C124.15 29.38, 122.25 32.33, 121.84 32.84 M75.72 -0.41 C85.86 0.07, 100.45 8.39, 108.58 14.31 C116.7 20.24, 120.14 26.84, 124.46 35.16 C128.78 43.49, 134.52 55.26, 134.49 64.26 C134.47 73.25, 130.22 81.24, 124.33 89.15 C118.43 97.06, 108.57 107.09, 99.13 111.71 C89.69 116.34, 77.89 116.64, 67.7 116.9 C57.5 117.15, 47.24 116.95, 37.96 113.24 C28.68 109.54, 18.49 101.28, 12.02 94.68 C5.55 88.08, 0.29 82.51, -0.87 73.67 C-2.04 64.83, 2.24 50.76, 5.02 41.66 C7.81 32.57, 9.54 25.5, 15.83 19.1 C22.13 12.71, 32.48 6.4, 42.8 3.31 C53.12 0.22, 72.55 1.05, 77.73 0.56 C82.91 0.07, 74.14 -0.9, 73.89 0.4" stroke="#1e1e1e" stroke-width="4" fill="none"></path></g><g transform="translate(585.3193804621878 149.6619814764549) rotate(0 31.599960327148438 12.5)"><text x="31.599960327148438" y="0" font-family="Virgil, Segoe UI Emoji" font-size="20px" fill="#1e1e1e" text-anchor="middle" style="white-space: pre;" direction="ltr" dominant-baseline="text-before-edge">Profile</text></g><g stroke-linecap="round" transform="translate(552.125 422.12499999999955) rotate(0 90.875 43.375)"><path d="M59.94 2.48 C71.25 0.31, 86.79 1.81, 100.22 2.22 C113.64 2.63, 129.39 1.89, 140.5 4.91 C151.6 7.93, 160.03 14.4, 166.84 20.35 C173.66 26.3, 179.58 34.29, 181.4 40.61 C183.21 46.94, 182.03 52.9, 177.76 58.31 C173.49 63.72, 165.47 68.45, 155.76 73.07 C146.05 77.69, 132.33 83.84, 119.51 86.03 C106.69 88.23, 91.72 87.12, 78.81 86.24 C65.91 85.37, 53.05 84.39, 42.07 80.8 C31.09 77.2, 20.1 70.44, 12.94 64.68 C5.77 58.92, 0.35 52.29, -0.91 46.26 C-2.17 40.23, 0.64 33.87, 5.37 28.49 C10.1 23.11, 12.37 18.79, 27.49 13.97 C42.61 9.15, 79.75 0.98, 96.1 -0.43 C112.44 -1.84, 125.57 4.49, 125.53 5.51 M54.98 5.23 C66.15 2.95, 81.93 0.69, 94.91 1.15 C107.89 1.61, 121.49 5.12, 132.86 7.97 C144.24 10.83, 155.2 13.52, 163.17 18.29 C171.15 23.06, 178.13 30.78, 180.7 36.59 C183.28 42.4, 182.46 47.23, 178.63 53.16 C174.8 59.08, 167.02 66.72, 157.71 72.14 C148.41 77.55, 134.97 83.7, 122.78 85.66 C110.6 87.63, 96.87 84.37, 84.63 83.91 C72.38 83.44, 60.21 85.54, 49.3 82.88 C38.4 80.21, 27.4 73.25, 19.22 67.92 C11.03 62.59, 2.91 57.05, 0.2 50.9 C-2.51 44.76, -0.52 36.93, 2.98 31.06 C6.47 25.19, 12 20.07, 21.17 15.69 C30.34 11.3, 52.45 6.75, 58.02 4.73 C63.58 2.71, 53.86 3.07, 54.58 3.55" stroke="none" stroke-width="0" fill="#a5d8ff"></path><path d="M101.2 0.5 C113.53 0.56, 127 2.51, 138.11 5.66 C149.21 8.82, 160.4 13.95, 167.84 19.43 C175.27 24.91, 180.89 32.45, 182.71 38.54 C184.54 44.64, 183.47 49.83, 178.76 56 C174.05 62.16, 164.11 70.51, 154.46 75.55 C144.81 80.59, 132.77 84.7, 120.85 86.21 C108.93 87.72, 95.65 85.45, 82.94 84.61 C70.23 83.78, 56.21 84.3, 44.6 81.21 C32.99 78.12, 20.58 71.21, 13.26 66.08 C5.94 60.95, 2.21 56.81, 0.66 50.44 C-0.9 44.07, -0.52 34.38, 3.93 27.87 C8.39 21.35, 17.9 15.62, 27.39 11.35 C36.87 7.08, 45.43 3.84, 60.86 2.24 C76.3 0.64, 106.58 1.11, 119.99 1.74 C133.41 2.36, 141.62 5.2, 141.36 6 M17.43 15.12 C23.58 9.55, 35.67 5.78, 47.48 3.49 C59.3 1.21, 75.03 1.43, 88.31 1.41 C101.6 1.39, 115.52 1.38, 127.18 3.36 C138.85 5.34, 149.33 8.83, 158.31 13.28 C167.28 17.73, 177.45 23.71, 181.01 30.06 C184.57 36.42, 182.66 44.44, 179.65 51.41 C176.64 58.38, 171.11 66.94, 162.94 71.86 C154.77 76.78, 142.2 78.71, 130.63 80.93 C119.06 83.16, 105.82 85, 93.51 85.19 C81.2 85.38, 68.83 84.69, 56.77 82.09 C44.71 79.49, 30.28 74.04, 21.14 69.57 C12 65.1, 5.38 60.96, 1.92 55.27 C-1.53 49.58, -2.23 42.04, 0.38 35.44 C3 28.83, 14.06 18.15, 17.61 15.64 C21.16 13.13, 20.72 19.53, 21.68 20.38" stroke="#1e1e1e" stroke-width="4" fill="none"></path></g><g transform="translate(586.1717326000053 452.8292433660331) rotate(0 57.06993865966797 12.5)"><text x="57.06993865966797" y="0" font-family="Virgil, Segoe UI Emoji" font-size="20px" fill="#1e1e1e" text-anchor="middle" style="white-space: pre;" direction="ltr" dominant-baseline="text-before-edge">Preferences</text></g><g stroke-linecap="round" transform="translate(143 74.49999999999955) rotate(0 26 21.5)"><path d="M33.75 5.5 C37.07 10.11, 41.1 9.43, 45.25 16.5 C51.67 25.72, 53.74 21.22, 45.25 27.5 C42.61 33.55, 38.53 37.38, 33.75 37.5 C26.39 38.88, 28.15 37.68, 20.25 37.5 C19.65 36.94, 15.69 26.93, 6.75 27.5 C1.91 25.4, 1.26 20.35, 6.75 16.5 C7.04 13.42, 13.18 5.59, 20.25 5.5 C22.47 -4.4, 30.57 0.94, 33.75 5.5" stroke="none" stroke-width="0" fill="#b2f2bb"></path><path d="M33.75 5.5 C36.26 9.1, 39.48 11.43, 45.25 16.5 M33.75 5.5 C37 7.24, 41.3 11.78, 45.25 16.5 M45.25 16.5 C48.87 20.88, 52.75 25.86, 45.25 27.5 M45.25 16.5 C52.41 24.15, 55.55 20.58, 45.25 27.5 M45.25 27.5 C41.9 32.62, 39.55 33.86, 33.75 37.5 M45.25 27.5 C41.49 30.3, 39.24 31.2, 33.75 37.5 M33.75 37.5 C29.38 47, 28.36 46.79, 20.25 37.5 M33.75 37.5 C22.85 47.26, 26.6 42.48, 20.25 37.5 M20.25 37.5 C14.9 35.72, 13.57 30.15, 6.75 27.5 M20.25 37.5 C16.29 34.4, 11.32 32.57, 6.75 27.5 M6.75 27.5 C-3.98 25.52, 1.93 25.08, 6.75 16.5 M6.75 27.5 C-1.75 19.53, 2.47 19.8, 6.75 16.5 M6.75 16.5 C14.1 14.72, 13.21 8.31, 20.25 5.5 M6.75 16.5 C10.5 14.07, 14.06 10.11, 20.25 5.5 M20.25 5.5 C25.08 1.73, 23.19 -2.63, 33.75 5.5 M20.25 5.5 C27.32 0.9, 25.43 -3.25, 33.75 5.5" stroke="#1971c2" stroke-width="4" fill="none"></path></g><g transform="translate(10 81.99999999999955) rotate(0 62.471961975097656 20)"><text x="0" y="0" font-family="Virgil, Segoe UI Emoji" font-size="16px" fill="#1e1e1e" text-anchor="start" style="white-space: pre;" direction="ltr" dominant-baseline="text-before-edge">Create/update </text><text x="0" y="20" font-family="Virgil, Segoe UI Emoji" font-size="16px" fill="#1e1e1e" text-anchor="start" style="white-space: pre;" direction="ltr" dominant-baseline="text-before-edge">profile endpoint</text></g><g transform="translate(23.648033142089844 421.99999999999955) rotate(0 66.66394805908203 20)"><text x="0" y="0" font-family="Virgil, Segoe UI Emoji" font-size="16px" fill="#1e1e1e" text-anchor="start" style="white-space: pre;" direction="ltr" dominant-baseline="text-before-edge">Add preferences </text><text x="0" y="20" font-family="Virgil, Segoe UI Emoji" font-size="16px" fill="#1e1e1e" text-anchor="start" style="white-space: pre;" direction="ltr" dominant-baseline="text-before-edge">endpoint</text></g><g stroke-linecap="round"><g transform="translate(437.6641106882453 477.464859111275) rotate(0 55.89282570666637 -2.494474325421834)"><path d="M-2.43 0.48 C16.67 -0.03, 94.14 -4.04, 113.47 -5.23 M1.45 -1.72 C20.42 -1.59, 93.61 -1.28, 112.14 -1.73" stroke="#1e1e1e" stroke-width="4" fill="none"></path></g><g transform="translate(437.6641106882453 477.464859111275) rotate(0 55.89282570666637 -2.494474325421834)"><path d="M89.06 8.2 C94.71 6.17, 99.8 1.46, 112.27 -2.46 M89.52 6.73 C97.21 3.52, 107.26 0.79, 111.97 -2.2" stroke="#1e1e1e" stroke-width="4" fill="none"></path></g><g transform="translate(437.6641106882453 477.464859111275) rotate(0 55.89282570666637 -2.494474325421834)"><path d="M88.92 -8.9 C94.48 -6.48, 99.6 -6.73, 112.27 -2.46 M89.38 -10.37 C97.01 -6.93, 107.11 -3.02, 111.97 -2.2" stroke="#1e1e1e" stroke-width="4" fill="none"></path></g></g><mask></mask><g stroke-linecap="round"><g transform="translate(681.6641106882453 211.36875991797933) rotate(0 51.91666666666788 29.443537841224952)"><path d="M-1.87 -2.36 C15.08 7.58, 86.12 51, 103.47 60.98 M2.31 2.53 C18.69 11.59, 83.39 47.55, 101.03 57.1" stroke="#1e1e1e" stroke-width="4" fill="none"></path></g><g transform="translate(681.6641106882453 211.36875991797933) rotate(0 51.91666666666788 29.443537841224952)"><path d="M74.64 53.02 C86.83 53.67, 93.34 58.22, 100.87 57.78 M76.48 54.03 C82.88 54.75, 90.71 56, 100.31 57.76" stroke="#1e1e1e" stroke-width="4" fill="none"></path></g><g transform="translate(681.6641106882453 211.36875991797933) rotate(0 51.91666666666788 29.443537841224952)"><path d="M82.87 38.03 C92.14 44.08, 95.65 54.08, 100.87 57.78 M84.71 39.04 C88.92 43.93, 94.43 49.39, 100.31 57.76" stroke="#1e1e1e" stroke-width="4" fill="none"></path></g></g><mask></mask><g stroke-linecap="round"><g transform="translate(731.857454923278 426.16104889128064) rotate(0 35.22752253836097 -32.12787646757897)"><path d="M1.95 -1.24 C13.64 -11.66, 60.06 -51.79, 71.69 -62.19 M-0.44 4.26 C10.85 -6.97, 58.28 -55.34, 70.12 -66.07" stroke="#1e1e1e" stroke-width="4" fill="none"></path></g><g transform="translate(731.857454923278 426.16104889128064) rotate(0 35.22752253836097 -32.12787646757897)"><path d="M58.35 -42.69 C64.55 -50.73, 67.4 -58.13, 70.45 -66.45 M58.39 -43.03 C62.52 -48.03, 64.38 -53.32, 69.4 -66.57" stroke="#1e1e1e" stroke-width="4" fill="none"></path></g><g transform="translate(731.857454923278 426.16104889128064) rotate(0 35.22752253836097 -32.12787646757897)"><path d="M46.43 -54.96 C56.89 -58.72, 63.97 -61.76, 70.45 -66.45 M46.47 -55.3 C53.16 -57.53, 57.62 -60.15, 69.4 -66.57" stroke="#1e1e1e" stroke-width="4" fill="none"></path></g></g><mask></mask><g stroke-linecap="round"><g transform="translate(1070.1834931701142 301.54472307960486) rotate(0 59.9104443184151 3.300025030036295)"><path d="M2.33 0.41 C21.88 2, 99.64 8.3, 119.45 9.39 M0.15 -1.84 C19.1 -0.94, 97.02 3.89, 117.02 5.9" stroke="#1e1e1e" stroke-width="4" fill="none"></path></g><g transform="translate(1070.1834931701142 301.54472307960486) rotate(0 59.9104443184151 3.300025030036295)"><path d="M93.22 12.32 C104.03 10.84, 111.37 8.63, 118.47 7.4 M92.43 12.48 C100.73 9.27, 109.82 8.29, 116.12 5.07" stroke="#1e1e1e" stroke-width="4" fill="none"></path></g><g transform="translate(1070.1834931701142 301.54472307960486) rotate(0 59.9104443184151 3.300025030036295)"><path d="M94.56 -4.72 C104.85 0.25, 111.69 4.47, 118.47 7.4 M93.77 -4.57 C101.73 -1.82, 110.35 3.17, 116.12 5.07" stroke="#1e1e1e" stroke-width="4" fill="none"></path></g></g><mask></mask><g stroke-linecap="round" transform="translate(146.17598342895508 187.24999999999955) rotate(0 26 21.5)"><path d="M33.75 5.5 C34.6 13.81, 41.23 11.35, 45.25 16.5 C50.07 20.22, 56.83 17.77, 45.25 27.5 C43.01 32, 33.76 32.12, 33.75 37.5 C25.01 47.6, 26.26 40.99, 20.25 37.5 C18.18 33.3, 7.69 27.21, 6.75 27.5 C4.96 17.38, 0.67 27.36, 6.75 16.5 C12.23 14.62, 16.24 7.93, 20.25 5.5 C22.15 3.26, 28.9 -1.98, 33.75 5.5" stroke="none" stroke-width="0" fill="#b2f2bb"></path><path d="M33.75 5.5 C33.78 7.89, 37.87 13.3, 45.25 16.5 M33.75 5.5 C37.35 9.49, 39.84 11.8, 45.25 16.5 M45.25 16.5 C53.91 21.79, 50.95 22.52, 45.25 27.5 M45.25 16.5 C54.43 20.78, 49.34 17.41, 45.25 27.5 M45.25 27.5 C39.88 30.91, 39.37 34.14, 33.75 37.5 M45.25 27.5 C39.31 32.13, 34.63 33.88, 33.75 37.5 M33.75 37.5 C30.02 44.7, 26.79 43.29, 20.25 37.5 M33.75 37.5 C25.44 45.34, 30.03 45.14, 20.25 37.5 M20.25 37.5 C14.58 31.15, 9.71 32.38, 6.75 27.5 M20.25 37.5 C15.27 33.16, 11.04 28.47, 6.75 27.5 M6.75 27.5 C-1.37 24.18, 2.85 19.73, 6.75 16.5 M6.75 27.5 C3.86 24.17, 4.04 17.43, 6.75 16.5 M6.75 16.5 C9.59 10.72, 13.21 8.01, 20.25 5.5 M6.75 16.5 C12.31 13.79, 18 7.09, 20.25 5.5 M20.25 5.5 C26.67 0.93, 23.47 3.85, 33.75 5.5 M20.25 5.5 C27.61 2.67, 25.87 -3.83, 33.75 5.5" stroke="#1971c2" stroke-width="4" fill="none"></path></g><g transform="translate(23.824016571044922 197.74999999999955) rotate(0 54.69596862792969 10)"><text x="0" y="0" font-family="Virgil, Segoe UI Emoji" font-size="16px" fill="#1e1e1e" text-anchor="start" style="white-space: pre;" direction="ltr" dominant-baseline="text-before-edge">Email endpoint</text></g><g stroke-linecap="round" transform="translate(1482.5 10) rotate(0 117.5 115)"><path d="M7.86 8.16 C7.86 8.16, 7.86 8.16, 7.86 8.16 M7.86 8.16 C7.86 8.16, 7.86 8.16, 7.86 8.16 M0.91 40.54 C6.72 31.47, 17.75 26.59, 36.34 -0.21 M0.91 40.54 C11.74 28.77, 20.47 19.83, 36.34 -0.21 M1.18 64.62 C20.01 39.7, 47.9 11.97, 57.6 -0.28 M1.18 64.62 C12.75 51.06, 24.29 36.42, 57.6 -0.28 M0.79 89.46 C26.28 54.78, 53.91 26.17, 78.2 0.41 M0.79 89.46 C20.04 67.2, 41.79 47.48, 78.2 0.41 M1.05 113.54 C42.7 68.21, 81.93 26.98, 99.46 0.34 M1.05 113.54 C36.28 73.43, 70.98 35.99, 99.46 0.34 M0.66 138.38 C47.13 92.13, 88.77 39.3, 120.72 0.27 M0.66 138.38 C28.1 110.48, 55.08 78.18, 120.72 0.27 M0.93 162.46 C31.53 123.55, 67.25 89.59, 141.98 0.2 M0.93 162.46 C48.32 102.65, 98.87 45.12, 141.98 0.2 M0.54 187.3 C40.72 138.69, 84.55 93.47, 163.24 0.13 M0.54 187.3 C48.74 127.95, 97.88 70.86, 163.24 0.13 M2.12 209.87 C44.52 158.08, 87.68 112.27, 184.5 0.06 M2.12 209.87 C54.82 146.76, 105.05 87.27, 184.5 0.06 M10.91 224.14 C85.08 140.62, 155.98 53.36, 205.11 0.75 M10.91 224.14 C83.74 138.95, 159.37 52.19, 205.11 0.75 M27.58 229.35 C72.72 171.78, 126.65 117.03, 222.43 5.21 M27.58 229.35 C102.28 147.79, 174.33 65.25, 222.43 5.21 M48.19 230.04 C86.96 182.92, 133.82 131.62, 233.19 17.21 M48.19 230.04 C105.01 165.23, 160.1 100.25, 233.19 17.21 M69.45 229.97 C128.18 160.75, 180.93 102.28, 235.43 39.03 M69.45 229.97 C126.74 160.42, 189.19 89.06, 235.43 39.03 M90.71 229.9 C124.44 194.52, 157.03 150.6, 235.7 63.11 M90.71 229.9 C130.18 188.44, 162.76 148.65, 235.7 63.11 M111.97 229.83 C136.35 196.19, 165.93 171.57, 235.96 87.19 M111.97 229.83 C159.34 173.72, 205.12 119.02, 235.96 87.19 M132.57 230.52 C165.31 188.08, 208.45 148.69, 235.57 112.03 M132.57 230.52 C171.2 187.62, 208.37 141.4, 235.57 112.03 M153.83 230.45 C185.11 198.8, 212.54 166.64, 235.84 136.11 M153.83 230.45 C180.63 200.3, 207.47 165.41, 235.84 136.11 M175.09 230.38 C191.9 211.31, 213.19 189.32, 235.45 160.95 M175.09 230.38 C197.68 205.01, 221.51 177.22, 235.45 160.95 M196.35 230.31 C203.49 214.77, 215.82 207.15, 235.72 185.03 M196.35 230.31 C203.89 219.23, 214.15 209.91, 235.72 185.03 M220.24 227.22 C227.51 218.18, 231.38 215.19, 233.36 212.13 M220.24 227.22 C224.6 221.45, 228.67 216.08, 233.36 212.13" stroke="#b2f2bb" stroke-width="2" fill="none"></path><path d="M32 0 C78.62 2.01, 129.21 -5.12, 203 0 M32 0 C84.74 0.78, 141.46 -0.6, 203 0 M203 0 C220.44 1.88, 237.83 13.04, 235 32 M203 0 C221.3 1.89, 233.48 10.03, 235 32 M235 32 C234.19 77.38, 237.24 126.34, 235 198 M235 32 C234.14 71.11, 235.29 113.58, 235 198 M235 198 C235 221.84, 225.64 226.93, 203 230 M235 198 C236.46 218.41, 222.8 230.03, 203 230 M203 230 C170.54 235.96, 134.44 237.26, 32 230 M203 230 C142.75 229.96, 82.94 229.82, 32 230 M32 230 C11.22 227.2, -2.87 222.51, 0 198 M32 230 C13.5 231.22, 3.05 215.87, 0 198 M0 198 C-1.02 141.21, -4.84 79.15, 0 32 M0 198 C-0.89 146.77, -0.79 95.5, 0 32 M0 32 C2.35 9.14, 9.95 1.97, 32 0 M0 32 C1 12.84, 15.25 -4.19, 32 0" stroke="#1e1e1e" stroke-width="4" fill="none"></path></g><g transform="translate(1527.9140319824219 90) rotate(0 72.08596801757812 35)"><text x="72.08596801757812" y="0" font-family="Virgil, Segoe UI Emoji" font-size="28px" fill="#1e1e1e" text-anchor="middle" style="white-space: pre;" direction="ltr" dominant-baseline="text-before-edge">Marketing </text><text x="72.08596801757812" y="35" font-family="Virgil, Segoe UI Emoji" font-size="28px" fill="#1e1e1e" text-anchor="middle" style="white-space: pre;" direction="ltr" dominant-baseline="text-before-edge">Service</text></g><g stroke-linecap="round" transform="translate(1492.5 320.9999999999991) rotate(0 117.5 115)"><path d="M7.86 8.16 C7.86 8.16, 7.86 8.16, 7.86 8.16 M7.86 8.16 C7.86 8.16, 7.86 8.16, 7.86 8.16 M0.91 40.54 C8.91 27.34, 24.94 11.93, 36.34 -0.21 M0.91 40.54 C9.1 29.42, 18.21 19.87, 36.34 -0.21 M1.18 64.62 C17.91 45.89, 38.48 19.76, 57.6 -0.28 M1.18 64.62 C18.43 42.22, 38.55 24.82, 57.6 -0.28 M0.79 89.46 C27.76 57.81, 51.6 34.91, 78.2 0.41 M0.79 89.46 C27.29 56.77, 56.53 22.9, 78.2 0.41 M1.05 113.54 C19.42 88.81, 45.88 57.2, 99.46 0.34 M1.05 113.54 C30.36 79.96, 61.34 47.44, 99.46 0.34 M0.66 138.38 C36.65 92.14, 75.35 47.74, 120.72 0.27 M0.66 138.38 C29.27 107.18, 57.33 72.77, 120.72 0.27 M0.93 162.46 C43.42 113.93, 87.86 63.04, 141.98 0.2 M0.93 162.46 C33.58 123.19, 65.33 83.34, 141.98 0.2 M0.54 187.3 C60.55 126.17, 114.43 59.97, 163.24 0.13 M0.54 187.3 C60.53 121.78, 119.9 50.89, 163.24 0.13 M2.12 209.87 C58.18 145.56, 111.84 83.51, 184.5 0.06 M2.12 209.87 C46.84 154.56, 96.52 100.09, 184.5 0.06 M10.91 224.14 C66.33 162.68, 116.05 101.83, 205.11 0.75 M10.91 224.14 C52.22 179.16, 94.54 131.74, 205.11 0.75 M27.58 229.35 C100.69 143.12, 176.44 59.54, 222.43 5.21 M27.58 229.35 C78.93 168.88, 129.37 107.37, 222.43 5.21 M48.19 230.04 C119.42 153.52, 189.67 72.84, 233.19 17.21 M48.19 230.04 C124.84 148.17, 196.7 62.65, 233.19 17.21 M69.45 229.97 C99.31 191.89, 137.91 151.14, 235.43 39.03 M69.45 229.97 C124.46 170.83, 176.56 110.31, 235.43 39.03 M90.71 229.9 C127.85 196.52, 158.2 152.01, 235.7 63.11 M90.71 229.9 C135.98 181.76, 177.62 132.76, 235.7 63.11 M111.97 229.83 C160.96 174.38, 208.89 122.32, 235.96 87.19 M111.97 229.83 C164.37 173.15, 211.43 113.46, 235.96 87.19 M132.57 230.52 C176.42 185.07, 213.39 136.48, 235.57 112.03 M132.57 230.52 C158.02 203.09, 181.37 173.74, 235.57 112.03 M153.83 230.45 C178.32 203.27, 207.9 179.07, 235.84 136.11 M153.83 230.45 C177.13 203.62, 200.11 176.43, 235.84 136.11 M175.09 230.38 C192.38 207.83, 217.16 184.87, 235.45 160.95 M175.09 230.38 C197.92 207.14, 218.26 181.95, 235.45 160.95 M196.35 230.31 C202.76 215.99, 215.91 204.9, 235.72 185.03 M196.35 230.31 C209.96 215.36, 220.9 200.57, 235.72 185.03 M220.24 227.22 C227.98 221.42, 229.37 214.21, 233.36 212.13 M220.24 227.22 C222.36 222.59, 228.71 221.11, 233.36 212.13" stroke="#b2f2bb" stroke-width="2" fill="none"></path><path d="M32 0 C91.23 0.16, 150.02 -0.02, 203 0 M32 0 C76.16 4.71, 123.54 3.67, 203 0 M203 0 C222.84 3.75, 236.5 13.47, 235 32 M203 0 C225.9 0.47, 234.75 13.96, 235 32 M235 32 C239.36 70.51, 234.27 109.22, 235 198 M235 32 C236.24 88.56, 240 142.83, 235 198 M235 198 C232.25 220.25, 223.12 229.89, 203 230 M235 198 C230.72 223.93, 228.6 232.28, 203 230 M203 230 C151.12 228.41, 93.07 231.81, 32 230 M203 230 C158.71 228.43, 115.34 228.17, 32 230 M32 230 C10.29 228.83, 2.46 219.86, 0 198 M32 230 C7.33 229.32, 1.54 218.4, 0 198 M0 198 C2.64 162.12, -2.54 124.2, 0 32 M0 198 C0.68 144.21, -2.75 93.6, 0 32 M0 32 C-0.44 11.07, 10.05 3.43, 32 0 M0 32 C2.44 13.78, 7.06 1.59, 32 0" stroke="#1e1e1e" stroke-width="4" fill="none"></path></g><g transform="translate(1511.0060348510742 400.9999999999991) rotate(0 98.99396514892578 35)"><text x="98.99396514892578" y="0" font-family="Virgil, Segoe UI Emoji" font-size="28px" fill="#1e1e1e" text-anchor="middle" style="white-space: pre;" direction="ltr" dominant-baseline="text-before-edge">Data Science </text><text x="98.99396514892578" y="35" font-family="Virgil, Segoe UI Emoji" font-size="28px" fill="#1e1e1e" text-anchor="middle" style="white-space: pre;" direction="ltr" dominant-baseline="text-before-edge">Service</text></g><g stroke-linecap="round"><g transform="translate(1357.2027372165285 252.25736711501895) rotate(0 45.90990501791384 -49.14603882759275)"><path d="M-2.2 0.99 C12.44 -15.41, 73.91 -81.78, 89.35 -98.27 M1.8 -0.93 C17.14 -16.87, 80.06 -79.01, 94.41 -94.62" stroke="#1e1e1e" stroke-width="4" fill="none"></path></g><g transform="translate(1357.2027372165285 252.25736711501895) rotate(0 45.90990501791384 -49.14603882759275)"><path d="M84.88 -73.58 C87.81 -80.79, 91.7 -86.63, 96.28 -93.45 M83.86 -72.43 C88.18 -80.4, 91.63 -88.99, 95.15 -94.5" stroke="#1e1e1e" stroke-width="4" fill="none"></path></g><g transform="translate(1357.2027372165285 252.25736711501895) rotate(0 45.90990501791384 -49.14603882759275)"><path d="M72.62 -85.5 C79.91 -88.38, 88.15 -89.99, 96.28 -93.45 M71.6 -84.35 C80.62 -87.71, 88.76 -91.75, 95.15 -94.5" stroke="#1e1e1e" stroke-width="4" fill="none"></path></g></g><mask></mask><g stroke-linecap="round"><g transform="translate(1363.38565413383 360.04581822208047) rotate(0 54.91666666666788 26.943537841224952)"><path d="M-1.72 -0.43 C17.03 9.05, 93.18 47.22, 111.85 55.85 M2.54 -3.13 C21.16 5.66, 93.01 42.54, 110.7 51.9" stroke="#1e1e1e" stroke-width="4" fill="none"></path></g><g transform="translate(1363.38565413383 360.04581822208047) rotate(0 54.91666666666788 26.943537841224952)"><path d="M85.61 50.1 C94.16 50.03, 97.79 51.22, 111.94 50.13 M85.86 48.11 C95.32 50.48, 103.09 51.63, 111.4 51.73" stroke="#1e1e1e" stroke-width="4" fill="none"></path></g><g transform="translate(1363.38565413383 360.04581822208047) rotate(0 54.91666666666788 26.943537841224952)"><path d="M93.49 34.93 C99.8 39, 101.25 44.39, 111.94 50.13 M93.74 32.94 C100.59 40.66, 105.6 47.14, 111.4 51.73" stroke="#1e1e1e" stroke-width="4" fill="none"></path></g></g><mask></mask></svg>