<svg version="1.1" xmlns="http://www.w3.org/2000/svg" viewBox="0 0 1420.8519668579102 643.5421547289325" width="2841.7039337158203" height="1287.084309457865">
  <!-- svg-source:excalidraw -->
  
  <defs>
    <style class="style-fonts">
      @font-face {
        font-family: "Virgil";
        src: url("https://excalidraw.com/Virgil.woff2");
      }
      @font-face {
        font-family: "Cascadia";
        src: url("https://excalidraw.com/Cascadia.woff2");
      }
      @font-face {
        font-family: "Assistant";
        src: url("https://excalidraw.com/Assistant-Regular.woff2");
      }
    </style>
    
  </defs>
  <g stroke-linecap="round" transform="translate(180.4225425653858 403.5421547289325) rotate(0 117.5 115)"><path d="M7.86 8.16 C7.86 8.16, 7.86 8.16, 7.86 8.16 M7.86 8.16 C7.86 8.16, 7.86 8.16, 7.86 8.16 M8.78 31.49 C18.17 19.42, 27.57 12.32, 34.37 2.05 M8.78 31.49 C16.52 23.72, 25.39 12.87, 34.37 2.05 M8.39 56.32 C18.51 39.25, 34.12 29.75, 55.63 1.98 M8.39 56.32 C24.76 38.83, 39.26 17.84, 55.63 1.98 M8.66 80.4 C25.96 56.18, 49.46 33.25, 76.89 1.91 M8.66 80.4 C33.47 49.23, 62.31 15.24, 76.89 1.91 M8.27 105.24 C36.24 71.91, 61.56 38.67, 98.15 1.85 M8.27 105.24 C34.5 72.77, 63.37 43.29, 98.15 1.85 M8.54 129.32 C40.74 90.83, 76.12 50.1, 119.41 1.78 M8.54 129.32 C38.79 94.15, 64.84 60.34, 119.41 1.78 M8.15 154.16 C37.91 118.58, 67.66 88.12, 140.67 1.71 M8.15 154.16 C50.8 101.36, 94.08 52.89, 140.67 1.71 M8.41 178.24 C43.82 129.7, 87.04 86.21, 161.28 2.39 M8.41 178.24 C71.11 107.79, 129.01 38.48, 161.28 2.39 M7.37 203.83 C68.13 128.81, 128.76 56.87, 182.54 2.32 M7.37 203.83 C47.68 157.58, 84.34 114.3, 182.54 2.32 M10.91 224.14 C72.17 154.36, 130.43 85.56, 204.45 1.5 M10.91 224.14 C52.24 169.93, 97.46 116.28, 204.45 1.5 M24.3 233.13 C69.99 183.96, 114.06 132.13, 221.78 5.96 M24.3 233.13 C90.38 156.41, 160.28 76.89, 221.78 5.96 M40.97 238.34 C83.42 190.09, 124.61 139.7, 235.16 14.95 M40.97 238.34 C115.16 155.14, 189.19 72.86, 235.16 14.95 M62.23 238.27 C108.09 181.39, 158.87 126.91, 238.71 35.26 M62.23 238.27 C101.31 192.91, 141.38 147.31, 238.71 35.26 M83.49 238.2 C125.13 193.08, 158.45 152.79, 238.98 59.34 M83.49 238.2 C134.35 173.31, 188.5 110.33, 238.98 59.34 M104.75 238.13 C148.59 185.41, 189.55 136.44, 238.59 84.17 M104.75 238.13 C150.8 189.7, 192.77 140.01, 238.59 84.17 M126.01 238.07 C150.17 208.8, 172.52 185.94, 238.85 108.26 M126.01 238.07 C155.32 200.56, 183.33 165.89, 238.85 108.26 M147.27 238 C179.04 201.74, 209.74 168.35, 238.46 133.09 M147.27 238 C171.07 211.43, 195.68 183.29, 238.46 133.09 M168.53 237.93 C191.45 213.96, 210.62 183.89, 238.73 157.17 M168.53 237.93 C194.92 203.85, 224.31 174.98, 238.73 157.17 M189.79 237.86 C204.95 219.99, 224.54 202.29, 239 181.26 M189.79 237.86 C204.87 223.96, 217.64 207.58, 239 181.26 M218.27 229.49 C219.88 224.35, 222.76 224.99, 233.36 212.13 M218.27 229.49 C221.89 225.25, 229.79 217, 233.36 212.13" stroke="#b2f2bb" stroke-width="2" fill="none"></path><path d="M32 0 C82.23 1.65, 135.92 0.5, 203 0 M32 0 C88.68 2.26, 149.57 1.61, 203 0 M203 0 C220.88 -0.69, 236.71 7.92, 235 32 M203 0 C226.55 -2.73, 235.49 15.17, 235 32 M235 32 C236.83 72.6, 237.01 113.68, 235 198 M235 32 C233.55 86.63, 235.01 141.01, 235 198 M235 198 C233.91 217.93, 220.41 226.69, 203 230 M235 198 C237.17 218.78, 223.62 231.77, 203 230 M203 230 C153.24 230.6, 104.64 227.46, 32 230 M203 230 C143.62 233.53, 84.9 232.71, 32 230 M32 230 C11.4 231.02, -3.17 217.97, 0 198 M32 230 C8.87 232.63, -0.14 216.89, 0 198 M0 198 C-2.66 160.39, -2.69 115.78, 0 32 M0 198 C-2.38 158.08, -0.67 120.86, 0 32 M0 32 C3.36 13.02, 12.4 -0.81, 32 0 M0 32 C-4.31 10.49, 10.71 -2.1, 32 0" stroke="#1e1e1e" stroke-width="4" fill="none"></path></g><g transform="translate(211.02457808784675 466.0421547289325) rotate(0 86.89796447753906 52.5)"><text x="86.89796447753906" y="0" font-family="Virgil, Segoe UI Emoji" font-size="28px" fill="#1e1e1e" text-anchor="middle" style="white-space: pre;" direction="ltr" dominant-baseline="text-before-edge">User </text><text x="86.89796447753906" y="35" font-family="Virgil, Segoe UI Emoji" font-size="28px" fill="#1e1e1e" text-anchor="middle" style="white-space: pre;" direction="ltr" dominant-baseline="text-before-edge">Preferences </text><text x="86.89796447753906" y="70" font-family="Virgil, Segoe UI Emoji" font-size="28px" fill="#1e1e1e" text-anchor="middle" style="white-space: pre;" direction="ltr" dominant-baseline="text-before-edge">Service</text></g><g stroke-linecap="round"><g transform="translate(435.9581839504899 122.23948333915587) rotate(0 57.782512991852855 -19.326313549487622)"><path d="M-1.26 1.18 C17.87 -5.15, 95.31 -33.88, 114.35 -40.53 M3.25 -0.65 C21.94 -6.43, 92.25 -32.09, 111.45 -37.92" stroke="#1e1e1e" stroke-width="4" fill="none"></path></g><g transform="translate(435.9581839504899 122.23948333915587) rotate(0 57.782512991852855 -19.326313549487622)"><path d="M92.76 -23.19 C96.25 -28.49, 103.1 -30.54, 110.77 -39.65 M92.39 -22.92 C97.47 -25.62, 102.35 -31.38, 112.36 -37.15" stroke="#1e1e1e" stroke-width="4" fill="none"></path></g><g transform="translate(435.9581839504899 122.23948333915587) rotate(0 57.782512991852855 -19.326313549487622)"><path d="M87.3 -39.4 C92.2 -40.08, 100.59 -37.54, 110.77 -39.65 M86.94 -39.12 C93.63 -37.21, 100.04 -38.39, 112.36 -37.15" stroke="#1e1e1e" stroke-width="4" fill="none"></path></g></g><mask></mask><g stroke-linecap="round" transform="translate(193.85196685791016 58.87499999999909) rotate(0 117.5 115)"><path d="M7.86 8.16 C7.86 8.16, 7.86 8.16, 7.86 8.16 M7.86 8.16 C7.86 8.16, 7.86 8.16, 7.86 8.16 M8.78 31.49 C16.98 20.74, 22.44 18.38, 34.37 2.05 M8.78 31.49 C16.25 23.86, 21.58 15.96, 34.37 2.05 M8.39 56.32 C18.13 41.46, 35.03 25.31, 55.63 1.98 M8.39 56.32 C19.81 43.24, 35.75 28.6, 55.63 1.98 M8.66 80.4 C21.52 60.24, 38.85 38.15, 76.89 1.91 M8.66 80.4 C25.56 61.15, 44.61 41.03, 76.89 1.91 M8.27 105.24 C30.85 81.04, 53.75 58.33, 98.15 1.85 M8.27 105.24 C31.96 77.16, 54.15 52.3, 98.15 1.85 M8.54 129.32 C44.05 85.36, 85.28 47.51, 119.41 1.78 M8.54 129.32 C48.54 85.11, 85.81 42.41, 119.41 1.78 M8.15 154.16 C57.84 95.09, 109.91 39.75, 140.67 1.71 M8.15 154.16 C39.73 121.68, 68.85 87.01, 140.67 1.71 M8.41 178.24 C68.56 111.49, 132.2 41.79, 161.28 2.39 M8.41 178.24 C58.55 120.76, 108.76 66.02, 161.28 2.39 M7.37 203.83 C72.87 133.61, 136.01 57.88, 182.54 2.32 M7.37 203.83 C73.26 129.91, 139.11 58.79, 182.54 2.32 M10.91 224.14 C54.4 170.64, 101.85 118.92, 204.45 1.5 M10.91 224.14 C82.14 139.28, 155.81 54.83, 204.45 1.5 M24.3 233.13 C72.3 173.58, 118.32 120.27, 221.78 5.96 M24.3 233.13 C81.32 167.52, 139.52 99.34, 221.78 5.96 M40.97 238.34 C85.71 186.94, 127.95 137.63, 235.16 14.95 M40.97 238.34 C84.1 190.25, 124.67 142.9, 235.16 14.95 M62.23 238.27 C98.61 196.74, 132.72 156.12, 238.71 35.26 M62.23 238.27 C128.91 166.75, 194.72 93.04, 238.71 35.26 M83.49 238.2 C119.67 198.6, 161.76 154.46, 238.98 59.34 M83.49 238.2 C136.25 181.69, 186.01 122.61, 238.98 59.34 M104.75 238.13 C152.47 182.01, 194.16 131.19, 238.59 84.17 M104.75 238.13 C144.08 196.9, 180.83 156.44, 238.59 84.17 M126.01 238.07 C163.89 198.31, 201.7 155.58, 238.85 108.26 M126.01 238.07 C166.07 190.63, 207.68 144.37, 238.85 108.26 M147.27 238 C180.75 202.01, 204.84 168.35, 238.46 133.09 M147.27 238 C171.58 209.91, 201.4 178.93, 238.46 133.09 M168.53 237.93 C192.75 216.14, 212.95 187.6, 238.73 157.17 M168.53 237.93 C188.79 215.07, 205.41 193.63, 238.73 157.17 M189.79 237.86 C207.36 212.2, 225.26 196.45, 239 181.26 M189.79 237.86 C204.11 225.1, 213.18 211.99, 239 181.26 M218.27 229.49 C219.58 223.32, 222.36 220.1, 233.36 212.13 M218.27 229.49 C220.8 224.05, 225.32 220.28, 233.36 212.13" stroke="#b2f2bb" stroke-width="2" fill="none"></path><path d="M32 0 C66.23 -4.37, 102.5 0.8, 203 0 M32 0 C71.77 3.99, 110.04 1.28, 203 0 M203 0 C227.99 3.08, 234.82 13.93, 235 32 M203 0 C224.48 1.12, 232.43 14.15, 235 32 M235 32 C238.94 84.06, 234.9 134.38, 235 198 M235 32 C236.26 68.84, 236.3 104.92, 235 198 M235 198 C231.48 218.6, 227.95 229.7, 203 230 M235 198 C235.54 221.33, 224.95 233.04, 203 230 M203 230 C158.17 229.63, 112.59 225.73, 32 230 M203 230 C157.47 230.89, 111 232.54, 32 230 M32 230 C13.74 228.31, 3.43 217.62, 0 198 M32 230 C10.51 227.05, 1.9 219.3, 0 198 M0 198 C3.6 159.98, 3.63 116.98, 0 32 M0 198 C3.13 150.64, 4.66 106.81, 0 32 M0 32 C-0.13 7.29, 11.3 -0.74, 32 0 M0 32 C3.55 7.94, 15.04 3.89, 32 0" stroke="#1e1e1e" stroke-width="4" fill="none"></path></g><g transform="translate(221.83600616455078 138.8749999999991) rotate(0 89.51596069335938 35)"><text x="89.51596069335938" y="0" font-family="Virgil, Segoe UI Emoji" font-size="28px" fill="#1e1e1e" text-anchor="middle" style="white-space: pre;" direction="ltr" dominant-baseline="text-before-edge">User Profile </text><text x="89.51596069335938" y="35" font-family="Virgil, Segoe UI Emoji" font-size="28px" fill="#1e1e1e" text-anchor="middle" style="white-space: pre;" direction="ltr" dominant-baseline="text-before-edge">Service</text></g><g stroke-linecap="round" transform="translate(139.35196685791016 444.875) rotate(0 26 21.5)"><path d="M33.75 5.5 C36.55 10.32, 43.84 11.36, 45.25 16.5 C50.91 27.22, 51.98 24.19, 45.25 27.5 C41.28 26.57, 43.21 32.6, 33.75 37.5 C29.14 38.6, 29.38 41.7, 20.25 37.5 C14.73 35.01, 8.5 28.27, 6.75 27.5 C-3.86 25.99, -5.03 27.41, 6.75 16.5 C14.27 14.52, 12.47 8.61, 20.25 5.5 C22.01 -2.63, 24.86 -3.31, 33.75 5.5" stroke="none" stroke-width="0" fill="#b2f2bb"></path><path d="M33.75 5.5 C40.74 7.58, 40.43 16.05, 45.25 16.5 M33.75 5.5 C38.13 9.85, 41.52 14.81, 45.25 16.5 M45.25 16.5 C52.81 23.57, 55.73 24.64, 45.25 27.5 M45.25 16.5 C50.74 20.39, 47.49 18.19, 45.25 27.5 M45.25 27.5 C42.4 30.53, 38.43 31.73, 33.75 37.5 M45.25 27.5 C42.37 30.96, 39.16 34.13, 33.75 37.5 M33.75 37.5 C25.69 45.54, 25.71 43.89, 20.25 37.5 M33.75 37.5 C27.85 44.18, 23.36 41.43, 20.25 37.5 M20.25 37.5 C14.83 33.11, 14.07 34.85, 6.75 27.5 M20.25 37.5 C16.54 33.73, 13.81 32.21, 6.75 27.5 M6.75 27.5 C-2.03 20.46, 1.39 24.32, 6.75 16.5 M6.75 27.5 C3.87 24.7, 2 21.07, 6.75 16.5 M6.75 16.5 C7.96 16.93, 15.3 11.85, 20.25 5.5 M6.75 16.5 C10.97 13.15, 14.19 13.28, 20.25 5.5 M20.25 5.5 C28.77 2.05, 28.83 -2.51, 33.75 5.5 M20.25 5.5 C29.6 0.54, 24.91 1.22, 33.75 5.5" stroke="#1971c2" stroke-width="4" fill="none"></path></g><g stroke-linecap="round" transform="translate(572.4769668579102 10) rotate(0 65.875 59.875)"><path d="M120.52 26.01 C126.45 32.71, 128.63 43.97, 129.88 52.86 C131.14 61.74, 131.23 70.69, 128.06 79.32 C124.89 87.95, 118.66 98.02, 110.85 104.64 C103.05 111.26, 91.27 116.69, 81.26 119.06 C71.24 121.43, 60.28 121.24, 50.77 118.86 C41.26 116.48, 31.95 110.62, 24.2 104.79 C16.45 98.95, 8.24 92.24, 4.26 83.84 C0.29 75.44, -0.57 63.92, 0.36 54.37 C1.29 44.82, 3.89 34.5, 9.84 26.56 C15.79 18.62, 27.17 10.88, 36.06 6.72 C44.94 2.57, 53.24 1.54, 63.17 1.62 C73.09 1.7, 85.3 1.21, 95.61 7.2 C105.92 13.18, 119.48 30.25, 125.04 37.54 C130.6 44.82, 130.05 50.88, 128.97 50.91 M52.69 -1.05 C62.25 -3.76, 76.98 -3.54, 87.39 -0.04 C97.81 3.45, 107.9 13.15, 115.19 19.91 C122.48 26.66, 128.3 31.83, 131.15 40.47 C134 49.11, 134.97 62.34, 132.31 71.74 C129.64 81.14, 122.15 90, 115.17 96.87 C108.19 103.74, 99.48 109.48, 90.45 112.98 C81.41 116.48, 71.2 118.65, 60.98 117.88 C50.75 117.12, 37.66 113.04, 29.09 108.39 C20.52 103.74, 14.3 97.76, 9.57 89.98 C4.85 82.2, 1.69 70.61, 0.74 61.71 C-0.21 52.8, -0.24 44.62, 3.86 36.55 C7.95 28.49, 16.7 18.98, 25.29 13.32 C33.88 7.65, 50.8 4.06, 55.42 2.56 C60.04 1.06, 53.21 3.3, 53.04 4.31" stroke="none" stroke-width="0" fill="#a5d8ff"></path><path d="M119.68 23.39 C126.19 29.65, 129.51 39.24, 131.25 48.43 C132.99 57.62, 133.19 69.21, 130.12 78.54 C127.06 87.87, 120.18 98.06, 112.87 104.41 C105.57 110.76, 96.31 114.58, 86.3 116.63 C76.28 118.68, 63.31 118.22, 52.79 116.72 C42.27 115.23, 31.09 113.16, 23.19 107.66 C15.28 102.16, 9.06 92.4, 5.35 83.71 C1.64 75.02, 0.05 65.02, 0.92 55.52 C1.79 46.03, 5.39 34.29, 10.55 26.74 C15.71 19.18, 23.26 14.6, 31.87 10.2 C40.49 5.8, 51.87 1.06, 62.26 0.32 C72.66 -0.43, 83.6 0.37, 94.25 5.74 C104.9 11.11, 120.31 26.21, 126.17 32.54 C132.03 38.88, 130.55 43.14, 129.42 43.75 M81.35 3.66 C91.36 4.93, 102.67 7.91, 110.15 14.02 C117.62 20.12, 122.32 31.53, 126.2 40.3 C130.09 49.07, 134.13 57.82, 133.46 66.65 C132.78 75.48, 128.45 85.83, 122.14 93.28 C115.82 100.73, 104.9 106.94, 95.57 111.35 C86.25 115.75, 76.64 119.72, 66.2 119.72 C55.76 119.72, 41.94 115.47, 32.93 111.34 C23.93 107.21, 17.2 102.16, 12.19 94.94 C7.18 87.73, 3.94 77.65, 2.9 68.03 C1.85 58.42, 3.05 46.2, 5.91 37.26 C8.77 28.32, 12.55 20.58, 20.07 14.4 C27.59 8.22, 40.22 1.83, 51.02 0.18 C61.82 -1.47, 79.67 4.44, 84.85 4.5 C90.03 4.57, 82.68 0.12, 82.09 0.57" stroke="#1e1e1e" stroke-width="4" fill="none"></path></g><g transform="translate(599.7013460993949 57.53698147645537) rotate(0 38.56996154785156 12.5)"><text x="38.56996154785156" y="0" font-family="Virgil, Segoe UI Emoji" font-size="20px" fill="#1e1e1e" text-anchor="middle" style="white-space: pre;" direction="ltr" dominant-baseline="text-before-edge">Address</text></g><g stroke-linecap="round" transform="translate(561.4769668579102 500) rotate(0 90.875 43.375)"><path d="M49.61 5.69 C60.09 2.49, 76.45 0.97, 90.03 0.64 C103.61 0.3, 119.22 0.78, 131.08 3.67 C142.95 6.57, 153.18 12.91, 161.22 18.01 C169.26 23.11, 176.5 28.49, 179.35 34.27 C182.2 40.05, 180.91 46.82, 178.34 52.72 C175.77 58.61, 172.15 64.45, 163.94 69.65 C155.73 74.86, 141.17 80.99, 129.08 83.96 C116.99 86.94, 104.54 87.61, 91.41 87.51 C78.29 87.42, 62.29 86.01, 50.33 83.41 C38.37 80.81, 27.99 77.14, 19.68 71.89 C11.36 66.65, 3.43 58.17, 0.45 51.94 C-2.53 45.72, -1.22 40.58, 1.8 34.55 C4.82 28.53, 3.95 21.32, 18.58 15.8 C33.22 10.28, 71.3 2.87, 89.6 1.43 C107.89 -0.01, 127.84 6.4, 128.35 7.15 M47.42 4.84 C57.26 1.14, 73.33 -0.97, 86.73 -1.4 C100.13 -1.84, 115.93 -0.17, 127.82 2.22 C139.72 4.62, 149.55 7.99, 158.09 12.95 C166.64 17.91, 175.37 25.75, 179.09 31.99 C182.8 38.22, 183.41 43.86, 180.39 50.35 C177.37 56.84, 169.07 65.55, 160.98 70.93 C152.89 76.3, 143.01 79.7, 131.85 82.59 C120.68 85.49, 107.33 87.91, 93.99 88.29 C80.65 88.67, 64.11 87.47, 51.8 84.87 C39.48 82.26, 28.52 78.02, 20.12 72.65 C11.71 67.29, 3.91 58.85, 1.36 52.66 C-1.18 46.47, 1.96 41.94, 4.86 35.51 C7.76 29.09, 11.47 19.65, 18.77 14.11 C26.07 8.58, 43.06 3.51, 48.67 2.3 C54.27 1.1, 51.27 5.91, 52.4 6.9" stroke="none" stroke-width="0" fill="#a5d8ff"></path><path d="M95.34 0.43 C107.91 0.47, 122.11 4.05, 133.73 6.79 C145.35 9.54, 157.44 12.51, 165.05 16.9 C172.65 21.29, 177.37 26.73, 179.38 33.14 C181.39 39.55, 180.38 49, 177.11 55.34 C173.85 61.68, 167.93 66.62, 159.81 71.19 C151.68 75.77, 140.24 80.48, 128.39 82.78 C116.54 85.08, 102.03 84.83, 88.7 84.97 C75.38 85.11, 60.25 86.2, 48.44 83.63 C36.64 81.06, 25.52 74.82, 17.87 69.54 C10.22 64.25, 4.8 58.22, 2.54 51.92 C0.28 45.61, 0.9 37.92, 4.31 31.7 C7.71 25.48, 14.6 19.2, 22.97 14.6 C31.35 9.99, 34.66 5.52, 54.57 4.07 C74.47 2.62, 122.86 2.31, 142.4 5.9 C161.95 9.49, 172.58 24.75, 171.83 25.61 M47.08 4.73 C57.84 0.78, 73.2 -0.51, 85.89 -1.14 C98.59 -1.77, 111.21 -1.51, 123.26 0.94 C135.31 3.39, 149.42 8.89, 158.21 13.58 C166.99 18.27, 172.02 22.81, 175.96 29.08 C179.91 35.36, 183.06 44.52, 181.89 51.22 C180.71 57.92, 176.18 64.45, 168.91 69.27 C161.64 74.09, 150.49 77.28, 138.28 80.15 C126.06 83.02, 108.93 86.09, 95.62 86.48 C82.31 86.88, 69.83 84.31, 58.41 82.52 C46.99 80.72, 36.15 80.46, 27.11 75.7 C18.07 70.94, 8.46 60.47, 4.17 53.98 C-0.12 47.48, -0.87 42.8, 1.38 36.72 C3.63 30.63, 9.97 22.16, 17.68 17.47 C25.38 12.77, 42.74 10.07, 47.63 8.53 C52.52 7, 46.5 8.39, 47.02 8.28" stroke="#1e1e1e" stroke-width="4" fill="none"></path></g><g transform="translate(595.5236994579154 530.7042433660336) rotate(0 57.06993865966797 12.5)"><text x="57.06993865966797" y="0" font-family="Virgil, Segoe UI Emoji" font-size="20px" fill="#1e1e1e" text-anchor="middle" style="white-space: pre;" direction="ltr" dominant-baseline="text-before-edge">Preferences</text></g><g stroke-linecap="round" transform="translate(152.35196685791016 95.375) rotate(0 26 21.5)"><path d="M33.75 5.5 C41.25 7.96, 37.62 16.57, 45.25 16.5 C52.09 24.14, 47.6 24.38, 45.25 27.5 C39.44 29.17, 40.34 30.74, 33.75 37.5 C24.98 39.14, 30.99 37.97, 20.25 37.5 C12.47 36.34, 11.3 25.64, 6.75 27.5 C0.43 17.01, -2.63 19.86, 6.75 16.5 C10.23 12.5, 14.53 8.32, 20.25 5.5 C23.54 1.98, 27.41 0.84, 33.75 5.5" stroke="none" stroke-width="0" fill="#b2f2bb"></path><path d="M33.75 5.5 C39.7 9.61, 42.03 15.27, 45.25 16.5 M33.75 5.5 C36.34 8.29, 42.86 13.44, 45.25 16.5 M45.25 16.5 C51.38 23.54, 51.47 23.56, 45.25 27.5 M45.25 16.5 C47.95 21.16, 56.16 21.65, 45.25 27.5 M45.25 27.5 C43.77 29.65, 40.1 32.78, 33.75 37.5 M45.25 27.5 C40.38 30.26, 37.28 34.87, 33.75 37.5 M33.75 37.5 C26.88 40.87, 24.89 44.17, 20.25 37.5 M33.75 37.5 C30.53 41.06, 30.94 41.03, 20.25 37.5 M20.25 37.5 C16.35 32.94, 11.07 32.85, 6.75 27.5 M20.25 37.5 C15.98 33.74, 8.84 30.43, 6.75 27.5 M6.75 27.5 C0.03 20.18, 3.1 25.41, 6.75 16.5 M6.75 27.5 C-0.15 18.12, 0.73 21.15, 6.75 16.5 M6.75 16.5 C14.92 13.63, 18.84 9.54, 20.25 5.5 M6.75 16.5 C9.04 14.32, 13.53 10.05, 20.25 5.5 M20.25 5.5 C29.57 -0.68, 28.27 2.46, 33.75 5.5 M20.25 5.5 C25.8 -0.89, 31.28 -0.02, 33.75 5.5" stroke="#1971c2" stroke-width="4" fill="none"></path></g><g transform="translate(19.351966857910156 102.875) rotate(0 62.471961975097656 20)"><text x="0" y="0" font-family="Virgil, Segoe UI Emoji" font-size="16px" fill="#1e1e1e" text-anchor="start" style="white-space: pre;" direction="ltr" dominant-baseline="text-before-edge">Create/update </text><text x="0" y="20" font-family="Virgil, Segoe UI Emoji" font-size="16px" fill="#1e1e1e" text-anchor="start" style="white-space: pre;" direction="ltr" dominant-baseline="text-before-edge">profile endpoint</text></g><g transform="translate(10 452.875) rotate(0 66.66394805908203 20)"><text x="0" y="0" font-family="Virgil, Segoe UI Emoji" font-size="16px" fill="#1e1e1e" text-anchor="start" style="white-space: pre;" direction="ltr" dominant-baseline="text-before-edge">Add preferences </text><text x="0" y="20" font-family="Virgil, Segoe UI Emoji" font-size="16px" fill="#1e1e1e" text-anchor="start" style="white-space: pre;" direction="ltr" dominant-baseline="text-before-edge">endpoint</text></g><g stroke-linecap="round"><g transform="translate(424.01607754615543 525.2779477460135) rotate(0 67.24651840182742 6.165998745615298)"><path d="M-0.77 -0.98 C20.76 0.38, 108.98 7.85, 131.75 10.02 M4.01 -3.98 C26.12 -2.52, 114.87 9.24, 136.66 12.39" stroke="#1e1e1e" stroke-width="4" fill="none"></path></g><g transform="translate(424.01607754615543 525.2779477460135) rotate(0 67.24651840182742 6.165998745615298)"><path d="M111.52 15.72 C120.15 16.61, 131.17 13.27, 137.42 12.12 M113.13 17.61 C120.67 16.37, 128.97 14.8, 136.33 13.02" stroke="#1e1e1e" stroke-width="4" fill="none"></path></g><g transform="translate(424.01607754615543 525.2779477460135) rotate(0 67.24651840182742 6.165998745615298)"><path d="M113.83 -1.22 C121.66 6.33, 131.77 9.65, 137.42 12.12 M115.44 0.66 C122.05 5.16, 129.57 9.34, 136.33 13.02" stroke="#1e1e1e" stroke-width="4" fill="none"></path></g></g><mask></mask><g stroke-linecap="round"><g transform="translate(728.1866636611194 73.59196799457777) rotate(0 220.8313736091859 21.81952238461554)"><path d="M-2.75 -2.32 C71.21 5.06, 368.99 35.46, 442.98 43.3 M0.96 2.6 C74.73 10.52, 368.43 40.55, 441.46 46.75" stroke="#1e1e1e" stroke-width="4" fill="none"></path></g><g transform="translate(728.1866636611194 73.59196799457777) rotate(0 220.8313736091859 21.81952238461554)"><path d="M415.61 53.98 C423.65 51.25, 431.25 49.58, 442.24 44.99 M417.39 53.47 C424.16 51.95, 430.52 50.15, 441.14 46.97" stroke="#1e1e1e" stroke-width="4" fill="none"></path></g><g transform="translate(728.1866636611194 73.59196799457777) rotate(0 220.8313736091859 21.81952238461554)"><path d="M417.23 36.96 C424.76 38.85, 431.93 41.82, 442.24 44.99 M419 36.45 C425.48 39.72, 431.38 42.71, 441.14 46.97" stroke="#1e1e1e" stroke-width="4" fill="none"></path></g></g><mask></mask><g stroke-linecap="round"><g transform="translate(746.2385132316158 509.4605601924586) rotate(0 205.2129768131481 -146.98353661085707)"><path d="M1.32 -0.34 C70.11 -48.77, 341.87 -244.14, 409.99 -292.89 M-1.41 -2.99 C67.22 -52.07, 339.27 -248.18, 407.52 -297.32" stroke="#1e1e1e" stroke-width="4" fill="none"></path></g><g transform="translate(746.2385132316158 509.4605601924586) rotate(0 205.2129768131481 -146.98353661085707)"><path d="M393.21 -276.96 C397.23 -281.15, 400.08 -286.82, 407.15 -295.51 M393.59 -275.99 C397.21 -282.12, 401.33 -288.58, 407.7 -297.06" stroke="#1e1e1e" stroke-width="4" fill="none"></path></g><g transform="translate(746.2385132316158 509.4605601924586) rotate(0 205.2129768131481 -146.98353661085707)"><path d="M383.22 -290.84 C389.14 -292.28, 394.01 -295.14, 407.15 -295.51 M383.59 -289.86 C390.16 -291.98, 397.19 -294.38, 407.7 -297.06" stroke="#1e1e1e" stroke-width="4" fill="none"></path></g></g><mask></mask><g stroke-linecap="round"><g transform="translate(443.53546002802614 187.67921655629698) rotate(0 60.38172151114304 14.508579548099533)"><path d="M-0.44 1.08 C19.41 6.15, 100.6 25.54, 120.39 30.11 M-4.12 -0.81 C15.2 3.44, 96.63 20.33, 117.95 25.69" stroke="#1e1e1e" stroke-width="4" fill="none"></path></g><g transform="translate(443.53546002802614 187.67921655629698) rotate(0 60.38172151114304 14.508579548099533)"><path d="M93.92 28.57 C102.55 26.02, 110.01 28.5, 117.8 25.93 M92.82 29.47 C101.34 27.81, 110.37 26.77, 117.16 25.35" stroke="#1e1e1e" stroke-width="4" fill="none"></path></g><g transform="translate(443.53546002802614 187.67921655629698) rotate(0 60.38172151114304 14.508579548099533)"><path d="M97.7 11.89 C104.99 15.13, 111.15 23.4, 117.8 25.93 M96.61 12.79 C103.85 16.89, 111.57 21.57, 117.16 25.35" stroke="#1e1e1e" stroke-width="4" fill="none"></path></g></g><mask></mask><g stroke-linecap="round" transform="translate(155.52795028686523 208.125) rotate(0 26 21.5)"><path d="M33.75 5.5 C34.31 6.37, 36 13.73, 45.25 16.5 C46.97 27.41, 56.69 26.57, 45.25 27.5 C38.64 30.5, 35.77 30.7, 33.75 37.5 C24.86 39.69, 21.59 37.71, 20.25 37.5 C13.2 31.68, 13.95 31.95, 6.75 27.5 C0.84 25.07, 2.88 20.16, 6.75 16.5 C9.78 10.51, 21.53 9.93, 20.25 5.5 C26.73 -5.17, 24.28 -4.3, 33.75 5.5" stroke="none" stroke-width="0" fill="#b2f2bb"></path><path d="M33.75 5.5 C38.35 5.86, 39.79 14.66, 45.25 16.5 M33.75 5.5 C37.35 9.67, 39.98 12.84, 45.25 16.5 M45.25 16.5 C50.71 22.89, 52.74 23.02, 45.25 27.5 M45.25 16.5 C48.36 20.43, 50.2 24.63, 45.25 27.5 M45.25 27.5 C42.62 32.69, 37.03 35.93, 33.75 37.5 M45.25 27.5 C42.91 29.91, 38.56 31.91, 33.75 37.5 M33.75 37.5 C28.39 45.32, 30.36 45.35, 20.25 37.5 M33.75 37.5 C29 42.07, 22.69 42.82, 20.25 37.5 M20.25 37.5 C19.14 34.59, 9.38 32.22, 6.75 27.5 M20.25 37.5 C17.89 35.95, 13.23 32.57, 6.75 27.5 M6.75 27.5 C1.83 19.49, 2.26 22.47, 6.75 16.5 M6.75 27.5 C-2.09 23.22, 1.32 18.83, 6.75 16.5 M6.75 16.5 C13.85 11.5, 15.95 11.64, 20.25 5.5 M6.75 16.5 C10.64 14.85, 14.25 8.62, 20.25 5.5 M20.25 5.5 C30.23 0.07, 28.53 -3.14, 33.75 5.5 M20.25 5.5 C28.96 -1.07, 29.96 -4.47, 33.75 5.5" stroke="#1971c2" stroke-width="4" fill="none"></path></g><g transform="translate(33.17598342895508 218.625) rotate(0 54.69596862792969 10)"><text x="0" y="0" font-family="Virgil, Segoe UI Emoji" font-size="16px" fill="#1e1e1e" text-anchor="start" style="white-space: pre;" direction="ltr" dominant-baseline="text-before-edge">Email endpoint</text></g><g stroke-linecap="round" transform="translate(1175.8519668579102 26.87500000000091) rotate(0 117.5 115)"><path d="M7.86 8.16 C7.86 8.16, 7.86 8.16, 7.86 8.16 M7.86 8.16 C7.86 8.16, 7.86 8.16, 7.86 8.16 M0.91 40.54 C10.18 29.99, 19.58 18.92, 36.34 -0.21 M0.91 40.54 C9.36 31.88, 18.53 20.42, 36.34 -0.21 M1.18 64.62 C20.68 38.55, 47.12 17.38, 57.6 -0.28 M1.18 64.62 C17.49 47, 36.69 27.71, 57.6 -0.28 M0.79 89.46 C23.4 64.45, 47.78 39, 78.2 0.41 M0.79 89.46 C14.79 72.65, 31.25 51.11, 78.2 0.41 M1.05 113.54 C24.63 89.39, 42.81 71.26, 99.46 0.34 M1.05 113.54 C31.47 82.65, 59.86 48.89, 99.46 0.34 M0.66 138.38 C27.42 105.61, 61.68 75.46, 120.72 0.27 M0.66 138.38 C36.11 99.93, 67.38 61.9, 120.72 0.27 M0.93 162.46 C32.75 127.99, 71.77 84.19, 141.98 0.2 M0.93 162.46 C52.87 104.47, 104.98 46.8, 141.98 0.2 M0.54 187.3 C51.34 130.55, 100.33 67.31, 163.24 0.13 M0.54 187.3 C62.81 110.85, 128.89 37.27, 163.24 0.13 M2.12 209.87 C60.59 145.19, 114.14 81.62, 184.5 0.06 M2.12 209.87 C54.69 146.32, 109.1 82.19, 184.5 0.06 M10.91 224.14 C65.16 158.24, 121.82 92.7, 205.11 0.75 M10.91 224.14 C65.95 161.82, 119.97 102.39, 205.11 0.75 M27.58 229.35 C69.9 187.57, 108.99 138.11, 222.43 5.21 M27.58 229.35 C76.19 180.37, 121.11 127.52, 222.43 5.21 M48.19 230.04 C97.34 174.61, 142.88 125.03, 233.19 17.21 M48.19 230.04 C119.06 144.68, 191.57 62.99, 233.19 17.21 M69.45 229.97 C112.92 181.6, 158.65 131.54, 235.43 39.03 M69.45 229.97 C117.06 179.4, 161.38 129.33, 235.43 39.03 M90.71 229.9 C126.47 189.12, 163.55 142.62, 235.7 63.11 M90.71 229.9 C140.65 168.22, 192 111.84, 235.7 63.11 M111.97 229.83 C159.78 185.36, 202.31 134, 235.96 87.19 M111.97 229.83 C141.49 194.34, 169.29 156.62, 235.96 87.19 M132.57 230.52 C164.86 188.18, 199.88 153.34, 235.57 112.03 M132.57 230.52 C164.56 189.29, 203.02 148.95, 235.57 112.03 M153.83 230.45 C179.13 200.2, 203.77 173.15, 235.84 136.11 M153.83 230.45 C182.92 193.8, 214.71 157.56, 235.84 136.11 M175.09 230.38 C196.1 204.13, 220.34 174.69, 235.45 160.95 M175.09 230.38 C193.72 209.48, 212.11 188.72, 235.45 160.95 M196.35 230.31 C203.03 220.53, 210.84 206.35, 235.72 185.03 M196.35 230.31 C206.99 222.13, 216.12 210.47, 235.72 185.03 M220.24 227.22 C223.96 221.86, 228.31 221.65, 233.36 212.13 M220.24 227.22 C225.49 220.91, 229.2 215.45, 233.36 212.13" stroke="#b2f2bb" stroke-width="2" fill="none"></path><path d="M32 0 C67.94 -2.62, 106.23 -2.55, 203 0 M32 0 C93.97 -1.73, 157.6 -1.66, 203 0 M203 0 C221.17 -1.36, 233.44 12.95, 235 32 M203 0 C224.2 -2.45, 232.57 12.01, 235 32 M235 32 C231.88 94.4, 231.03 158.73, 235 198 M235 32 C234.01 82.83, 235 132.51, 235 198 M235 198 C236.74 218.53, 220.58 229.85, 203 230 M235 198 C235.04 217.24, 227.9 233.92, 203 230 M203 230 C151.52 233.62, 99.15 234.35, 32 230 M203 230 C138.14 230.5, 72.58 231.98, 32 230 M32 230 C8.85 231.06, 1.15 216.57, 0 198 M32 230 C13.62 229.21, 1.46 222.17, 0 198 M0 198 C0.63 154.09, -1.85 106.9, 0 32 M0 198 C2.57 134.1, 1.72 68.57, 0 32 M0 32 C1.7 9.74, 13.24 -3.89, 32 0 M0 32 C-3.03 9.82, 12.04 -2.14, 32 0" stroke="#1e1e1e" stroke-width="4" fill="none"></path></g><g transform="translate(1221.265998840332 106.87500000000091) rotate(0 72.08596801757812 35)"><text x="72.08596801757812" y="0" font-family="Virgil, Segoe UI Emoji" font-size="28px" fill="#1e1e1e" text-anchor="middle" style="white-space: pre;" direction="ltr" dominant-baseline="text-before-edge">Marketing </text><text x="72.08596801757812" y="35" font-family="Virgil, Segoe UI Emoji" font-size="28px" fill="#1e1e1e" text-anchor="middle" style="white-space: pre;" direction="ltr" dominant-baseline="text-before-edge">Service</text></g><g stroke-linecap="round" transform="translate(1166.8519668579102 330.8749999999991) rotate(0 117.5 115)"><path d="M7.86 8.16 C7.86 8.16, 7.86 8.16, 7.86 8.16 M7.86 8.16 C7.86 8.16, 7.86 8.16, 7.86 8.16 M8.78 31.49 C12.97 25.44, 22.52 16.82, 34.37 2.05 M8.78 31.49 C18.97 20.79, 27.76 9.93, 34.37 2.05 M8.39 56.32 C19.67 37.88, 30.44 24.1, 55.63 1.98 M8.39 56.32 C24.13 37.9, 42.6 18.5, 55.63 1.98 M8.66 80.4 C28.18 54.85, 54.68 22.13, 76.89 1.91 M8.66 80.4 C32.12 53.12, 58.56 25.97, 76.89 1.91 M8.27 105.24 C31.03 74.39, 54.75 50.4, 98.15 1.85 M8.27 105.24 C39.66 65.5, 73.16 25.85, 98.15 1.85 M8.54 129.32 C37.16 89.8, 71.04 57.67, 119.41 1.78 M8.54 129.32 C48.67 82.09, 88.94 36.2, 119.41 1.78 M8.15 154.16 C60.43 92.17, 109.91 31.42, 140.67 1.71 M8.15 154.16 C49.81 107.07, 89.63 59.6, 140.67 1.71 M8.41 178.24 C67.77 116.98, 122.05 50.04, 161.28 2.39 M8.41 178.24 C49.11 130.65, 88.85 84.76, 161.28 2.39 M7.37 203.83 C43.27 165.87, 81.08 122.39, 182.54 2.32 M7.37 203.83 C64.4 140.13, 122.41 74.1, 182.54 2.32 M10.91 224.14 C63.96 163.84, 117.05 103.3, 204.45 1.5 M10.91 224.14 C52.3 173.48, 95.17 126.78, 204.45 1.5 M24.3 233.13 C96.86 145.2, 172.21 61.02, 221.78 5.96 M24.3 233.13 C94.91 149.58, 166.84 69.25, 221.78 5.96 M40.97 238.34 C88.73 183.92, 134.37 130, 235.16 14.95 M40.97 238.34 C90.11 181.03, 141.46 124.54, 235.16 14.95 M62.23 238.27 C124.5 158.81, 190.95 87.1, 238.71 35.26 M62.23 238.27 C113.76 176.91, 167.24 114.28, 238.71 35.26 M83.49 238.2 C149.41 166.23, 212.74 94.26, 238.98 59.34 M83.49 238.2 C114.06 200.74, 143.58 166.82, 238.98 59.34 M104.75 238.13 C146.97 187.46, 198.74 132.86, 238.59 84.17 M104.75 238.13 C160.52 178.57, 214.34 116.78, 238.59 84.17 M126.01 238.07 C159.26 203.48, 187.45 161.77, 238.85 108.26 M126.01 238.07 C149.85 207.24, 178.83 178.52, 238.85 108.26 M147.27 238 C171.11 216.92, 188.01 186.7, 238.46 133.09 M147.27 238 C171.79 213.48, 191.24 187.16, 238.46 133.09 M168.53 237.93 C191.08 210.23, 210.07 186.91, 238.73 157.17 M168.53 237.93 C187.81 215.96, 208.96 191.44, 238.73 157.17 M189.79 237.86 C203.91 223.2, 218.21 206.28, 239 181.26 M189.79 237.86 C209.03 212.71, 228.04 191.64, 239 181.26 M218.27 229.49 C223.82 224.19, 224.37 221.13, 233.36 212.13 M218.27 229.49 C221.64 224.7, 223.68 221.61, 233.36 212.13" stroke="#b2f2bb" stroke-width="2" fill="none"></path><path d="M32 0 C87.96 -1.77, 141.17 -1.75, 203 0 M32 0 C85.51 -1.56, 141.4 0.27, 203 0 M203 0 C224.22 -2.13, 232.89 11.84, 235 32 M203 0 C227.86 -1.94, 238.94 8.69, 235 32 M235 32 C232.84 79.2, 231.33 131.84, 235 198 M235 32 C238.66 91.03, 235.92 150.79, 235 198 M235 198 C235.03 217.51, 227.44 233.41, 203 230 M235 198 C234.85 215.45, 225.06 229.15, 203 230 M203 230 C141.9 235.02, 76.08 235.08, 32 230 M203 230 C161.5 230.93, 122.4 229.02, 32 230 M32 230 C13.24 229.32, 1.27 221.8, 0 198 M32 230 C9.47 229.11, 4.28 219.32, 0 198 M0 198 C5.47 140.56, -1.29 88.66, 0 32 M0 198 C-0.42 147.46, 0.02 95.91, 0 32 M0 32 C-2.63 9.93, 11.86 -1.86, 32 0 M0 32 C-1.66 7.49, 13.95 -4.13, 32 0" stroke="#1e1e1e" stroke-width="4" fill="none"></path></g><g transform="translate(1185.3580017089844 410.8749999999991) rotate(0 98.99396514892578 35)"><text x="98.99396514892578" y="0" font-family="Virgil, Segoe UI Emoji" font-size="28px" fill="#1e1e1e" text-anchor="middle" style="white-space: pre;" direction="ltr" dominant-baseline="text-before-edge">Data Science </text><text x="98.99396514892578" y="35" font-family="Virgil, Segoe UI Emoji" font-size="28px" fill="#1e1e1e" text-anchor="middle" style="white-space: pre;" direction="ltr" dominant-baseline="text-before-edge">Service</text></g><g stroke-linecap="round"><g transform="translate(722.737620991742 111.92081822208092) rotate(0 206.69767919950027 139.2409551821654)"><path d="M0.51 0.72 C69.2 46.87, 342.55 230.97, 411.18 277.53 M-2.65 -1.36 C66.98 45.13, 347.62 234.51, 416.38 280.64" stroke="#1e1e1e" stroke-width="4" fill="none"></path></g><g transform="translate(722.737620991742 111.92081822208092) rotate(0 206.69767919950027 139.2409551821654)"><path d="M392.62 273.03 C397.94 275.4, 406.26 277.74, 415.31 279.58 M392.97 274.19 C400.11 276.06, 408.55 278.68, 415.87 280.25" stroke="#1e1e1e" stroke-width="4" fill="none"></path></g><g transform="translate(722.737620991742 111.92081822208092) rotate(0 206.69767919950027 139.2409551821654)"><path d="M402.17 258.85 C404.96 265.03, 410.73 271.16, 415.31 279.58 M402.52 260 C406.63 266.5, 411.92 273.79, 415.87 280.25" stroke="#1e1e1e" stroke-width="4" fill="none"></path></g></g><mask></mask><g stroke-linecap="round" transform="translate(568.2269668579102 317.3335773644658) rotate(0 65.875 59.875)"><path d="M62.3 -1.56 C71.78 -3.48, 82.32 -0.41, 91.47 3.65 C100.63 7.7, 110.65 14.91, 117.23 22.77 C123.81 30.62, 129.16 41.3, 130.95 50.79 C132.74 60.28, 130.8 71.15, 127.97 79.72 C125.14 88.28, 120.86 96.27, 113.96 102.19 C107.06 108.11, 96.85 112.3, 86.58 115.23 C76.32 118.16, 62.96 121.04, 52.37 119.79 C41.78 118.55, 31.17 113.68, 23.06 107.76 C14.94 101.84, 7.38 92.68, 3.66 84.28 C-0.06 75.89, -0.5 66.93, 0.76 57.4 C2.01 47.87, 6.05 34.98, 11.19 27.09 C16.32 19.2, 19.57 14.07, 31.55 10.07 C43.53 6.06, 70.9 2.91, 83.07 3.06 C95.25 3.21, 104.56 9.89, 104.59 10.95 M46.53 4.57 C56.34 1.98, 71.09 1.48, 81.9 3.47 C92.71 5.46, 103.89 10.71, 111.38 16.51 C118.87 22.3, 123.71 29.68, 126.83 38.24 C129.94 46.79, 131.33 58.38, 130.09 67.84 C128.85 77.3, 124.59 87.97, 119.39 94.99 C114.18 102.01, 107.19 105.85, 98.87 109.97 C90.55 114.08, 79.77 118.78, 69.49 119.68 C59.2 120.57, 46.31 119.7, 37.13 115.33 C27.96 110.95, 20.87 100.96, 14.43 93.43 C7.99 85.89, 0.4 78.88, -1.51 70.1 C-3.41 61.32, -0.41 49.55, 3.02 40.74 C6.45 31.92, 11.47 23.16, 19.06 17.21 C26.64 11.26, 43.82 7.81, 48.55 5.03 C53.27 2.25, 46.8 0.14, 47.41 0.51" stroke="none" stroke-width="0" fill="#a5d8ff"></path><path d="M63.3 0.19 C73.47 -0.49, 87.94 3.77, 97.16 7.79 C106.39 11.81, 113.21 16.69, 118.65 24.34 C124.1 31.98, 128.64 44.42, 129.82 53.64 C131 62.85, 129.23 70.9, 125.74 79.62 C122.24 88.35, 116.05 99.94, 108.84 105.99 C101.64 112.05, 92.01 113.66, 82.52 115.95 C73.03 118.23, 61.63 121.45, 51.92 119.71 C42.21 117.96, 32.09 111.8, 24.25 105.45 C16.41 99.11, 8.65 90.12, 4.87 81.62 C1.09 73.12, 0.83 63.88, 1.58 54.43 C2.34 44.99, 3.65 33.06, 9.41 24.96 C15.16 16.85, 18.25 6.57, 36.12 5.82 C53.99 5.07, 101.23 8.92, 116.65 20.46 C132.07 32, 129.38 74.46, 128.64 75.07 M93.83 5.32 C103.47 8.11, 112.44 14.63, 118.43 21.99 C124.42 29.34, 127.97 39.81, 129.78 49.47 C131.58 59.13, 132.57 71.27, 129.26 79.96 C125.95 88.65, 117.51 95.82, 109.93 101.6 C102.35 107.38, 93.06 112.01, 83.8 114.63 C74.53 117.25, 64.23 118.2, 54.34 117.31 C44.45 116.43, 32.82 115.13, 24.47 109.31 C16.12 103.5, 8.2 90.88, 4.25 82.43 C0.29 73.98, 0.06 67.11, 0.77 58.61 C1.47 50.1, 3.56 39.65, 8.49 31.4 C13.42 23.15, 21.16 14.67, 30.32 9.08 C39.49 3.49, 53.2 -1.2, 63.48 -2.14 C73.76 -3.08, 87.52 2.3, 92 3.43 C96.48 4.55, 90.54 3.09, 90.33 4.62" stroke="#1e1e1e" stroke-width="4" fill="none"></path></g><g transform="translate(609.1113268733206 364.87055884092115) rotate(0 24.90998077392578 12.5)"><text x="24.90998077392578" y="0" font-family="Virgil, Segoe UI Emoji" font-size="20px" fill="#1e1e1e" text-anchor="middle" style="white-space: pre;" direction="ltr" dominant-baseline="text-before-edge">Name</text></g><g stroke-linecap="round"><g transform="translate(437.15199659428254 258.5650948290154) rotate(0 60.79732246988897 39.30097273122465)"><path d="M-0.66 -0.33 C19.89 12.69, 103.61 65.05, 123.72 78.21 M4.18 -2.98 C24.51 10.48, 103.78 67.5, 122.64 81.62" stroke="#1e1e1e" stroke-width="4" fill="none"></path></g><g transform="translate(437.15199659428254 258.5650948290154) rotate(0 60.79732246988897 39.30097273122465)"><path d="M98.39 76.19 C105.91 75.79, 113.77 77.49, 123.08 80.87 M99.4 74.92 C103.59 75.13, 109.55 77.42, 121.65 81.68" stroke="#1e1e1e" stroke-width="4" fill="none"></path></g><g transform="translate(437.15199659428254 258.5650948290154) rotate(0 60.79732246988897 39.30097273122465)"><path d="M108.47 62.38 C112.82 66.31, 117.51 72.35, 123.08 80.87 M109.49 61.11 C111.5 64.33, 115.34 69.53, 121.65 81.68" stroke="#1e1e1e" stroke-width="4" fill="none"></path></g></g><mask></mask><g stroke-linecap="round" transform="translate(566.2269668579102 167.3335773644667) rotate(0 65.875 59.875)"><path d="M10.45 26.13 C15.05 18.12, 27.06 10.49, 36.02 6.31 C44.98 2.12, 53.93 0.78, 64.21 1.01 C74.48 1.24, 88.46 3.81, 97.69 7.69 C106.92 11.57, 113.73 16.92, 119.58 24.3 C125.42 31.68, 131.54 42.32, 132.75 51.96 C133.96 61.6, 130.87 73.41, 126.86 82.14 C122.85 90.88, 115.88 98.4, 108.68 104.36 C101.49 110.31, 93.66 115.39, 83.68 117.87 C73.71 120.34, 59.29 121.33, 48.83 119.2 C38.37 117.08, 28.29 111.18, 20.91 105.12 C13.54 99.06, 7.96 91.76, 4.61 82.86 C1.25 73.96, -0.76 61.37, 0.76 51.71 C2.28 42.05, 10.66 30.19, 13.72 24.89 C16.78 19.59, 18.25 19.8, 19.12 19.89 M29.06 9.73 C36.45 4.37, 48.27 3.48, 58.75 3.04 C69.23 2.59, 82.4 3.74, 91.97 7.04 C101.53 10.33, 109.97 15.91, 116.13 22.82 C122.29 29.74, 126.45 39.53, 128.93 48.53 C131.4 57.53, 133.82 68.43, 131 76.85 C128.18 85.26, 119.86 92.67, 112.03 99.03 C104.21 105.39, 93.73 111.62, 84.04 115.01 C74.36 118.39, 63.69 121.07, 53.92 119.34 C44.14 117.6, 33.25 109.79, 25.39 104.58 C17.54 99.37, 10.88 95.52, 6.79 88.08 C2.69 80.65, 0.79 69.22, 0.82 59.98 C0.86 50.73, 2.04 40.66, 7.01 32.64 C11.98 24.62, 26.25 15.98, 30.66 11.86 C35.07 7.75, 33.12 7.46, 33.49 7.95" stroke="none" stroke-width="0" fill="#a5d8ff"></path><path d="M62.85 1.75 C72.6 0.01, 85.69 1.16, 94.62 4.75 C103.55 8.34, 110.56 15.57, 116.41 23.31 C122.25 31.05, 127.73 41.92, 129.68 51.2 C131.64 60.47, 131.07 70.57, 128.11 78.95 C125.15 87.32, 119.01 94.99, 111.94 101.45 C104.87 107.92, 95.17 114.9, 85.67 117.73 C76.17 120.56, 64.74 120.58, 54.93 118.45 C45.12 116.33, 34.97 110.78, 26.81 104.98 C18.65 99.19, 10.63 91.92, 5.98 83.69 C1.33 75.46, -1.87 64.65, -1.1 55.61 C-0.34 46.57, 5.39 36.99, 10.57 29.47 C15.75 21.95, 16.69 14.4, 29.99 10.49 C43.29 6.58, 75.94 3.84, 90.36 6 C104.79 8.16, 116.96 22.58, 116.54 23.45 M89.96 5.92 C99.29 8.7, 109.64 13.91, 116.86 20.92 C124.08 27.93, 130.72 38.7, 133.27 47.98 C135.81 57.26, 135.81 67.42, 132.12 76.58 C128.44 85.74, 118.48 96.34, 111.16 102.95 C103.84 109.57, 97.44 113.33, 88.2 116.25 C78.96 119.16, 66.28 121.85, 55.72 120.43 C45.16 119.01, 32.62 113.57, 24.84 107.74 C17.05 101.9, 12.84 93.41, 9.03 85.43 C5.22 77.45, 1.83 68.77, 1.97 59.84 C2.11 50.9, 5.12 40.14, 9.89 31.82 C14.65 23.5, 21.68 15.3, 30.55 9.92 C39.43 4.55, 53.45 0.46, 63.14 -0.44 C72.83 -1.34, 84.01 3.26, 88.72 4.53 C93.43 5.81, 91.03 6.66, 91.37 7.23" stroke="#1e1e1e" stroke-width="4" fill="none"></path></g><g transform="translate(607.4613253474417 214.87055884092206) rotate(0 24.559982299804688 12.5)"><text x="24.559982299804688" y="0" font-family="Virgil, Segoe UI Emoji" font-size="20px" fill="#1e1e1e" text-anchor="middle" style="white-space: pre;" direction="ltr" dominant-baseline="text-before-edge">Email</text></g><g stroke-linecap="round"><g transform="translate(698.9754468177398 227.61901496436985) rotate(0 224.9491050291772 -29.65003869743009)"><path d="M1.1 -0.24 C76.77 -10.3, 377.25 -49.72, 452.05 -59.93 M-1.74 -2.84 C73.92 -12.52, 376 -47.19, 450.98 -56.64" stroke="#1e1e1e" stroke-width="4" fill="none"></path></g><g transform="translate(698.9754468177398 227.61901496436985) rotate(0 224.9491050291772 -29.65003869743009)"><path d="M428.49 -43.83 C433.34 -48.04, 437.37 -50.07, 449.33 -58.09 M429.24 -46.14 C432.89 -48.59, 438.18 -50.33, 450.88 -55.88" stroke="#1e1e1e" stroke-width="4" fill="none"></path></g><g transform="translate(698.9754468177398 227.61901496436985) rotate(0 224.9491050291772 -29.65003869743009)"><path d="M426.46 -60.8 C431.8 -61.11, 436.29 -59.23, 449.33 -58.09 M427.21 -63.12 C431.46 -61.85, 437.2 -59.87, 450.88 -55.88" stroke="#1e1e1e" stroke-width="4" fill="none"></path></g></g><mask></mask><g stroke-linecap="round"><g transform="translate(709.417807662041 404.1809908742748) rotate(0 223.16624480216706 -105.3542782623199)"><path d="M2.4 1.59 C76.25 -33.59, 370.72 -174.91, 444.24 -210.4 M0.26 -0.01 C74.89 -34.74, 374.74 -171.83, 449.51 -206.6" stroke="#1e1e1e" stroke-width="4" fill="none"></path></g><g transform="translate(709.417807662041 404.1809908742748) rotate(0 223.16624480216706 -105.3542782623199)"><path d="M432.89 -190.5 C437.98 -197.14, 443.34 -201.91, 450.3 -207.44 M431.33 -189.11 C436.46 -194.57, 441.96 -199.78, 450.27 -206.42" stroke="#1e1e1e" stroke-width="4" fill="none"></path></g><g transform="translate(709.417807662041 404.1809908742748) rotate(0 223.16624480216706 -105.3542782623199)"><path d="M425.73 -206.03 C433.3 -207.45, 441.09 -206.92, 450.3 -207.44 M424.18 -204.64 C431.31 -205.55, 438.92 -206.16, 450.27 -206.42" stroke="#1e1e1e" stroke-width="4" fill="none"></path></g></g><mask></mask><g stroke-linecap="round"><g transform="translate(717.2387141972049 247.57107636698265) rotate(0 205.69767919950027 88.24095518216541)"><path d="M0.97 0.48 C69.55 29.95, 343.5 147.27, 411.78 176.61 M-1.95 -1.72 C66.27 28.26, 341.35 150.09, 409.76 180.31" stroke="#1e1e1e" stroke-width="4" fill="none"></path></g><g transform="translate(717.2387141972049 247.57107636698265) rotate(0 205.69767919950027 88.24095518216541)"><path d="M385.16 178.9 C392.66 178.56, 400.33 179.14, 407.99 180.89 M383.94 177.83 C391.06 179.33, 400.09 180.64, 410.57 181.02" stroke="#1e1e1e" stroke-width="4" fill="none"></path></g><g transform="translate(717.2387141972049 247.57107636698265) rotate(0 205.69767919950027 88.24095518216541)"><path d="M392.08 163.27 C397.41 167.8, 402.94 173.24, 407.99 180.89 M390.86 162.19 C395.97 168.16, 403 174.01, 410.57 181.02" stroke="#1e1e1e" stroke-width="4" fill="none"></path></g></g><mask></mask><g stroke-linecap="round"><g transform="translate(703.1846401755538 362.9140477360097) rotate(0 221.69767919950027 47.24095518216541)"><path d="M2.25 -2.72 C75.73 13.23, 368.41 78.83, 441.58 95.16 M0.02 1.97 C74.34 17.08, 372.52 75.82, 447 90.52" stroke="#1e1e1e" stroke-width="4" fill="none"></path></g><g transform="translate(703.1846401755538 362.9140477360097) rotate(0 221.69767919950027 47.24095518216541)"><path d="M420.35 93.07 C430.81 91.4, 438.91 91.97, 446.43 92.5 M421.79 93.61 C430.44 92.65, 436.43 91.05, 446.94 90.8" stroke="#1e1e1e" stroke-width="4" fill="none"></path></g><g transform="translate(703.1846401755538 362.9140477360097) rotate(0 221.69767919950027 47.24095518216541)"><path d="M423.66 76.29 C433.01 80.09, 440.03 86.1, 446.43 92.5 M425.1 76.83 C432.91 80.79, 437.93 84.09, 446.94 90.8" stroke="#1e1e1e" stroke-width="4" fill="none"></path></g></g><mask></mask><g stroke-linecap="round"><g transform="translate(762.5907871227719 545.989203902117) rotate(0 188.19767919950027 0.24095518216540768)"><path d="M0.78 -0.38 C63.93 -0.58, 316.31 -2.63, 379.02 -2.09 M-2.25 -3.05 C60.76 -2.92, 315.24 -0.14, 378.21 0.14" stroke="#1e1e1e" stroke-width="4" fill="none"></path></g><g transform="translate(762.5907871227719 545.989203902117) rotate(0 188.19767919950027 0.24095518216540768)"><path d="M354.39 10.38 C360.02 6.35, 370.73 4.73, 376.8 0.81 M353.89 7.69 C361.71 5.86, 367.85 3.1, 378.85 0.66" stroke="#1e1e1e" stroke-width="4" fill="none"></path></g><g transform="translate(762.5907871227719 545.989203902117) rotate(0 188.19767919950027 0.24095518216540768)"><path d="M354.52 -6.72 C360.06 -5.54, 370.74 -1.95, 376.8 0.81 M354.03 -9.41 C361.76 -6.1, 367.86 -3.73, 378.85 0.66" stroke="#1e1e1e" stroke-width="4" fill="none"></path></g></g><mask></mask></svg>