<svg version="1.1" xmlns="http://www.w3.org/2000/svg" viewBox="0 0 611.25 565" width="1222.5" height="1130">
  <!-- svg-source:excalidraw -->
  
  <defs>
    <style class="style-fonts">
      @font-face {
        font-family: "Virgil";
        src: url("https://excalidraw.com/Virgil.woff2");
      }
      @font-face {
        font-family: "Cascadia";
        src: url("https://excalidraw.com/Cascadia.woff2");
      }
      @font-face {
        font-family: "Assistant";
        src: url("https://excalidraw.com/Assistant-Regular.woff2");
      }
    </style>
    
  </defs>
  <g stroke-linecap="round" transform="translate(10 10) rotate(0 295.625 272.5)"><path d="M32 0 C167.06 -1.11, 304.37 -3.47, 559.25 0 M32 0 C227.24 0.03, 422.38 -0.36, 559.25 0 M559.25 0 C580.23 -1.56, 591.07 10.44, 591.25 32 M559.25 0 C583.36 -3.17, 594.34 11.33, 591.25 32 M591.25 32 C594.99 177.26, 594.28 323.77, 591.25 513 M591.25 32 C588.94 174.85, 589.92 318.17, 591.25 513 M591.25 513 C591.7 533.54, 580.36 547.24, 559.25 545 M591.25 513 C591.62 529.95, 580.89 541.78, 559.25 545 M559.25 545 C446.41 547.44, 337.56 547.19, 32 545 M559.25 545 C380.2 543.91, 201.89 544.72, 32 545 M32 545 C10.69 543.27, 2.01 533.44, 0 513 M32 545 C13.9 548.78, 1.91 531.12, 0 513 M0 513 C-3.44 333.46, -3.04 158.16, 0 32 M0 513 C-2.58 414.95, -3.44 317.74, 0 32 M0 32 C-2.05 12.49, 8.53 -0.38, 32 0 M0 32 C0.43 7.73, 10.54 -0.22, 32 0" stroke="#1971c2" stroke-width="4" fill="none"></path></g><g transform="translate(193.9050521850586 15) rotate(0 111.7199478149414 17.5)"><text x="111.7199478149414" y="0" font-family="Virgil, Segoe UI Emoji" font-size="28px" fill="#1971c2" text-anchor="middle" style="white-space: pre;" direction="ltr" dominant-baseline="text-before-edge">Physical Machine</text></g><g stroke-linecap="round" transform="translate(65.625 85.625) rotate(0 236.875 210.625)"><path d="M32 0 C135.74 -1.02, 237.37 1.51, 441.75 0 M32 0 C168.83 1.58, 302.88 0.15, 441.75 0 M441.75 0 C465.31 -0.97, 475.84 8.88, 473.75 32 M441.75 0 C466.24 3.7, 470.18 10.93, 473.75 32 M473.75 32 C472.74 139.41, 474.39 242.09, 473.75 389.25 M473.75 32 C471.7 153.26, 471.08 276.54, 473.75 389.25 M473.75 389.25 C470.51 410.59, 462.9 417.95, 441.75 421.25 M473.75 389.25 C475.97 409.62, 462.48 424.94, 441.75 421.25 M441.75 421.25 C341.71 417.17, 242.26 417.12, 32 421.25 M441.75 421.25 C357.86 419.16, 273 420.06, 32 421.25 M32 421.25 C12.05 417.99, -1.38 409.03, 0 389.25 M32 421.25 C10.94 424.98, -4.11 406.51, 0 389.25 M0 389.25 C2.23 277.83, 1.86 165.51, 0 32 M0 389.25 C5.54 250.52, 5.52 111.37, 0 32 M0 32 C3.83 9.56, 7.42 1.41, 32 0 M0 32 C-2.49 11.05, 11.99 2.74, 32 0" stroke="#1971c2" stroke-width="4" fill="none"></path></g><g transform="translate(199.0260467529297 90.625) rotate(0 103.47395324707031 17.5)"><text x="103.47395324707031" y="0" font-family="Virgil, Segoe UI Emoji" font-size="28px" fill="#1971c2" text-anchor="middle" style="white-space: pre;" direction="ltr" dominant-baseline="text-before-edge">Virtual Machine</text></g><g stroke-linecap="round" transform="translate(151.875 156.875) rotate(0 155 145.625)"><path d="M32 0 C88.12 1.15, 142.47 2.15, 278 0 M32 0 C95.41 0.21, 160.4 0.61, 278 0 M278 0 C298.68 -3.23, 311.17 13.15, 310 32 M278 0 C296.73 2.89, 309.1 11.39, 310 32 M310 32 C306.71 106.11, 303.68 183.86, 310 259.25 M310 32 C309.2 96.13, 308.94 161.57, 310 259.25 M310 259.25 C313.08 277.19, 295.4 293.38, 278 291.25 M310 259.25 C306.44 283.96, 294.77 291.49, 278 291.25 M278 291.25 C198.32 291.72, 122.08 290.17, 32 291.25 M278 291.25 C209.8 289.8, 140.55 288.54, 32 291.25 M32 291.25 C12.68 289.58, -1.12 281.14, 0 259.25 M32 291.25 C9.47 292.77, -3.65 277.59, 0 259.25 M0 259.25 C2.08 190.13, 1.58 124.77, 0 32 M0 259.25 C-1.89 203.84, -2.75 147.03, 0 32 M0 32 C3.4 11.98, 13.45 3.4, 32 0 M0 32 C1.86 11.79, 13.54 -4.03, 32 0" stroke="#1971c2" stroke-width="4" fill="none"></path></g><g transform="translate(162.33905029296875 161.875) rotate(0 144.53594970703125 17.5)"><text x="144.53594970703125" y="0" font-family="Virgil, Segoe UI Emoji" font-size="28px" fill="#1971c2" text-anchor="middle" style="white-space: pre;" direction="ltr" dominant-baseline="text-before-edge">Process or Container</text></g><g stroke-linecap="round" transform="translate(220 248.125) rotate(0 88.125 73.75)"><path d="M32 0 C64.98 -1.63, 92.63 -1.84, 144.25 0 M32 0 C63.3 0.21, 92.38 0.56, 144.25 0 M144.25 0 C162.64 3.33, 177.89 10.89, 176.25 32 M144.25 0 C164.59 -4.28, 174.83 10.14, 176.25 32 M176.25 32 C175.18 59, 173.97 87.9, 176.25 115.5 M176.25 32 C175.91 63.32, 175.38 92.22, 176.25 115.5 M176.25 115.5 C173.51 137.54, 162.05 146.87, 144.25 147.5 M176.25 115.5 C178.4 132.72, 162.23 144.28, 144.25 147.5 M144.25 147.5 C107.01 145.44, 67.88 152.98, 32 147.5 M144.25 147.5 C108.69 145.65, 74.12 145.4, 32 147.5 M32 147.5 C10.07 148.46, 0.84 137.04, 0 115.5 M32 147.5 C9.96 149.79, -3.53 140.38, 0 115.5 M0 115.5 C-0.37 97.38, 0.39 69.65, 0 32 M0 115.5 C1.71 94.45, -1.27 72.07, 0 32 M0 32 C0.18 7.61, 9.16 2.73, 32 0 M0 32 C1.27 10.1, 6.1 -2.76, 32 0" stroke="#1971c2" stroke-width="4" fill="none"></path></g><g transform="translate(245.20902252197266 253.125) rotate(0 62.915977478027344 17.5)"><text x="62.915977478027344" y="0" font-family="Virgil, Segoe UI Emoji" font-size="28px" fill="#1971c2" text-anchor="middle" style="white-space: pre;" direction="ltr" dominant-baseline="text-before-edge">Request </text></g></svg>