<svg version="1.1" xmlns="http://www.w3.org/2000/svg" viewBox="0 0 2002.4800896110914 1346.674733529067" width="4004.960179222183" height="2693.349467058134">
  <!-- svg-source:excalidraw -->
  
  <defs>
    <style class="style-fonts">
      @font-face {
        font-family: "Virgil";
        src: url("https://excalidraw.com/Virgil.woff2");
      }
      @font-face {
        font-family: "Cascadia";
        src: url("https://excalidraw.com/Cascadia.woff2");
      }
      @font-face {
        font-family: "Assistant";
        src: url("https://excalidraw.com/Assistant-Regular.woff2");
      }
    </style>
    
  </defs>
  <g stroke-linecap="round" transform="translate(64.06432482960054 965.9583333333339) rotate(0 190.41666666666674 158.7499999999999)"><path d="M32 0 C148.59 0.66, 271.42 0.87, 348.83 0 M32 0 C134.08 0.94, 234.65 1.2, 348.83 0 M348.83 0 C366.81 -1.29, 383.18 11.54, 380.83 32 M348.83 0 C369.94 1.17, 383.56 8.96, 380.83 32 M380.83 32 C385.93 116.59, 384.38 203.75, 380.83 285.5 M380.83 32 C376.13 134.66, 378.05 234.37, 380.83 285.5 M380.83 285.5 C377.37 310.26, 369.46 318.25, 348.83 317.5 M380.83 285.5 C378.83 302.93, 372.42 316.78, 348.83 317.5 M348.83 317.5 C256.76 313.3, 168.08 315.08, 32 317.5 M348.83 317.5 C222.32 318.77, 95.92 320.4, 32 317.5 M32 317.5 C8.72 320.08, -1.76 308.79, 0 285.5 M32 317.5 C8.73 314.31, 3.27 310.21, 0 285.5 M0 285.5 C1.52 183.79, -1.7 87.21, 0 32 M0 285.5 C-1.88 186.83, 0.16 88.2, 0 32 M0 32 C2.95 10.26, 7.18 2.99, 32 0 M0 32 C-1.73 11.68, 8.8 -1.07, 32 0" stroke="#1971c2" stroke-width="4" fill="none"></path></g><g transform="translate(69.06432482960054 970.9583333333339) rotate(0 17.961997985839844 17.5)"><text x="0" y="24.528" font-family="Virgil, Segoe UI Emoji" font-size="28px" fill="#1971c2" text-anchor="start" style="white-space: pre;" direction="ltr" dominant-baseline="alphabetic">VM</text></g><g stroke-linecap="round" transform="translate(174.25679081315548 1065.4166666666679) rotate(0 91 88)"><path d="M32 0 C83.4 2.28, 120.09 0.63, 150 0 C174.37 2.94, 185.48 7.41, 182 32 C180.47 57.43, 183.9 82.17, 182 144 C178.01 165.7, 166.69 174.91, 150 176 C113.18 178.98, 88.62 177.3, 32 176 C10.02 178.75, 0.63 168.12, 0 144 C-3.63 123.36, 5.91 99.26, 0 32 C-0.91 13.12, 12.47 2.46, 32 0" stroke="none" stroke-width="0" fill="#b2f2bb"></path><path d="M32 0 C60.02 -1.28, 86.49 3.34, 150 0 M32 0 C74.12 -2.76, 120.76 -1.68, 150 0 M150 0 C171.14 1.01, 184.37 9.19, 182 32 M150 0 C172.95 3.83, 179.85 13.04, 182 32 M182 32 C186.05 60.75, 181.01 94.16, 182 144 M182 32 C181.52 77.5, 182.89 119.95, 182 144 M182 144 C180.26 161.94, 173.29 175.38, 150 176 M182 144 C181.47 169.25, 167.49 174.94, 150 176 M150 176 C120.54 179.75, 84.53 177.22, 32 176 M150 176 C116.14 179.5, 83.36 179.19, 32 176 M32 176 C8.98 173.22, 2.84 168.27, 0 144 M32 176 C14.86 174.79, 4.21 165.95, 0 144 M0 144 C5.47 120.01, 5.75 91.78, 0 32 M0 144 C0.17 111.09, -3.04 80.09, 0 32 M0 32 C-1.5 11.54, 9.04 -0.93, 32 0 M0 32 C-0.56 10.75, 9.54 -3.24, 32 0" stroke="#1e1e1e" stroke-width="4" fill="none"></path></g><g transform="translate(188.99881809587032 1166.4166666666679) rotate(0 76.25797271728516 35)"><text x="76.25797271728516" y="24.528" font-family="Virgil, Segoe UI Emoji" font-size="28px" fill="#1e1e1e" text-anchor="middle" style="white-space: pre;" direction="ltr" dominant-baseline="alphabetic">App 1</text><text x="76.25797271728516" y="59.528" font-family="Virgil, Segoe UI Emoji" font-size="28px" fill="#1e1e1e" text-anchor="middle" style="white-space: pre;" direction="ltr" dominant-baseline="alphabetic">Instance N</text></g><g stroke-linecap="round"><g transform="translate(12.718897084913351 1160.065148132544) rotate(0 67.86247654091562 0.7634299698853511)"><path d="M1.32 1.99 C24.49 2.4, 114.83 2.99, 137.14 2.51 M-1.41 0.61 C21.53 0.28, 111.01 -1.33, 134.7 -1.15" stroke="#1e1e1e" stroke-width="4" fill="none"></path></g><g transform="translate(12.718897084913351 1160.065148132544) rotate(0 67.86247654091562 0.7634299698853511)"><path d="M112.69 7.3 C118.48 3.76, 121.47 4.59, 135.14 -1.24 M111.62 8.39 C118.37 5.33, 126.35 2.02, 135.27 -0.15" stroke="#1e1e1e" stroke-width="4" fill="none"></path></g><g transform="translate(12.718897084913351 1160.065148132544) rotate(0 67.86247654091562 0.7634299698853511)"><path d="M112.58 -9.8 C118.39 -9.38, 121.41 -4.59, 135.14 -1.24 M111.5 -8.71 C118.4 -6.21, 126.41 -3.95, 135.27 -0.15" stroke="#1e1e1e" stroke-width="4" fill="none"></path></g></g><mask></mask><g transform="translate(189.4809914962666 1070.5416666666642) rotate(0 53.199981689453125 35)"><text x="0" y="24.528" font-family="Virgil, Segoe UI Emoji" font-size="28px" fill="#1971c2" text-anchor="start" style="white-space: pre;" direction="ltr" dominant-baseline="alphabetic">Docker </text><text x="0" y="59.528" font-family="Virgil, Segoe UI Emoji" font-size="28px" fill="#1971c2" text-anchor="start" style="white-space: pre;" direction="ltr" dominant-baseline="alphabetic">(K8s)</text></g><g stroke-linecap="round" transform="translate(77.910282950485 616.6666666666665) rotate(0 842.7083333333335 46.166666666666785)"><path d="M23.08 0 C599.03 11.81, 1177.17 9.44, 1662.33 0 C1678.71 0.32, 1686.69 3.7, 1685.42 23.08 C1683.31 35.2, 1680.71 47.78, 1685.42 69.25 C1690.54 89.69, 1681.16 91.68, 1662.33 92.33 C1088.11 100.25, 519.47 99.33, 23.08 92.33 C10.95 96.55, 3.06 83.73, 0 69.25 C4.87 57.02, 0.31 35.39, 0 23.08 C-0.2 7.12, 2.97 2.92, 23.08 0" stroke="none" stroke-width="0" fill="#b2f2bb"></path><path d="M23.08 0 C493.1 11.93, 964.5 10.91, 1662.33 0 M23.08 0 C556.67 5.52, 1089.32 5.27, 1662.33 0 M1662.33 0 C1677.27 0.15, 1687.69 11.66, 1685.42 23.08 M1662.33 0 C1673.6 -1.24, 1682.52 11.88, 1685.42 23.08 M1685.42 23.08 C1688.85 38.8, 1686.18 54.19, 1685.42 69.25 M1685.42 23.08 C1685.64 34.72, 1684.2 42.49, 1685.42 69.25 M1685.42 69.25 C1684.75 87.61, 1679.59 96.31, 1662.33 92.33 M1685.42 69.25 C1688.47 86.26, 1677.87 91.35, 1662.33 92.33 M1662.33 92.33 C1148.05 85.24, 632.49 85.27, 23.08 92.33 M1662.33 92.33 C1285.09 101.75, 907.12 102.07, 23.08 92.33 M23.08 92.33 C4.54 88.9, 0.01 88.19, 0 69.25 M23.08 92.33 C8.57 96.74, -3.11 84.27, 0 69.25 M0 69.25 C-0.28 49.23, 3.12 34.68, 0 23.08 M0 69.25 C0.13 54.42, -0.11 38.12, 0 23.08 M0 23.08 C3.64 4.34, 9.32 3.75, 23.08 0 M0 23.08 C2.97 4.24, 9.31 2.49, 23.08 0" stroke="#1e1e1e" stroke-width="4" fill="none"></path></g><g transform="translate(687.5606939205372 645.3333333333333) rotate(0 233.05792236328125 17.5)"><text x="233.05792236328125" y="24.528" font-family="Virgil, Segoe UI Emoji" font-size="28px" fill="#1e1e1e" text-anchor="middle" style="white-space: pre;" direction="ltr" dominant-baseline="alphabetic">Metrics collector, e.g. Prometheus</text></g><g stroke-linecap="round" transform="translate(751.4333297179533 971.229166666667) rotate(0 184.58333333333348 169.58333333333323)"><path d="M32 0 C142.2 1.93, 249.86 1.23, 337.17 0 M32 0 C148.78 -2.22, 266.7 -0.84, 337.17 0 M337.17 0 C354.91 -1.08, 366.65 14.3, 369.17 32 M337.17 0 C361.06 0.02, 365.18 14.6, 369.17 32 M369.17 32 C367.34 111.2, 369.49 187.01, 369.17 307.17 M369.17 32 C365.35 139.11, 366.32 245.46, 369.17 307.17 M369.17 307.17 C371.82 329.91, 358.63 338.31, 337.17 339.17 M369.17 307.17 C369.83 332.81, 356.26 342.14, 337.17 339.17 M337.17 339.17 C257.05 339.36, 183.09 339.94, 32 339.17 M337.17 339.17 C252.51 338.52, 170.15 341.05, 32 339.17 M32 339.17 C11.43 343, -2.71 328.18, 0 307.17 M32 339.17 C13.34 338.51, 3.39 328.03, 0 307.17 M0 307.17 C-2.51 247.34, -3.9 189.66, 0 32 M0 307.17 C2.45 222.82, 1.67 142.53, 0 32 M0 32 C2.58 7.67, 12.07 2.17, 32 0 M0 32 C2.41 13.52, 7.99 -3.76, 32 0" stroke="#1971c2" stroke-width="4" fill="none"></path></g><g transform="translate(756.4333297179533 976.229166666667) rotate(0 17.961997985839844 17.5)"><text x="0" y="24.528" font-family="Virgil, Segoe UI Emoji" font-size="28px" fill="#1971c2" text-anchor="start" style="white-space: pre;" direction="ltr" dominant-baseline="alphabetic">VM</text></g><g stroke-linecap="round" transform="translate(861.6257957015082 1070.6875000000027) rotate(0 91 88)"><path d="M32 0 C68.45 -2.28, 103.07 1.32, 150 0 C169.3 -3.63, 178.39 15.79, 182 32 C186.68 76.33, 186.71 114.55, 182 144 C178.97 169.56, 166.01 179.26, 150 176 C108.17 177.26, 63.9 180.74, 32 176 C14.31 176.72, -2.11 165.13, 0 144 C-2.88 114.87, 4.88 77.91, 0 32 C-1.58 10.03, 9.94 -3.85, 32 0" stroke="none" stroke-width="0" fill="#b2f2bb"></path><path d="M32 0 C77.73 -2.69, 118.87 -1.28, 150 0 M32 0 C66.06 -2.88, 102.44 -0.52, 150 0 M150 0 C173.56 0.02, 178.54 14.09, 182 32 M150 0 C170.52 0.87, 180 6.76, 182 32 M182 32 C185.05 67.75, 180.73 109.52, 182 144 M182 32 C184.37 74.63, 183.11 115.42, 182 144 M182 144 C182.57 169.08, 169.39 178.58, 150 176 M182 144 C179.97 167.58, 169.39 172.81, 150 176 M150 176 C105.15 181.81, 62.96 174.99, 32 176 M150 176 C125.11 180.01, 98.11 177.93, 32 176 M32 176 C12.99 175.43, 2.95 164.92, 0 144 M32 176 C6.66 179.44, -1.73 166.34, 0 144 M0 144 C0.59 113.97, -2.3 89.53, 0 32 M0 144 C0.38 118.3, -0.21 96.68, 0 32 M0 32 C2.1 13.15, 8.34 -3.27, 32 0 M0 32 C2.32 7.65, 8.11 0.81, 32 0" stroke="#1e1e1e" stroke-width="4" fill="none"></path></g><g transform="translate(876.367822984223 1171.6875000000027) rotate(0 76.25797271728516 35)"><text x="76.25797271728516" y="24.528" font-family="Virgil, Segoe UI Emoji" font-size="28px" fill="#1e1e1e" text-anchor="middle" style="white-space: pre;" direction="ltr" dominant-baseline="alphabetic">App 1</text><text x="76.25797271728516" y="59.528" font-family="Virgil, Segoe UI Emoji" font-size="28px" fill="#1e1e1e" text-anchor="middle" style="white-space: pre;" direction="ltr" dominant-baseline="alphabetic">Instance N</text></g><g stroke-linecap="round"><g transform="translate(376.75456863993213 1157.0743599122238) rotate(0 222.57926966797572 -0.2700934128325514)"><path d="M-0.31 0.11 C74.75 0.2, 374.87 2.28, 449.09 2.01 M-3.93 -2.3 C71.02 -3.05, 371.98 -2.08, 447.71 -1.5" stroke="#1e1e1e" stroke-width="4" fill="none"></path></g><g transform="translate(376.75456863993213 1157.0743599122238) rotate(0 222.57926966797572 -0.2700934128325514)"><path d="M424.26 8.07 C432.08 3.04, 435.52 1.43, 449.53 -0.38 M424 7.13 C430.89 3.35, 438.89 1.51, 447.6 -0.64" stroke="#1e1e1e" stroke-width="4" fill="none"></path></g><g transform="translate(376.75456863993213 1157.0743599122238) rotate(0 222.57926966797572 -0.2700934128325514)"><path d="M424.34 -9.03 C432.23 -9.73, 435.65 -7, 449.53 -0.38 M424.09 -9.97 C430.8 -8.61, 438.77 -5.31, 447.6 -0.64" stroke="#1e1e1e" stroke-width="4" fill="none"></path></g></g><mask></mask><g transform="translate(876.8499963846193 1075.812499999999) rotate(0 53.199981689453125 35)"><text x="0" y="24.528" font-family="Virgil, Segoe UI Emoji" font-size="28px" fill="#1971c2" text-anchor="start" style="white-space: pre;" direction="ltr" dominant-baseline="alphabetic">Docker </text><text x="0" y="59.528" font-family="Virgil, Segoe UI Emoji" font-size="28px" fill="#1971c2" text-anchor="start" style="white-space: pre;" direction="ltr" dominant-baseline="alphabetic">(K8s)</text></g><g stroke-linecap="round" transform="translate(1451.4333297179523 979.979166666667) rotate(0 192.08333333333348 167.0833333333333)"><path d="M32 0 C145.47 2.26, 262.98 5.58, 352.17 0 M32 0 C127.97 -3.57, 223.83 -5.02, 352.17 0 M352.17 0 C375.46 -0.62, 383.71 14.07, 384.17 32 M352.17 0 C369.66 -1.06, 383.4 14.09, 384.17 32 M384.17 32 C389.48 125.73, 387.71 219.71, 384.17 302.17 M384.17 32 C381.42 139.12, 381.45 243.63, 384.17 302.17 M384.17 302.17 C387.01 326.44, 377.15 333.11, 352.17 334.17 M384.17 302.17 C388.38 324.12, 369.87 330.22, 352.17 334.17 M352.17 334.17 C258.69 333.12, 159.63 336.64, 32 334.17 M352.17 334.17 C259.47 334.75, 168.69 334.02, 32 334.17 M32 334.17 C9.04 333.24, -0.48 323.57, 0 302.17 M32 334.17 C9.54 330.93, 4.19 319.64, 0 302.17 M0 302.17 C-6.32 211.27, -2.27 119.8, 0 32 M0 302.17 C3.25 203.31, 1.59 106.79, 0 32 M0 32 C0.23 11.57, 7.81 0.26, 32 0 M0 32 C-3.81 9.77, 9.81 -1.67, 32 0" stroke="#1971c2" stroke-width="4" fill="none"></path></g><g transform="translate(1456.4333297179523 984.979166666667) rotate(0 17.961997985839844 17.5)"><text x="0" y="24.528" font-family="Virgil, Segoe UI Emoji" font-size="28px" fill="#1971c2" text-anchor="start" style="white-space: pre;" direction="ltr" dominant-baseline="alphabetic">VM</text></g><g stroke-linecap="round" transform="translate(1561.6257957015073 1079.4375000000027) rotate(0 91 88)"><path d="M32 0 C75.28 1.16, 112.45 -4.65, 150 0 C175.56 -5.32, 185.26 14.88, 182 32 C183.29 74.18, 186.77 115.07, 182 144 C182.72 163.23, 171.13 175.42, 150 176 C127.87 174.98, 97.9 171.16, 32 176 C10.03 175.27, -3.85 166.59, 0 144 C2.35 105.99, 4.72 66.94, 0 32 C-1.14 15.45, 10.61 -0.7, 32 0" stroke="none" stroke-width="0" fill="#b2f2bb"></path><path d="M32 0 C59.99 -4.78, 91.37 -2.02, 150 0 M32 0 C70.61 1.69, 107.02 3.7, 150 0 M150 0 C167.99 -0.92, 181.34 13.64, 182 32 M150 0 C173.48 4.57, 185.05 12.29, 182 32 M182 32 C185.27 64, 184.1 98.14, 182 144 M182 32 C182.48 72.54, 182.88 109.61, 182 144 M182 144 C185.66 165.87, 168.17 172.56, 150 176 M182 144 C182.02 169.41, 172.21 180.4, 150 176 M150 176 C122.02 180.32, 94.77 173.88, 32 176 M150 176 C104.97 176.05, 61.33 176.55, 32 176 M32 176 C9.69 173.18, 3.64 161.98, 0 144 M32 176 C12.53 180.32, 2.97 161.88, 0 144 M0 144 C1.27 104.14, -4.48 70.94, 0 32 M0 144 C1.36 118.19, -0.18 91.6, 0 32 M0 32 C-3.31 9.89, 9.93 -1.46, 32 0 M0 32 C-2.99 7.7, 14.88 4.15, 32 0" stroke="#1e1e1e" stroke-width="4" fill="none"></path></g><g transform="translate(1576.3678229842221 1180.4375000000027) rotate(0 76.25797271728516 35)"><text x="76.25797271728516" y="24.528" font-family="Virgil, Segoe UI Emoji" font-size="28px" fill="#1e1e1e" text-anchor="middle" style="white-space: pre;" direction="ltr" dominant-baseline="alphabetic">App 1</text><text x="76.25797271728516" y="59.528" font-family="Virgil, Segoe UI Emoji" font-size="28px" fill="#1e1e1e" text-anchor="middle" style="white-space: pre;" direction="ltr" dominant-baseline="alphabetic">Instance N</text></g><g stroke-linecap="round"><g transform="translate(1066.7545686399321 1178.8377584918262) rotate(0 232.70332709363345 -3.132241284405552)"><path d="M-0.5 0.53 C78.18 -1, 390.83 -5.9, 469.62 -6.79 M-4.21 -1.65 C74.2 -1.69, 387.49 -4.4, 466.72 -4.45" stroke="#1e1e1e" stroke-width="4" fill="none"></path></g><g transform="translate(1066.7545686399321 1178.8377584918262) rotate(0 232.70332709363345 -3.132241284405552)"><path d="M443.65 3.35 C446.5 3.39, 452.89 0.33, 468.42 -6.12 M443.73 5.21 C450.44 1.99, 456.3 -0.97, 466.86 -3.52" stroke="#1e1e1e" stroke-width="4" fill="none"></path></g><g transform="translate(1066.7545686399321 1178.8377584918262) rotate(0 232.70332709363345 -3.132241284405552)"><path d="M443.56 -13.75 C446.58 -10.06, 452.99 -9.47, 468.42 -6.12 M443.65 -11.89 C450.35 -10.37, 456.23 -8.6, 466.86 -3.52" stroke="#1e1e1e" stroke-width="4" fill="none"></path></g></g><mask></mask><g transform="translate(1576.8499963846184 1084.562499999999) rotate(0 53.199981689453125 35)"><text x="0" y="24.528" font-family="Virgil, Segoe UI Emoji" font-size="28px" fill="#1971c2" text-anchor="start" style="white-space: pre;" direction="ltr" dominant-baseline="alphabetic">Docker </text><text x="0" y="59.528" font-family="Virgil, Segoe UI Emoji" font-size="28px" fill="#1971c2" text-anchor="start" style="white-space: pre;" direction="ltr" dominant-baseline="alphabetic">(K8s)</text></g><g stroke-linecap="round" transform="translate(82.910282950485 310) rotate(0 769.3750000000002 55.1250000000002)"><path d="M27.56 0 C332.82 -12.87, 636.61 -11.79, 1511.19 0 C1532.03 5.28, 1542.39 9.91, 1538.75 27.56 C1533.97 44.94, 1533.17 59.81, 1538.75 82.69 C1540.99 99.87, 1527.99 109.61, 1511.19 110.25 C1086.89 113.08, 657.89 114.42, 27.56 110.25 C12.17 113.69, 4.93 99.92, 0 82.69 C4.09 59.83, -1.13 34.79, 0 27.56 C-4.51 14.39, 9.85 -3.2, 27.56 0" stroke="none" stroke-width="0" fill="#b2f2bb"></path><path d="M27.56 0 C407.88 -6, 790.05 -7.16, 1511.19 0 M27.56 0 C438.75 -8.03, 849.73 -8.54, 1511.19 0 M1511.19 0 C1529.69 -0.85, 1539.32 12.93, 1538.75 27.56 M1511.19 0 C1527.32 2.97, 1536.72 11.43, 1538.75 27.56 M1538.75 27.56 C1540.92 45.42, 1536.93 59.65, 1538.75 82.69 M1538.75 27.56 C1537.89 46.62, 1538.26 64.04, 1538.75 82.69 M1538.75 82.69 C1536.04 100.74, 1531.89 109.68, 1511.19 110.25 M1538.75 82.69 C1542.14 100.59, 1525.55 113.69, 1511.19 110.25 M1511.19 110.25 C1121.48 105.24, 732.55 105.05, 27.56 110.25 M1511.19 110.25 C1170.95 101.04, 830.59 99.69, 27.56 110.25 M27.56 110.25 C10.59 112.42, 2.1 103.55, 0 82.69 M27.56 110.25 C6.51 106.49, 2.32 98.05, 0 82.69 M0 82.69 C0.71 66.36, 0.07 52.42, 0 27.56 M0 82.69 C-1.09 65.93, 2.04 53.56, 0 27.56 M0 27.56 C2.46 8.72, 11.15 0.45, 27.56 0 M0 27.56 C2.29 5.2, 6.7 3.47, 27.56 0" stroke="#1e1e1e" stroke-width="4" fill="none"></path></g><g transform="translate(663.0613754797819 347.62500000000017) rotate(0 189.22390747070312 17.5)"><text x="189.22390747070312" y="24.528" font-family="Virgil, Segoe UI Emoji" font-size="28px" fill="#1e1e1e" text-anchor="middle" style="white-space: pre;" direction="ltr" dominant-baseline="alphabetic">Data processing, e.g. Spark</text></g><g stroke-linecap="round" transform="translate(85.410282950485 10) rotate(0 766.8750000000002 52.00000000000006)"><path d="M26 0 C447.41 -3.22, 868.32 -5.04, 1507.75 0 C1522.98 -0.2, 1533.17 3.95, 1533.75 26 C1534.55 43.11, 1530.74 61.98, 1533.75 78 C1533.02 91.48, 1526.34 107.7, 1507.75 104 C1124.6 108.57, 741.04 106.74, 26 104 C13.45 103.95, -0.7 99.41, 0 78 C-4.21 69.09, 0.96 46.58, 0 26 C5.14 3.38, 9.04 -3.66, 26 0" stroke="none" stroke-width="0" fill="#b2f2bb"></path><path d="M26 0 C453.21 9.64, 882.34 10.65, 1507.75 0 M26 0 C617.91 -4.35, 1209.88 -3.43, 1507.75 0 M1507.75 0 C1523.14 2.58, 1531.99 10.62, 1533.75 26 M1507.75 0 C1523.14 -3.19, 1537.02 12.04, 1533.75 26 M1533.75 26 C1534.02 43.18, 1530.04 66.69, 1533.75 78 M1533.75 26 C1532.59 46.05, 1535.11 66.14, 1533.75 78 M1533.75 78 C1536.7 94.92, 1521.6 106.99, 1507.75 104 M1533.75 78 C1532.02 96.34, 1523.22 102.93, 1507.75 104 M1507.75 104 C1080.05 102.56, 653.26 101.75, 26 104 M1507.75 104 C924.42 95.54, 340.94 95.6, 26 104 M26 104 C6.34 100.73, 2.02 92.71, 0 78 M26 104 C6.11 104.81, 0.26 96.38, 0 78 M0 78 C-0.85 65.37, -1.52 51.62, 0 26 M0 78 C0.28 65.52, 0.03 53.73, 0 26 M0 26 C1.99 5.2, 6.5 3.02, 26 0 M0 26 C-4.37 11.34, 12.13 2.51, 26 0" stroke="#1e1e1e" stroke-width="4" fill="none"></path></g><g transform="translate(802.5153091956022 44.5) rotate(0 49.76997375488281 17.5)"><text x="49.76997375488281" y="24.528" font-family="Virgil, Segoe UI Emoji" font-size="28px" fill="#1e1e1e" text-anchor="middle" style="white-space: pre;" direction="ltr" dominant-baseline="alphabetic">Monitor</text></g><g stroke-linecap="round" transform="translate(841.493616283818 484.9166666666665) rotate(0 65.99999999999989 42.5)"><path d="M15.94 16.51 C15.94 16.51, 15.94 16.51, 15.94 16.51 M15.94 16.51 C15.94 16.51, 15.94 16.51, 15.94 16.51 M4.67 50.86 C17.23 38.16, 30.39 20.38, 47.09 5.76 M5.38 54.4 C22.42 32.23, 38.01 15.15, 47.77 3.27 M16.26 68.22 C36.73 46.54, 58.75 18.92, 69.43 1.89 M12.53 68.12 C32.75 47.12, 47.73 28.52, 70.67 0.66 M22.82 78.96 C47.62 57.55, 69.53 30.67, 92.98 4.94 M25.52 76.26 C41.54 59.37, 61.68 35.33, 91.4 3.09 M44.78 85.68 C61.02 62.44, 82.98 38.91, 103.39 11.79 M43 81.61 C63.46 55.16, 87.58 31.26, 106.77 10.74 M57.62 82.89 C73.79 69.92, 83.52 62.01, 118.93 18.75 M62.76 87.1 C81.84 61.79, 103.86 38.82, 118.77 18.07 M84.88 86.94 C101.43 65.88, 117.73 50.52, 126.39 34.17 M85.73 85.82 C93.33 73.27, 103.03 61.47, 131.39 32.41" stroke="#b2f2bb" stroke-width="2" fill="none"></path><path d="M106.22 9.3 C115.23 12.79, 124.67 19.24, 129.07 25.61 C133.48 31.98, 134.33 40.5, 132.65 47.54 C130.96 54.58, 126.2 61.86, 118.98 67.83 C111.76 73.79, 99.44 80.23, 89.33 83.33 C79.21 86.43, 69.02 87.33, 58.27 86.41 C47.52 85.49, 33.7 82.75, 24.83 77.82 C15.96 72.89, 9.39 63.71, 5.07 56.83 C0.75 49.96, -2.86 43.27, -1.07 36.59 C0.71 29.9, 8.39 22.52, 15.77 16.71 C23.15 10.9, 33.32 4.26, 43.2 1.74 C53.08 -0.78, 60.29 -5.25, 75.04 1.58 C89.78 8.4, 126.08 30.95, 131.68 42.68 C137.28 54.41, 109.44 72.31, 108.64 71.96" stroke="#1e1e1e" stroke-width="4.5" fill="none" stroke-dasharray="8 12"></path></g><g transform="translate(871.6046056517753 514.8646284662382) rotate(0 35.71996307373047 12.5)"><text x="35.71996307373047" y="17.52" font-family="Virgil, Segoe UI Emoji" font-size="20px" fill="#1e1e1e" text-anchor="middle" style="white-space: pre;" direction="ltr" dominant-baseline="alphabetic">Metrics</text></g><g stroke-linecap="round"><g transform="translate(436.4742371184143 613.4304130975152) rotate(0 -1.2612478202622697 -88.53768477390133)"><path d="M0.09 -0.6 C-0.08 -29.58, 1.04 -144.04, 0.87 -172.89 M-3.31 -3.39 C-3.98 -33.18, -1.13 -147.33, -1.15 -176.48" stroke="#e03131" stroke-width="4" fill="none"></path></g><g transform="translate(436.4742371184143 613.4304130975152) rotate(0 -1.2612478202622697 -88.53768477390133)"><path d="M6.67 -152.59 C5.87 -162.49, 2.26 -171.05, -0.17 -177.32 M8.01 -153.14 C5.94 -158.12, 2.34 -164.56, -1.14 -175.59" stroke="#e03131" stroke-width="4" fill="none"></path></g><g transform="translate(436.4742371184143 613.4304130975152) rotate(0 -1.2612478202622697 -88.53768477390133)"><path d="M-10.43 -152.81 C-4.97 -162.64, -2.31 -171.11, -0.17 -177.32 M-9.09 -153.36 C-7.21 -158.42, -6.88 -164.8, -1.14 -175.59" stroke="#e03131" stroke-width="4" fill="none"></path></g></g><mask></mask><g stroke-linecap="round" transform="translate(234.410282950485 139.5) rotate(0 177.24999999999977 31.125)"><path d="M-1.39 31.92 C-1.39 31.92, -1.39 31.92, -1.39 31.92 M-1.39 31.92 C-1.39 31.92, -1.39 31.92, -1.39 31.92 M14.33 43.92 C19.43 34.2, 24.65 29.64, 36.72 18.26 M11.93 40.7 C18.63 32.48, 26.72 22.98, 35.76 14.07 M25.26 47.78 C39.66 35.08, 42.83 27.22, 62.94 11.6 M27.99 46.62 C42.35 31.1, 53.21 15.11, 59.2 11 M41.56 51.6 C55.94 36.54, 72.78 24.44, 83.31 6.95 M46.51 52.28 C58.84 39.81, 68.65 23.54, 85.51 3.42 M66.58 50.58 C82.84 33.88, 93.74 12.25, 109.8 0.12 M63.75 55.62 C76.08 39.13, 88.88 27.35, 108.34 2.22 M81.03 58.09 C101.06 37.27, 113.2 25.28, 132.72 1.44 M84.76 54.74 C100.25 38.68, 119.2 18.75, 129.53 3.34 M105 57.58 C112.21 45.41, 122.68 27.92, 148.13 -0.8 M102.27 57.8 C117.09 46.12, 126.69 31.86, 153.47 3.21 M120.61 61.68 C136.53 44.45, 151.95 34.46, 173.9 5.25 M122.39 58.17 C139.94 38.28, 158.42 18.63, 172.06 2.46 M139.48 59.09 C167.18 37.87, 187.3 14.97, 193.06 5.9 M144.9 59.44 C163.09 38.63, 184.53 16.68, 195.03 0.83 M164.7 58.45 C175.84 47.86, 188.92 32.64, 218.48 -1.25 M164.25 59.3 C181.18 41.49, 200.73 21.2, 215.58 4.12 M187.57 57.74 C199.54 38.64, 220.17 17.93, 233 3.37 M187.19 61.03 C197.59 44.95, 210.47 31.79, 233.37 2.91 M206.33 63.34 C223.17 41.3, 242.59 17.55, 257.37 6.38 M206.43 60.63 C227.16 40.48, 244.42 17.79, 255.48 3.68 M230.8 59.47 C243.18 40.14, 266.03 18.8, 275.01 3.34 M226.26 62.3 C240.34 44.64, 251.69 32.46, 276.05 6.79 M251.81 60.79 C263.94 49.34, 270.97 30.35, 294.72 5.89 M250.87 59.1 C258.95 47.03, 271 36.01, 295.96 7.67 M271.89 55.52 C287.18 44.52, 299.71 21.36, 311.38 7.08 M272.01 58.17 C279.51 51.55, 289.07 40.57, 314.47 10.25 M296.63 52.32 C304.4 39.82, 316.72 25.94, 326.7 14.84 M295.28 55.61 C305.89 43.4, 313.8 30.71, 330.86 14.41 M324.77 48.16 C327.64 40.96, 339.34 27.76, 347.14 19.23 M323.15 46.5 C333.15 40.24, 336.94 32.02, 345.35 23.36" stroke="#b2f2bb" stroke-width="2" fill="none"></path><path d="M95.27 2.78 C110.49 1.15, 131.39 1.76, 151.49 1.72 C171.58 1.67, 195.96 1.7, 215.86 2.51 C235.76 3.33, 253.98 5.27, 270.9 6.59 C287.82 7.91, 305.16 7.93, 317.38 10.42 C329.59 12.92, 337.73 17.86, 344.2 21.56 C350.66 25.27, 356.29 29.32, 356.16 32.64 C356.02 35.96, 351.32 38.06, 343.4 41.48 C335.47 44.9, 322.53 50.05, 308.61 53.15 C294.7 56.26, 277.78 58.93, 259.92 60.11 C242.05 61.28, 221.14 60.09, 201.42 60.21 C181.7 60.33, 161.26 61.4, 141.6 60.81 C121.95 60.22, 100.96 58.48, 83.51 56.68 C66.07 54.88, 49.41 52.75, 36.93 50 C24.45 47.26, 14.99 43.24, 8.62 40.21 C2.25 37.17, -1.74 35.14, -1.29 31.81 C-0.84 28.48, 3.19 23.6, 11.34 20.23 C19.49 16.85, 19.72 14.8, 47.6 11.55 C75.49 8.3, 142.49 1.68, 178.66 0.71 C214.83 -0.27, 264.22 5.49, 264.63 5.7" stroke="#1e1e1e" stroke-width="4.5" fill="none" stroke-dasharray="8 12"></path></g><g transform="translate(293.04571401739577 158.11630143556874) rotate(0 118.77989196777344 12.5)"><text x="118.77989196777344" y="17.52" font-family="Virgil, Segoe UI Emoji" font-size="20px" fill="#1e1e1e" text-anchor="middle" style="white-space: pre;" direction="ltr" dominant-baseline="alphabetic">Energy per request type</text></g><g stroke-linecap="round"><g transform="translate(742.015142031531 298.0144039515035) rotate(0 -0.9081278120427214 -83.91328063271942)"><path d="M-1.23 1.37 C-1.38 -27.13, -2.59 -141.43, -2.23 -169.19 M3.29 -0.36 C2.79 -28.72, -4.6 -138.41, -5.11 -166.62" stroke="#e03131" stroke-width="4" fill="none"></path></g><g transform="translate(742.015142031531 298.0144039515035) rotate(0 -0.9081278120427214 -83.91328063271942)"><path d="M5.47 -144.38 C0.55 -147.96, 0.99 -153.36, -5.63 -164.79 M4.5 -142.65 C1.86 -149.9, -2.02 -158.17, -4.53 -166.76" stroke="#e03131" stroke-width="4" fill="none"></path></g><g transform="translate(742.015142031531 298.0144039515035) rotate(0 -0.9081278120427214 -83.91328063271942)"><path d="M-11.61 -143.61 C-12.25 -147.3, -7.51 -152.9, -5.63 -164.79 M-12.58 -141.88 C-9.86 -149.22, -8.39 -157.74, -4.53 -166.76" stroke="#e03131" stroke-width="4" fill="none"></path></g></g><mask></mask><g stroke-linecap="round" transform="translate(383.160282950485 204) rotate(0 142.24999999999977 45.5)"><path d="M11.48 28.53 C11.48 28.53, 11.48 28.53, 11.48 28.53 M11.48 28.53 C11.48 28.53, 11.48 28.53, 11.48 28.53 M8.25 59.94 C22.54 45.56, 38.15 25.31, 44.36 13.22 M4.52 59.84 C19.47 44.69, 29.51 31.77, 45.6 11.99 M17.44 67.65 C38.2 51.01, 55.88 29, 74.48 8.73 M20.13 64.95 C32.6 52.33, 48.97 32.62, 72.89 6.88 M36.77 77.4 C52.16 55.08, 73.32 32.48, 92.76 6.52 M34.99 73.32 C54.6 47.96, 77.81 25.11, 96.13 5.48 M48.95 75.36 C66.65 60.55, 78.02 50.77, 118.13 2.16 M54.1 79.56 C75.99 51.04, 100.9 24.76, 117.97 1.48 M70.31 86.2 C95.08 55.43, 120.08 30.05, 137.41 4 M71.16 85.08 C84.24 65.87, 99.39 47.8, 142.41 2.24 M84.75 83.89 C105.62 60.09, 126.93 36.37, 160.14 1.88 M87.41 86.94 C107.73 65.14, 123.62 40.64, 160.59 1.51 M111.86 90.34 C133.86 63.13, 160.5 30.61, 178.49 3.67 M106.67 88.57 C123.56 71.87, 141.13 53.16, 179.65 2.08 M131.61 88.77 C144.45 71.89, 167.45 45.44, 200.1 9.68 M129.02 91.25 C146.33 68.21, 160.99 52.38, 202.47 6.26 M147.68 93.6 C169.29 65.94, 185.01 51.16, 216.74 9.56 M149.01 91.97 C165.82 72.91, 182.13 53.59, 217.26 10.77 M168.92 88.06 C183.09 74.5, 198.05 59.77, 239.61 16.63 M170.1 91.18 C187.96 66.76, 212.98 41.01, 235.89 13.22 M189.23 88.8 C218.53 63.3, 242.24 35.03, 252.2 17.8 M191.46 89.41 C210.66 65.04, 229.93 44.1, 251.53 20.04 M217.87 83.84 C231.96 65.73, 244.99 55.14, 272.18 20.9 M215.22 87.3 C237.86 62.32, 256.36 37.15, 267.65 25.89 M243.19 72.07 C255.85 61.29, 264.2 53.65, 276.95 40.37 M245.12 77.19 C255.48 66.57, 263.38 58.41, 280.38 37.4" stroke="#b2f2bb" stroke-width="2" fill="none"></path><path d="M234.57 12.86 C248.14 15.15, 260.17 17.98, 268.03 22.51 C275.89 27.04, 279.44 34.27, 281.75 40.04 C284.06 45.81, 285.5 52.02, 281.88 57.1 C278.26 62.18, 270.3 65.94, 260.04 70.54 C249.78 75.13, 235.01 81.17, 220.33 84.66 C205.66 88.14, 188.76 90.77, 172.01 91.45 C155.26 92.12, 136.46 89.93, 119.84 88.7 C103.21 87.47, 86.98 86.69, 72.28 84.09 C57.58 81.49, 42.65 77.31, 31.62 73.12 C20.59 68.92, 11.33 64.1, 6.11 58.93 C0.9 53.76, -0.61 47.21, 0.33 42.08 C1.27 36.96, 4.86 32.94, 11.78 28.19 C18.69 23.44, 28.95 17.45, 41.83 13.56 C54.71 9.67, 73.22 6.98, 89.04 4.84 C104.87 2.7, 119.77 0.91, 136.76 0.72 C153.75 0.53, 172.73 1.65, 190.98 3.68 C209.23 5.7, 236.4 10.34, 246.26 12.87 C256.11 15.41, 252.25 18.38, 250.11 18.91" stroke="#1e1e1e" stroke-width="4.5" fill="none" stroke-dasharray="8 12"></path></g><g transform="translate(437.3444162637102 224.3266414560121) rotate(0 87.97992706298828 25)"><text x="87.97992706298828" y="17.52" font-family="Virgil, Segoe UI Emoji" font-size="20px" fill="#1e1e1e" text-anchor="middle" style="white-space: pre;" direction="ltr" dominant-baseline="alphabetic">CO2 per request </text><text x="87.97992706298828" y="42.519999999999996" font-family="Virgil, Segoe UI Emoji" font-size="20px" fill="#1e1e1e" text-anchor="middle" style="white-space: pre;" direction="ltr" dominant-baseline="alphabetic">type</text></g><g stroke-linecap="round" transform="translate(124.71211239638842 821.239583333333) rotate(0 65.99999999999977 42.5)"><path d="M4.32 26.28 C4.32 26.28, 4.32 26.28, 4.32 26.28 M4.32 26.28 C4.32 26.28, 4.32 26.28, 4.32 26.28 M7.61 46.56 C18.07 41.56, 28.48 25.76, 36.52 16.93 M4.85 49.61 C14.24 37.82, 23.01 27.13, 32.79 16.83 M13.58 63.36 C28.03 46.06, 49.93 24.55, 59.48 8.8 M13.63 65.59 C30.48 43.04, 49.11 23, 62.18 6.1 M22.51 79.56 C32.46 61.44, 46.29 47.14, 84.07 12.5 M25.47 74.14 C38.59 61.47, 52.71 46.6, 82.28 8.43 M42.24 80.85 C61.06 57.83, 76.95 41.74, 96.9 9.71 M43.06 80.75 C61.72 60.34, 82.28 35.16, 102.05 13.92 M61.97 82.34 C74.97 66.35, 97.1 43.29, 118.26 20.56 M61.05 82.05 C82.35 57.87, 101.28 37.5, 119.11 19.44 M78.77 90.52 C91.87 73.35, 100.02 61.03, 124.17 28.06 M75.55 87.9 C88.55 76.02, 100.79 65.79, 126.83 31.1 M103.43 77.12 C117.05 66.56, 131.52 49.35, 142.09 45.07 M106.78 77.22 C116.65 64.57, 125.36 53.86, 136.9 43.3" stroke="#b2f2bb" stroke-width="2" fill="none"></path><path d="M116.6 16.6 C123.98 21.89, 131.15 30.49, 133.2 37.29 C135.25 44.08, 133.44 50.69, 128.92 57.37 C124.4 64.05, 115.16 72.56, 106.07 77.35 C96.99 82.14, 85.31 85.66, 74.4 86.1 C63.49 86.55, 50.47 83.11, 40.6 80.04 C30.73 76.96, 21.77 73.12, 15.17 67.66 C8.58 62.2, 2.79 54.22, 1.01 47.28 C-0.76 40.34, 0.4 32.53, 4.53 26.03 C8.67 19.54, 17.24 12.3, 25.8 8.32 C34.37 4.35, 45.29 2.91, 55.91 2.19 C66.53 1.48, 76.85 -1.17, 89.51 4.03 C102.18 9.23, 125.4 25.75, 131.87 33.4 C138.34 41.04, 129.54 49.76, 128.34 49.9" stroke="#1e1e1e" stroke-width="4.5" fill="none" stroke-dasharray="8 12"></path></g><g transform="translate(159.66309047284176 851.1875451329048) rotate(0 30.879974365234375 12.5)"><text x="30.879974365234375" y="17.52" font-family="Virgil, Segoe UI Emoji" font-size="20px" fill="#1e1e1e" text-anchor="middle" style="white-space: pre;" direction="ltr" dominant-baseline="alphabetic">Energy</text></g><g stroke-linecap="round"><g transform="translate(279.7052079992268 936.9581683473039) rotate(0 -0.22749020534570263 -101.31695787032437)"><path d="M-2.21 -2.4 C-2.53 -36.04, 0.07 -168.29, 0.63 -201.43 M1.78 2.46 C0.86 -31.94, -1.25 -170.47, -1.61 -205.1" stroke="#e03131" stroke-width="4" fill="none"></path></g><g transform="translate(279.7052079992268 936.9581683473039) rotate(0 -0.22749020534570263 -101.31695787032437)"><path d="M5.54 -181.71 C5.53 -190.56, 2.2 -201.45, -1.77 -203.93 M6.39 -180.97 C4.18 -188.19, 1.61 -195.32, -1.73 -205.08" stroke="#e03131" stroke-width="4" fill="none"></path></g><g transform="translate(279.7052079992268 936.9581683473039) rotate(0 -0.22749020534570263 -101.31695787032437)"><path d="M-11.56 -181.48 C-4.88 -190.29, -1.51 -201.26, -1.77 -203.93 M-10.71 -180.74 C-8.04 -188.01, -5.72 -195.2, -1.73 -205.08" stroke="#e03131" stroke-width="4" fill="none"></path></g></g><mask></mask><g stroke-linecap="round" transform="translate(848.9536761068853 817.8272944019354) rotate(0 65.99999999999989 42.5)"><path d="M14.62 15.36 C14.62 15.36, 14.62 15.36, 14.62 15.36 M14.62 15.36 C14.62 15.36, 14.62 15.36, 14.62 15.36 M4.18 55.07 C19.89 39, 36.98 17.05, 44.22 3.83 M0.45 54.97 C16.61 38.47, 27.79 24.24, 45.46 2.6 M8.77 68.07 C31.14 49.52, 50.52 25.56, 71.06 3.11 M11.47 65.37 C25.36 51.04, 43.23 29.6, 69.48 1.26 M25.48 80.83 C41.51 57.82, 63.27 34.52, 83.43 7.69 M23.7 76.76 C43.94 50.58, 67.84 26.94, 86.81 6.65 M38.32 78.04 C55.12 64.3, 65.54 55.61, 102.91 10.12 M43.46 82.24 C63.72 55.6, 86.94 31.25, 102.74 9.44 M61.65 86.62 C81.56 61.58, 101.43 42.1, 113.65 21.77 M62.49 85.5 C72.34 70.21, 84.28 55.84, 118.65 20.01 M79.37 80.54 C92.58 65.32, 106.56 50.04, 127.85 29.47 M82.02 83.58 C95.88 69.99, 104.88 53.42, 128.31 29.1 M118.94 72.64 C122.17 66.71, 129.91 55.93, 129.8 50.12 M113.75 70.87 C118.35 66.62, 124.61 60.91, 130.97 48.54" stroke="#b2f2bb" stroke-width="2" fill="none"></path><path d="M78.31 1.93 C88.38 3.07, 100.61 7.69, 108.92 11.84 C117.23 16, 124.26 20.52, 128.16 26.84 C132.06 33.16, 134.28 42.67, 132.31 49.78 C130.34 56.89, 123.86 64.07, 116.33 69.51 C108.81 74.95, 97.61 80.04, 87.15 82.42 C76.68 84.79, 64.53 84.74, 53.57 83.75 C42.61 82.75, 29.99 80.87, 21.39 76.45 C12.79 72.03, 5.01 64.01, 1.96 57.23 C-1.09 50.44, 0.96 42.74, 3.07 35.76 C5.17 28.79, 7.54 20.78, 14.6 15.38 C21.67 9.99, 28.18 3.55, 45.47 3.39 C62.76 3.23, 104.42 7.68, 118.35 14.44 C132.27 21.2, 130.32 43.49, 129.04 43.94" stroke="#1e1e1e" stroke-width="4.5" fill="none" stroke-dasharray="8 12"></path></g><g transform="translate(879.0646654748425 847.7752562015072) rotate(0 35.71996307373047 12.5)"><text x="35.71996307373047" y="17.52" font-family="Virgil, Segoe UI Emoji" font-size="20px" fill="#1e1e1e" text-anchor="middle" style="white-space: pre;" direction="ltr" dominant-baseline="alphabetic">Metrics</text></g><g stroke-linecap="round"><g transform="translate(1005.6134383763897 928.5458794159067) rotate(0 1.0072669096094842 -93.93732323907315)"><path d="M-1.9 -0.22 C-1.33 -31.95, 2.87 -156.43, 3.91 -187.65 M2.27 -2.81 C2.56 -32.89, 2.32 -153.94, 2.56 -184.24" stroke="#e03131" stroke-width="4" fill="none"></path></g><g transform="translate(1005.6134383763897 928.5458794159067) rotate(0 1.0072669096094842 -93.93732323907315)"><path d="M10.89 -159.56 C7.83 -166.81, 5.2 -177.53, 4.05 -184.99 M10.93 -160.71 C8.17 -169.02, 6.59 -176.72, 2.96 -183.3" stroke="#e03131" stroke-width="4" fill="none"></path></g><g transform="translate(1005.6134383763897 928.5458794159067) rotate(0 1.0072669096094842 -93.93732323907315)"><path d="M-6.21 -159.6 C-3.82 -166.72, -0.99 -177.43, 4.05 -184.99 M-6.17 -160.75 C-3.43 -169.01, 0.5 -176.7, 2.96 -183.3" stroke="#e03131" stroke-width="4" fill="none"></path></g></g><mask></mask><g stroke-linecap="round" transform="translate(1478.1720415545583 859.9575292764848) rotate(0 65.99999999999989 42.5)"><path d="M18.1 13.08 C18.1 13.08, 18.1 13.08, 18.1 13.08 M18.1 13.08 C18.1 13.08, 18.1 13.08, 18.1 13.08 M0.46 55.89 C18.97 31.71, 39.58 10.3, 50.26 4.8 M1.7 54.66 C15.51 42.74, 27.05 25.14, 48.27 4.27 M17.46 66.49 C33.01 45.94, 53 18.48, 67.26 -2.35 M15.88 64.64 C36.44 40.08, 59 16.36, 72.63 -0.48 M23.27 78.62 C51.43 53.51, 75.24 23.15, 87.68 2.81 M26.65 77.58 C39.16 59.51, 55.8 38.9, 88.02 4.43 M42.09 81.8 C60.44 66.14, 69.54 50.79, 107.91 8.54 M41.93 81.12 C60.06 64.04, 74.82 43.36, 107.88 10.14 M57.43 88.17 C73.46 65.49, 96.41 49.25, 123.41 16.07 M62.43 86.41 C82.61 59.56, 104.78 34.54, 118.64 16.21 M81.47 84.55 C92.29 76.37, 106.94 58.99, 131.33 34.2 M81.92 84.18 C100.9 66.84, 116.14 48.9, 131.25 31.22" stroke="#b2f2bb" stroke-width="2" fill="none"></path><path d="M111.85 10.28 C120.34 14.5, 126.26 21.89, 129.29 28.72 C132.32 35.55, 132.44 44.28, 130.04 51.26 C127.64 58.24, 122.46 64.99, 114.91 70.57 C107.36 76.16, 95.5 82.41, 84.74 84.79 C73.98 87.17, 60.55 86.44, 50.34 84.85 C40.14 83.26, 31.64 80.04, 23.52 75.26 C15.4 70.48, 5.14 62.96, 1.65 56.18 C-1.84 49.39, -0.21 41.78, 2.58 34.55 C5.37 27.31, 11.43 18.02, 18.37 12.77 C25.31 7.52, 34.17 5.19, 44.22 3.04 C54.27 0.88, 64.9 -3.91, 78.67 -0.15 C92.44 3.62, 118.1 18.67, 126.84 25.61 C135.58 32.56, 132.17 41.53, 131.13 41.52" stroke="#1e1e1e" stroke-width="4.5" fill="none" stroke-dasharray="8 12"></path></g><g transform="translate(1508.2830309225155 889.9054910760566) rotate(0 35.71996307373047 12.5)"><text x="35.71996307373047" y="17.52" font-family="Virgil, Segoe UI Emoji" font-size="20px" fill="#1e1e1e" text-anchor="middle" style="white-space: pre;" direction="ltr" dominant-baseline="alphabetic">Metrics</text></g><g stroke-linecap="round"><g transform="translate(1653.1651371573957 959.0094476237891) rotate(0 -3.406863994891296 -111.2771939181413)"><path d="M-2.44 2.09 C-3.69 -34.52, -4.92 -182.75, -5.43 -219.97 M1.43 0.76 C-0.47 -36.73, -6.68 -188.11, -8.24 -224.65" stroke="#e03131" stroke-width="4" fill="none"></path></g><g transform="translate(1653.1651371573957 959.0094476237891) rotate(0 -3.406863994891296 -111.2771939181413)"><path d="M2.78 -202.28 C-1.82 -211.06, -6.28 -219.13, -8.21 -225.13 M1.69 -200.59 C-0.47 -207.67, -2.95 -211.68, -7.72 -224.03" stroke="#e03131" stroke-width="4" fill="none"></path></g><g transform="translate(1653.1651371573957 959.0094476237891) rotate(0 -3.406863994891296 -111.2771939181413)"><path d="M-14.31 -201.57 C-12.52 -210.47, -10.59 -218.8, -8.21 -225.13 M-15.4 -199.88 C-13.64 -206.97, -12.2 -211.15, -7.72 -224.03" stroke="#e03131" stroke-width="4" fill="none"></path></g></g><mask></mask><g mask="url(#mask-xwv52gOArhvlyOHenPBaO)" stroke-linecap="round"><g transform="translate(1172.3787790630545 403.73958333332985) rotate(0 -28.494368882807976 280.83350767374014)"><path d="M-1.05 0.61 C3.33 63.77, 37.36 287.78, 23.86 381.02 C10.37 474.26, -64.3 530.55, -82.01 560.05 M3.57 -1.52 C7.7 61.87, 35.6 290.18, 21.01 384.29 C6.41 478.41, -66.81 533.98, -84 563.19" stroke="#e03131" stroke-width="4" fill="none"></path></g><g transform="translate(1172.3787790630545 403.73958333332985) rotate(0 -28.494368882807976 280.83350767374014)"><path d="M-75.34 538.77 C-77.82 544.33, -79.07 549.11, -85.41 565.01 M-75.13 538.83 C-77.11 545.3, -78.71 550.48, -84.58 562.37" stroke="#e03131" stroke-width="4" fill="none"></path></g><g transform="translate(1172.3787790630545 403.73958333332985) rotate(0 -28.494368882807976 280.83350767374014)"><path d="M-62.09 549.57 C-67.46 552.79, -71.53 555.26, -85.41 565.01 M-61.88 549.63 C-66.76 553.89, -71.23 556.74, -84.58 562.37" stroke="#e03131" stroke-width="4" fill="none"></path></g></g><mask id="mask-xwv52gOArhvlyOHenPBaO"><rect x="0" y="0" fill="#fff" width="1379.0454457297215" height="1063.7395833333294"></rect><rect x="1135.7648035381521" y="767.9062499999961" fill="#000" width="123.22795104980469" height="35" opacity="1"></rect></mask><g transform="translate(1135.7648035381521 767.9062499999961) rotate(0 8.119606642094368 -83.33315899292614)"><text x="61.613975524902344" y="24.528" font-family="Virgil, Segoe UI Emoji" font-size="28px" fill="#e03131" text-anchor="middle" style="white-space: pre;" direction="ltr" dominant-baseline="alphabetic">Feedback</text></g><g mask="url(#mask--sqQorz4sJ4PnhQvgLXh4)" stroke-linecap="round"><g transform="translate(1630.866114086189 382.56364603032216) rotate(0 150.50960328337186 295.2136203376453)"><path d="M-0.34 0.05 C49.74 69, 266.61 314.54, 299.32 413.03 C332.02 511.52, 213.36 560.49, 195.88 590.98 M-3.97 -2.39 C45.78 66.92, 263.47 316.38, 296.71 415.59 C329.95 514.79, 212.3 563.52, 195.46 592.82" stroke="#e03131" stroke-width="4" fill="none"></path></g><g transform="translate(1630.866114086189 382.56364603032216) rotate(0 150.50960328337186 295.2136203376453)"><path d="M207.09 570.18 C202.59 578.22, 199.31 582.96, 197.34 594.11 M207.58 571.29 C203.94 574.9, 202.42 580.04, 194.91 592.99" stroke="#e03131" stroke-width="4" fill="none"></path></g><g transform="translate(1630.866114086189 382.56364603032216) rotate(0 150.50960328337186 295.2136203376453)"><path d="M218.62 582.82 C211.15 587.57, 204.88 589.02, 197.34 594.11 M219.1 583.92 C212.83 584.75, 208.71 587.05, 194.91 592.99" stroke="#e03131" stroke-width="4" fill="none"></path></g></g><mask id="mask--sqQorz4sJ4PnhQvgLXh4"><rect x="0" y="0" fill="#fff" width="2030.866114086189" height="1075.8969793636556"></rect><rect x="1869.2521385612868" y="780.0636460303224" fill="#000" width="123.22795104980469" height="35" opacity="1"></rect></mask><g transform="translate(1869.2521385612868 780.0636460303224) rotate(0 -87.8764211917258 -102.28637966235493)"><text x="61.613975524902344" y="24.528" font-family="Virgil, Segoe UI Emoji" font-size="28px" fill="#e03131" text-anchor="middle" style="white-space: pre;" direction="ltr" dominant-baseline="alphabetic">Feedback</text></g><g stroke-linecap="round"><g transform="translate(845.8858235456705 1191.0918960412764) rotate(0 -233.9681699715925 3.0238259666543854)"><path d="M2.55 -2.35 C-75.48 -0.62, -390.41 7.39, -468.86 8.4 M0.49 2.55 C-77.75 3.73, -392.24 4.3, -470.49 4.81" stroke="#1e1e1e" stroke-width="4" fill="none"></path></g><g transform="translate(845.8858235456705 1191.0918960412764) rotate(0 -233.9681699715925 3.0238259666543854)"><path d="M-448.71 -3.02 C-451.68 0.06, -461.52 1.85, -469.4 5.86 M-446.52 -4.49 C-456.13 -0.72, -464.01 2.46, -471.2 4.88" stroke="#1e1e1e" stroke-width="4" fill="none"></path></g><g transform="translate(845.8858235456705 1191.0918960412764) rotate(0 -233.9681699715925 3.0238259666543854)"><path d="M-448.64 14.08 C-451.51 12.44, -461.37 9.53, -469.4 5.86 M-446.46 12.61 C-455.98 10.19, -463.89 7.18, -471.2 4.88" stroke="#1e1e1e" stroke-width="4" fill="none"></path></g></g><mask></mask><g transform="translate(495.71150215231273 1221.674733529066) rotate(0 97.39794921875 52.5)"><text x="0" y="24.528" font-family="Virgil, Segoe UI Emoji" font-size="28px" fill="#e03131" text-anchor="start" style="white-space: pre;" direction="ltr" dominant-baseline="alphabetic">response</text><text x="0" y="59.528" font-family="Virgil, Segoe UI Emoji" font-size="28px" fill="#e03131" text-anchor="start" style="white-space: pre;" direction="ltr" dominant-baseline="alphabetic">{....</text><text x="0" y="94.52799999999999" font-family="Virgil, Segoe UI Emoji" font-size="28px" fill="#e03131" text-anchor="start" style="white-space: pre;" direction="ltr" dominant-baseline="alphabetic">energy=0.3Wh}</text></g><g stroke-linecap="round"><g transform="translate(1545.8858235456696 1216.091896041276) rotate(0 -234.455797175057 2.5927214735132225)"><path d="M1.81 -2.1 C-76.55 -1.32, -390.63 5.68, -469.02 7.29 M-0.66 2.93 C-79.4 4.09, -392.57 3.1, -470.72 3.1" stroke="#1e1e1e" stroke-width="4" fill="none"></path></g><g transform="translate(1545.8858235456696 1216.091896041276) rotate(0 -234.455797175057 2.5927214735132225)"><path d="M-448.71 -4.71 C-454.06 -1.32, -461.9 -0.63, -472.35 4.11 M-447.16 -5.19 C-453.49 -3.31, -459.11 -1.58, -470.9 2.74" stroke="#1e1e1e" stroke-width="4" fill="none"></path></g><g transform="translate(1545.8858235456696 1216.091896041276) rotate(0 -234.455797175057 2.5927214735132225)"><path d="M-448.74 12.39 C-454.23 9.96, -462.07 4.82, -472.35 4.11 M-447.18 11.91 C-453.41 9.78, -459.03 7.51, -470.9 2.74" stroke="#1e1e1e" stroke-width="4" fill="none"></path></g></g><mask></mask><g transform="translate(1224.0448354856458 1231.674733529067) rotate(0 97.39794921875 52.5)"><text x="0" y="24.528" font-family="Virgil, Segoe UI Emoji" font-size="28px" fill="#e03131" text-anchor="start" style="white-space: pre;" direction="ltr" dominant-baseline="alphabetic">response</text><text x="0" y="59.528" font-family="Virgil, Segoe UI Emoji" font-size="28px" fill="#e03131" text-anchor="start" style="white-space: pre;" direction="ltr" dominant-baseline="alphabetic">{....</text><text x="0" y="94.52799999999999" font-family="Virgil, Segoe UI Emoji" font-size="28px" fill="#e03131" text-anchor="start" style="white-space: pre;" direction="ltr" dominant-baseline="alphabetic">energy=0.3Wh}</text></g><g stroke-linecap="round"><g transform="translate(792.2612478202605 613.5417182051015) rotate(0 1.1947813724191292 -87.54558202447915)"><path d="M-2.04 -2.28 C-1.8 -32.34, -1.17 -148.75, -1.11 -177.75 M2.04 2.66 C3.44 -25.92, 4.11 -145.96, 4.43 -175.33" stroke="#e03131" stroke-width="4" fill="none"></path></g><g transform="translate(792.2612478202605 613.5417182051015) rotate(0 1.1947813724191292 -87.54558202447915)"><path d="M11.15 -152.9 C9.22 -158.26, 8.54 -163.58, 6.3 -176.48 M12.46 -151.22 C10.57 -158.26, 9.53 -161.83, 4.56 -175.06" stroke="#e03131" stroke-width="4" fill="none"></path></g><g transform="translate(792.2612478202605 613.5417182051015) rotate(0 1.1947813724191292 -87.54558202447915)"><path d="M-5.95 -153.04 C-4.31 -158.26, -1.42 -163.54, 6.3 -176.48 M-4.64 -151.37 C-2.55 -158.34, 0.41 -161.88, 4.56 -175.06" stroke="#e03131" stroke-width="4" fill="none"></path></g></g><mask></mask><g stroke-linecap="round" transform="translate(271.66666666666606 485.8373667645336) rotate(0 66 42.5)"><path d="M11.99 18.37 C11.99 18.37, 11.99 18.37, 11.99 18.37 M11.99 18.37 C11.99 18.37, 11.99 18.37, 11.99 18.37 M4.29 46.09 C22.27 34.15, 34.33 18.78, 44.82 9.75 M9.51 47.87 C17.29 39.27, 21.38 30.2, 41.9 11.09 M14.53 67.52 C25.98 47.34, 40.73 32.94, 67.05 7.36 M14.81 64.96 C27.36 49.05, 40.53 34.63, 62.66 6.37 M29.16 79.15 C40.68 55.39, 64.24 34.59, 78.14 10.18 M26.51 76.48 C38.5 58.74, 52.11 43.31, 80.72 12.62 M40.9 88.11 C54.25 68.23, 68.12 45.19, 107.09 11.91 M36.92 87.7 C59.74 62.53, 78.78 43.24, 106.62 10.13 M56.61 92.78 C69.85 74.1, 91.56 54.46, 119.38 20.2 M55.04 90.74 C74.69 68.95, 91.34 50.88, 118.48 21.19 M70.99 91.15 C90.9 72.47, 116.11 47.81, 125.92 28.12 M74.35 91.85 C90.66 71.95, 107.79 54.09, 131.09 30.49 M98.77 86.44 C112.08 77.56, 125.55 63.24, 131.21 51.87 M101.03 86.05 C114.59 71.54, 126.03 58.17, 134 49.76" stroke="#b2f2bb" stroke-width="2" fill="none"></path><path d="M36.91 5.1 C45.52 1.74, 58.68 1.61, 69.83 2.12 C80.98 2.63, 94.79 4.45, 103.78 8.15 C112.77 11.86, 119.11 18.14, 123.77 24.33 C128.43 30.53, 132.35 38.12, 131.73 45.31 C131.11 52.51, 126.34 61.78, 120.05 67.53 C113.76 73.28, 103.54 77.08, 93.99 79.8 C84.44 82.53, 73.82 84.43, 62.77 83.9 C51.71 83.36, 36.87 80.4, 27.66 76.6 C18.45 72.8, 12.39 67.28, 7.5 61.09 C2.61 54.91, -2.37 46.55, -1.66 39.48 C-0.95 32.4, 2.82 24.82, 11.75 18.64 C20.69 12.46, 42.43 5.07, 51.96 2.4 C61.48 -0.26, 68.65 2.46, 68.88 2.64" stroke="#1e1e1e" stroke-width="4.5" fill="none" stroke-dasharray="8 12"></path></g><g transform="translate(306.6176447431194 515.7853285641054) rotate(0 30.879974365234375 12.5)"><text x="30.879974365234375" y="17.52" font-family="Virgil, Segoe UI Emoji" font-size="20px" fill="#1e1e1e" text-anchor="middle" style="white-space: pre;" direction="ltr" dominant-baseline="alphabetic">Energy</text></g><g stroke-linecap="round" transform="translate(134.99999999999955 507.5040334312001) rotate(0 65.99999999999977 42.5)"><path d="M19.03 11.24 C19.03 11.24, 19.03 11.24, 19.03 11.24 M19.03 11.24 C19.03 11.24, 19.03 11.24, 19.03 11.24 M1.58 56.12 C18.27 35.74, 34.17 19.82, 49.79 0.71 M2.39 54.12 C14.73 40.62, 30.43 22.19, 45.71 2.94 M12.93 65.3 C26.35 47.59, 41.43 29.53, 72.91 -0.68 M14.76 67.71 C37.77 40.94, 59.64 15.16, 69.53 0.78 M28.63 77.29 C47.36 51.21, 59.22 33.78, 91.09 0 M27.13 73.74 C42.68 56.7, 58.81 40.23, 91.97 3.62 M38.74 85.34 C58.42 57.88, 82.68 34.92, 103.14 12.36 M40.55 83.01 C67.56 56.27, 88.35 26.29, 104.39 10.18 M64.09 87.14 C85.14 58.11, 102.63 28.34, 119.74 19.35 M61.05 85.93 C75.1 68.15, 90.72 53.51, 118.61 20.23 M81.06 78.21 C103.55 66.87, 119.22 42.9, 131.42 31.31 M85.32 79.97 C101.08 62.25, 117.82 44.22, 129.87 28.8" stroke="#b2f2bb" stroke-width="2" fill="none"></path><path d="M46.75 2.69 C56.97 -0.03, 71.69 -2.04, 82.67 -0.65 C93.66 0.73, 104.61 5.48, 112.65 10.99 C120.69 16.49, 127.89 25.62, 130.91 32.35 C133.94 39.09, 133.43 45.03, 130.79 51.39 C128.16 57.74, 123.03 65.38, 115.1 70.48 C107.16 75.59, 93.89 79.49, 83.19 82.02 C72.49 84.56, 61.52 87.49, 50.89 85.69 C40.27 83.9, 27.57 76.45, 19.42 71.24 C11.28 66.03, 5.11 60.6, 2.02 54.44 C-1.08 48.28, -1.95 41.43, 0.86 34.27 C3.66 27.1, 5.13 17.03, 18.83 11.47 C32.53 5.92, 67.35 0.22, 83.04 0.93 C98.74 1.64, 112.89 14.75, 113 15.75" stroke="#1e1e1e" stroke-width="4.5" fill="none" stroke-dasharray="8 12"></path></g><g transform="translate(180.0109680056521 537.4519952307719) rotate(0 20.819984436035156 12.5)"><text x="20.819984436035156" y="17.52" font-family="Virgil, Segoe UI Emoji" font-size="20px" fill="#1e1e1e" text-anchor="middle" style="white-space: pre;" direction="ltr" dominant-baseline="alphabetic">CO2</text></g><g stroke-linecap="round" transform="translate(9.999999999999545 759.1707000978669) rotate(0 65.99999999999977 42.5)"><path d="M11.91 15.65 C11.91 15.65, 11.91 15.65, 11.91 15.65 M11.91 15.65 C11.91 15.65, 11.91 15.65, 11.91 15.65 M3.66 47 C13.67 36.04, 26.33 26.36, 44.56 2.81 M1.86 48.4 C16.22 34.24, 32.37 15.94, 42.41 6.32 M10.17 60.55 C35.31 38.36, 55.02 16.44, 69.22 -1.13 M10.63 62.35 C34.08 39.46, 51.86 19.45, 66.92 1.62 M24.23 75.17 C40.17 50.52, 58.92 32.85, 85.59 7.11 M23.05 74.14 C45.78 47.45, 68.63 25.68, 84.96 3.94 M38.84 83.39 C64.34 59.49, 79.78 32.78, 104.53 9.62 M39.74 80.46 C61.98 55.19, 87.11 28.55, 102.96 9.03 M61.05 85.5 C76.93 63.68, 92.56 51.82, 112.73 21.17 M58.46 83.91 C68.77 72.32, 84.88 56.03, 116.7 17.93 M83.87 86.64 C90.08 70.24, 96.05 60, 131.09 31.23 M81.94 83.04 C91.98 71.84, 99.93 59.2, 127.86 29.94 M109.69 76.71 C113.6 73.45, 115.51 64.48, 126.42 57.52 M111.41 75.21 C111.44 70.06, 115.58 67.03, 127.64 57.05" stroke="#b2f2bb" stroke-width="2" fill="none"></path><path d="M11.64 15.97 C17.46 10.34, 30.79 8, 41.17 5.22 C51.55 2.45, 63.59 -1.35, 73.91 -0.67 C84.23 0.01, 94.1 4.69, 103.1 9.29 C112.11 13.89, 123.49 20.73, 127.93 26.94 C132.38 33.14, 131.49 39.5, 129.77 46.53 C128.05 53.55, 123.51 63.33, 117.63 69.06 C111.75 74.79, 104.03 78.02, 94.48 80.89 C84.93 83.76, 71.37 86.86, 60.32 86.28 C49.27 85.7, 37.3 82.16, 28.18 77.4 C19.07 72.64, 10.6 64.22, 5.65 57.72 C0.71 51.22, -6.13 47.28, -1.48 38.41 C3.16 29.54, 23.61 10.47, 33.53 4.49 C43.46 -1.5, 57.6 1.51, 58.08 2.5" stroke="#1e1e1e" stroke-width="4.5" fill="none" stroke-dasharray="8 12"></path></g><g transform="translate(55.0109680056521 789.1186618974386) rotate(0 20.819984436035156 12.5)"><text x="20.819984436035156" y="17.52" font-family="Virgil, Segoe UI Emoji" font-size="20px" fill="#1e1e1e" text-anchor="middle" style="white-space: pre;" direction="ltr" dominant-baseline="alphabetic">CO2</text></g></svg>