<svg version="1.1" xmlns="http://www.w3.org/2000/svg" viewBox="0 0 1017.884931967109 202.74999999999955" width="2035.769863934218" height="405.4999999999991">
  <!-- svg-source:excalidraw -->
  
  <defs>
    <style class="style-fonts">
      @font-face {
        font-family: "Virgil";
        src: url("https://excalidraw.com/Virgil.woff2");
      }
      @font-face {
        font-family: "Cascadia";
        src: url("https://excalidraw.com/Cascadia.woff2");
      }
      @font-face {
        font-family: "Assistant";
        src: url("https://excalidraw.com/Assistant-Regular.woff2");
      }
    </style>
    
  </defs>
  <g stroke-linecap="round" transform="translate(172.88493196710897 10) rotate(0 91 88)"><path d="M32 0 C65.59 0.09, 109.47 1.15, 150 0 C175.86 -5.32, 184.8 10.14, 182 32 C184.13 69.6, 185.4 119.92, 182 144 C183.33 163.39, 174.12 174.75, 150 176 C112.33 171.66, 74.69 175.57, 32 176 C13 174.84, -3.67 163.95, 0 144 C2.5 110.31, 4.74 68.51, 0 32 C0.28 14.87, 11.99 3.6, 32 0" stroke="none" stroke-width="0" fill="#b2f2bb"></path><path d="M32 0 C73.2 -2.33, 118.54 -1.63, 150 0 M32 0 C77 -0.5, 123.86 0.5, 150 0 M150 0 C171.68 1.04, 180.03 9.33, 182 32 M150 0 C170.55 1.43, 186.58 12.35, 182 32 M182 32 C178.92 62.75, 181.84 103.57, 182 144 M182 32 C181.33 73.58, 181.9 112.71, 182 144 M182 144 C180.58 167.66, 167.81 173.85, 150 176 M182 144 C183.28 166.02, 167.36 178.6, 150 176 M150 176 C111.63 174.92, 66.01 176.58, 32 176 M150 176 C113.45 177.36, 75.29 175.92, 32 176 M32 176 C7.04 178.62, 1.27 166.14, 0 144 M32 176 C8.32 172.54, -3.54 162.75, 0 144 M0 144 C-0.99 112.94, 3.22 92.36, 0 32 M0 144 C-1.96 115.88, 1.6 86.31, 0 32 M0 32 C1.25 12.17, 8.73 -2.21, 32 0 M0 32 C-3.42 8.35, 12.04 3.95, 32 0" stroke="#1e1e1e" stroke-width="4" fill="none"></path></g><g transform="translate(230.10294954523397 80.5) rotate(0 33.781982421875 17.5)"><text x="33.781982421875" y="0" font-family="Virgil, Segoe UI Emoji" font-size="28px" fill="#1e1e1e" text-anchor="middle" style="white-space: pre;" direction="ltr" dominant-baseline="text-before-edge">App 1</text></g><g stroke-linecap="round" transform="translate(495.13493196710897 12.24999999999909) rotate(0 91 88)"><path d="M32 0 C68.68 -5.03, 99.1 -0.24, 150 0 C175.93 -1.01, 181.55 13.36, 182 32 C185.55 53.28, 187.01 77.19, 182 144 C184.2 164.15, 166.2 178.36, 150 176 C119.68 176.37, 81.04 176.15, 32 176 C13.27 173.26, -0.42 166.3, 0 144 C-1.51 104.35, -0.47 59.91, 0 32 C-0.96 14.01, 12.76 -1.21, 32 0" stroke="none" stroke-width="0" fill="#b2f2bb"></path><path d="M32 0 C61.52 1.19, 82.3 1.45, 150 0 M32 0 C56.84 1.49, 80.35 0.31, 150 0 M150 0 C170.65 1.24, 185.99 12.13, 182 32 M150 0 C171.55 1.76, 181.56 6.14, 182 32 M182 32 C183.79 56.84, 184.71 78.13, 182 144 M182 32 C180.73 74.54, 179.68 113.66, 182 144 M182 144 C183.11 165.93, 167.88 178.26, 150 176 M182 144 C183.85 169.58, 167.95 178.05, 150 176 M150 176 C113.58 176.6, 77.1 180.39, 32 176 M150 176 C110.88 176, 76.02 175.09, 32 176 M32 176 C8.62 172.99, -3.08 163.09, 0 144 M32 176 C8.15 174.24, 0.61 163.21, 0 144 M0 144 C-3.26 121.12, -4.81 93.73, 0 32 M0 144 C-1.6 110.83, -3.19 75.05, 0 32 M0 32 C-2.97 8.65, 11.86 3.43, 32 0 M0 32 C1.28 15.13, 8.39 -4.19, 32 0" stroke="#1e1e1e" stroke-width="4" fill="none"></path></g><g transform="translate(546.1789535735543 82.74999999999909) rotate(0 39.95597839355469 17.5)"><text x="39.95597839355469" y="0" font-family="Virgil, Segoe UI Emoji" font-size="28px" fill="#1e1e1e" text-anchor="middle" style="white-space: pre;" direction="ltr" dominant-baseline="text-before-edge">App 2</text></g><g stroke-linecap="round" transform="translate(825.884931967109 16.749999999999545) rotate(0 91 88)"><path d="M32 0 C62.76 2.43, 90.35 5.43, 150 0 C166.79 4.6, 177.06 14.96, 182 32 C182.13 63.05, 177.11 102.18, 182 144 C180.55 163.81, 167.46 180.68, 150 176 C114.69 178.93, 78.03 176.06, 32 176 C10.19 177.98, -4.95 163.58, 0 144 C-5.99 114.13, -7.51 82.63, 0 32 C-4.53 9.33, 7.91 -4.41, 32 0" stroke="none" stroke-width="0" fill="#b2f2bb"></path><path d="M32 0 C57.77 -0.88, 87.26 -1.67, 150 0 M32 0 C77.44 0.09, 125.88 0.36, 150 0 M150 0 C174.62 -3.92, 184.16 9.14, 182 32 M150 0 C169.73 -4.58, 178.23 6.69, 182 32 M182 32 C181.55 58.54, 180.03 84.73, 182 144 M182 32 C182.24 76.17, 182.72 114.85, 182 144 M182 144 C185.82 161.94, 168.67 172.47, 150 176 M182 144 C180.09 168.75, 168.52 172.51, 150 176 M150 176 C112.63 177.84, 67.67 172.98, 32 176 M150 176 C119.34 173.07, 85.5 174.47, 32 176 M32 176 C12.46 177.6, 2.1 164.16, 0 144 M32 176 C6.28 176.39, -3.12 167.86, 0 144 M0 144 C1.06 103.15, 1.81 60.96, 0 32 M0 144 C3.9 102, 1.16 63.9, 0 32 M0 32 C-0.93 11.25, 10.29 3.96, 32 0 M0 32 C3.73 9.35, 7.86 2.98, 32 0" stroke="#1e1e1e" stroke-width="4" fill="none"></path></g><g transform="translate(877.3629516814644 87.24999999999955) rotate(0 39.52198028564453 17.5)"><text x="39.52198028564453" y="0" font-family="Virgil, Segoe UI Emoji" font-size="28px" fill="#1e1e1e" text-anchor="middle" style="white-space: pre;" direction="ltr" dominant-baseline="text-before-edge">App 3</text></g><g stroke-linecap="round"><g transform="translate(11.347038238867754 104.6484814658761) rotate(0 68.75 0)"><path d="M-1.35 -1.28 C21.85 -1.59, 116.11 -0.09, 138.89 -0.19 M3.12 4.19 C26.09 4.2, 114.43 4.01, 137.41 3.33" stroke="#1e1e1e" stroke-width="4" fill="none"></path></g><g transform="translate(11.347038238867754 104.6484814658761) rotate(0 68.75 0)"><path d="M113.12 13.2 C120.63 8.19, 126.17 8.74, 136.45 4.82 M114.19 12.16 C118.8 9.75, 125.43 8, 138.21 4.1" stroke="#1e1e1e" stroke-width="4" fill="none"></path></g><g transform="translate(11.347038238867754 104.6484814658761) rotate(0 68.75 0)"><path d="M112.88 -3.9 C120.56 -3.94, 126.17 1.57, 136.45 4.82 M113.95 -4.94 C118.61 -3.23, 125.29 -0.87, 138.21 4.1" stroke="#1e1e1e" stroke-width="4" fill="none"></path></g></g><mask></mask><g stroke-linecap="round"><g transform="translate(370.61336908049816 90.81627794867427) rotate(0 52.5 3.125)"><path d="M-2.15 -1.53 C15.46 -0.18, 85.32 7.52, 103.13 8.89 M1.87 3.81 C20.62 4.37, 91.7 4.28, 108.52 5.31" stroke="#1e1e1e" stroke-width="4" fill="none"></path></g><g transform="translate(370.61336908049816 90.81627794867427) rotate(0 52.5 3.125)"><path d="M83.73 11.94 C91.63 11.62, 94.98 10.07, 107.49 4.82 M84.32 13.83 C91.37 10.52, 98.41 7.79, 108.48 4.6" stroke="#1e1e1e" stroke-width="4" fill="none"></path></g><g transform="translate(370.61336908049816 90.81627794867427) rotate(0 52.5 3.125)"><path d="M84.16 -5.16 C92.01 -1.92, 95.28 0.1, 107.49 4.82 M84.75 -3.26 C91.77 -1.31, 98.67 1.23, 108.48 4.6" stroke="#1e1e1e" stroke-width="4" fill="none"></path></g></g><mask></mask><g stroke-linecap="round"><g transform="translate(694.9501207102458 113.57176213897742) rotate(0 51.875 -3.75)"><path d="M-2.51 -0.75 C14.83 -2.18, 86.44 -7.58, 104.09 -8.49 M1.32 -3.63 C18.32 -4.67, 85.36 -4.16, 102.03 -5.39" stroke="#1e1e1e" stroke-width="4" fill="none"></path></g><g transform="translate(694.9501207102458 113.57176213897742) rotate(0 51.875 -3.75)"><path d="M78.25 4.05 C85.09 0.97, 93.73 -2.65, 101.7 -5.35 M79.1 3.98 C86.08 1.47, 92.42 -0.97, 101.82 -6.27" stroke="#1e1e1e" stroke-width="4" fill="none"></path></g><g transform="translate(694.9501207102458 113.57176213897742) rotate(0 51.875 -3.75)"><path d="M77.77 -13.04 C84.75 -10.97, 93.55 -9.43, 101.7 -5.35 M78.62 -13.12 C85.67 -10.3, 92.15 -7.43, 101.82 -6.27" stroke="#1e1e1e" stroke-width="4" fill="none"></path></g></g><mask></mask><g stroke-linecap="round"><g transform="translate(459.95012071024576 148.57176213897742) rotate(0 -45.625 -1.25)"><path d="M-0.52 -2.38 C-15.76 -2.91, -73.76 -2.39, -88.71 -2.47 M-4.25 2.5 C-19.88 2.39, -75.03 1.59, -89.56 1.18" stroke="#1e1e1e" stroke-width="4" fill="none"></path></g><g transform="translate(459.95012071024576 148.57176213897742) rotate(0 -45.625 -1.25)"><path d="M-67.6 -5.08 C-75.28 -2.97, -84.97 -0.76, -88.14 -0.08 M-66.38 -6.8 C-70.18 -4.69, -76.36 -4.21, -88.95 0.24" stroke="#1e1e1e" stroke-width="4" fill="none"></path></g><g transform="translate(459.95012071024576 148.57176213897742) rotate(0 -45.625 -1.25)"><path d="M-67.95 12.02 C-75.53 7.32, -85.09 2.72, -88.14 -0.08 M-66.73 10.29 C-70.61 8.72, -76.72 5.51, -88.95 0.24" stroke="#1e1e1e" stroke-width="4" fill="none"></path></g></g><mask></mask><g stroke-linecap="round"><g transform="translate(796.0972114600972 154.36840608082662) rotate(0 -44.375 -1.875)"><path d="M2.32 1.78 C-12.17 0.94, -73.52 -3.76, -89.12 -4.65 M0.14 0.28 C-14.56 -0.19, -77.24 -1.41, -91.56 -1.5" stroke="#1e1e1e" stroke-width="4" fill="none"></path></g><g transform="translate(796.0972114600972 154.36840608082662) rotate(0 -44.375 -1.875)"><path d="M-66.68 -9.98 C-73.82 -9.5, -78.26 -4.48, -91.58 0.45 M-67.14 -9.66 C-74.22 -6.67, -80.66 -4.64, -92.15 -2.36" stroke="#1e1e1e" stroke-width="4" fill="none"></path></g><g transform="translate(796.0972114600972 154.36840608082662) rotate(0 -44.375 -1.875)"><path d="M-66.92 7.12 C-74.03 3.8, -78.42 5.03, -91.58 0.45 M-67.39 7.44 C-74.42 5.8, -80.8 3.2, -92.15 -2.36" stroke="#1e1e1e" stroke-width="4" fill="none"></path></g></g><mask></mask></svg>