<svg version="1.1" xmlns="http://www.w3.org/2000/svg" viewBox="0 0 1861.4747504248971 567.083333333333" width="3722.9495008497943" height="1134.166666666666">
  <!-- svg-source:excalidraw -->
  
  <defs>
    <style class="style-fonts">
      @font-face {
        font-family: "Virgil";
        src: url("https://excalidraw.com/Virgil.woff2");
      }
      @font-face {
        font-family: "Cascadia";
        src: url("https://excalidraw.com/Cascadia.woff2");
      }
      @font-face {
        font-family: "Assistant";
        src: url("https://excalidraw.com/Assistant-Regular.woff2");
      }
    </style>
    
  </defs>
  <g stroke-linecap="round" transform="translate(1458.1414170915632 20) rotate(0 196.66666666666697 268.5416666666665)"><path d="M32 0 C152.8 -0.76, 271.87 1.37, 361.33 0 M32 0 C115.61 4.83, 199.26 3.14, 361.33 0 M361.33 0 C383.11 -1.66, 391.97 8.66, 393.33 32 M361.33 0 C378.86 0.02, 396.98 6.39, 393.33 32 M393.33 32 C396.08 160.42, 396.81 291.62, 393.33 505.08 M393.33 32 C398.09 151.36, 397.29 269.37, 393.33 505.08 M393.33 505.08 C389.79 522.65, 384.06 535.59, 361.33 537.08 M393.33 505.08 C391.9 521.99, 385.43 538.75, 361.33 537.08 M361.33 537.08 C277.66 538.03, 195.44 538.47, 32 537.08 M361.33 537.08 C286.46 538.88, 209.97 538.15, 32 537.08 M32 537.08 C13.48 536.74, 0.37 529.21, 0 505.08 M32 537.08 C10.87 538.91, -3.18 529.75, 0 505.08 M0 505.08 C0.6 338.71, 0.98 171.3, 0 32 M0 505.08 C1.88 347.06, 2.05 188, 0 32 M0 32 C0.49 12.44, 14.12 1.27, 32 0 M0 32 C-1.87 14.58, 7.53 4.28, 32 0" stroke="#1971c2" stroke-width="4" fill="none"></path></g><g transform="translate(1636.8460857723903 25) rotate(0 17.961997985839844 17.5)"><text x="17.961997985839844" y="0" font-family="Virgil, Segoe UI Emoji" font-size="28px" fill="#1971c2" text-anchor="middle" style="white-space: pre;" direction="ltr" dominant-baseline="text-before-edge">VM</text></g><g stroke-linecap="round" transform="translate(756.8914170915637 10) rotate(0 196.66666666666674 268.5416666666665)"><path d="M32 0 C124.46 1.47, 211 0.53, 361.33 0 M32 0 C120.53 -0.76, 210.38 0.76, 361.33 0 M361.33 0 C384.92 3.49, 393.89 7.7, 393.33 32 M361.33 0 C378.53 4.03, 388.96 12.18, 393.33 32 M393.33 32 C394.37 172.74, 393.13 312.53, 393.33 505.08 M393.33 32 C397.86 213.93, 396.68 394.77, 393.33 505.08 M393.33 505.08 C392.53 527.85, 380.59 536.25, 361.33 537.08 M393.33 505.08 C397.59 528.72, 380.33 540.57, 361.33 537.08 M361.33 537.08 C235.64 533.06, 110.03 536.45, 32 537.08 M361.33 537.08 C237.12 536.87, 112.5 535.64, 32 537.08 M32 537.08 C8.32 533.42, 1.32 525.64, 0 505.08 M32 537.08 C13.03 536.44, -4.37 529.74, 0 505.08 M0 505.08 C1.85 354.52, -0.43 199.73, 0 32 M0 505.08 C-3.99 339.28, -3.69 173.07, 0 32 M0 32 C2.46 7.26, 8.91 3.12, 32 0 M0 32 C-4.29 9.1, 14.82 4.57, 32 0" stroke="#1971c2" stroke-width="4" fill="none"></path></g><g transform="translate(935.5960857723903 15) rotate(0 17.961997985839844 17.5)"><text x="17.961997985839844" y="0" font-family="Virgil, Segoe UI Emoji" font-size="28px" fill="#1971c2" text-anchor="middle" style="white-space: pre;" direction="ltr" dominant-baseline="text-before-edge">VM</text></g><g stroke-linecap="round" transform="translate(93.14141709156456 11.875) rotate(0 196.66666666666674 268.5416666666665)"><path d="M32 0 C122.53 2, 212.47 1.6, 361.33 0 M32 0 C142.59 1, 254.92 3.23, 361.33 0 M361.33 0 C385.29 0.62, 396.87 7.67, 393.33 32 M361.33 0 C384.34 1.5, 396.19 11.84, 393.33 32 M393.33 32 C390.25 182.35, 390.61 334.16, 393.33 505.08 M393.33 32 C392.06 190.84, 391.79 350.49, 393.33 505.08 M393.33 505.08 C395.75 529.92, 383.13 540.93, 361.33 537.08 M393.33 505.08 C396.71 524.86, 385.47 540.04, 361.33 537.08 M361.33 537.08 C236.28 538.22, 108.73 536.9, 32 537.08 M361.33 537.08 C234.03 533.54, 103.56 535.61, 32 537.08 M32 537.08 C7.8 538.17, -1.86 526.22, 0 505.08 M32 537.08 C8.35 533.71, -0.39 527.4, 0 505.08 M0 505.08 C-1.01 393.28, -0.77 281.31, 0 32 M0 505.08 C-3.61 406.09, -3.45 306.92, 0 32 M0 32 C3.4 6.91, 14.01 1.77, 32 0 M0 32 C2.51 13.97, 12 3.38, 32 0" stroke="#1971c2" stroke-width="4" fill="none"></path></g><g transform="translate(271.84608577239123 16.875) rotate(0 17.961997985839844 17.5)"><text x="17.961997985839844" y="0" font-family="Virgil, Segoe UI Emoji" font-size="28px" fill="#1971c2" text-anchor="middle" style="white-space: pre;" direction="ltr" dominant-baseline="text-before-edge">VM</text></g><g stroke-linecap="round" transform="translate(173.33388307511905 127.5833333333344) rotate(0 91 88)"><path d="M32 0 C51.36 -0.05, 76.67 6.95, 150 0 C173.66 -1.04, 183.94 13.73, 182 32 C182.81 50.56, 183.17 85.23, 182 144 C184.65 164.75, 175.21 177.99, 150 176 C112.55 175.56, 87.25 174.55, 32 176 C10.29 179.73, -2.34 169.94, 0 144 C5.32 103.6, -2.09 58.55, 0 32 C-2.31 14.23, 12.88 -4.64, 32 0" stroke="none" stroke-width="0" fill="#b2f2bb"></path><path d="M32 0 C73.87 4.46, 118.57 3.29, 150 0 M32 0 C71.4 0.14, 112.9 -0.56, 150 0 M150 0 C168.77 -0.86, 181.28 7.06, 182 32 M150 0 C175.32 -1.13, 177.58 7.46, 182 32 M182 32 C180.89 61.98, 187.85 91.99, 182 144 M182 32 C182.65 75.88, 180.39 120.91, 182 144 M182 144 C183.99 161.57, 174.15 173.54, 150 176 M182 144 C181.32 164.17, 175.87 178.8, 150 176 M150 176 C116.82 178.26, 86.5 174.46, 32 176 M150 176 C118.23 175.65, 86.01 177.37, 32 176 M32 176 C12.78 172.38, 2.41 167.56, 0 144 M32 176 C7.69 178.34, 1.34 164.74, 0 144 M0 144 C-1.12 107.62, 3.66 67.85, 0 32 M0 144 C-1.81 113.5, -0.55 81.96, 0 32 M0 32 C-2.7 14.47, 9.9 1.2, 32 0 M0 32 C3.36 11.61, 6.3 2.6, 32 0" stroke="#1e1e1e" stroke-width="4" fill="none"></path></g><g transform="translate(188.0759103578339 180.5833333333344) rotate(0 76.25797271728516 35)"><text x="76.25797271728516" y="0" font-family="Virgil, Segoe UI Emoji" font-size="28px" fill="#1e1e1e" text-anchor="middle" style="white-space: pre;" direction="ltr" dominant-baseline="text-before-edge">App 1</text><text x="76.25797271728516" y="35" font-family="Virgil, Segoe UI Emoji" font-size="28px" fill="#1e1e1e" text-anchor="middle" style="white-space: pre;" direction="ltr" dominant-baseline="text-before-edge">Instance N</text></g><g stroke-linecap="round" transform="translate(857.6672164084525 117.33333333333258) rotate(0 91 88)"><path d="M32 0 C63.79 -3.51, 92.86 0.59, 150 0 C166.55 -3.03, 176.47 13.17, 182 32 C186.25 54.08, 187.49 79.32, 182 144 C180.83 169.36, 173.37 171.48, 150 176 C117.69 178.17, 83.79 179.04, 32 176 C14.45 171.85, 0.44 168.33, 0 144 C0.16 112.44, 4.69 69.13, 0 32 C3.04 5.67, 9.65 -0.67, 32 0" stroke="none" stroke-width="0" fill="#b2f2bb"></path><path d="M32 0 C79.11 -3.2, 121.34 -1.74, 150 0 M32 0 C59.81 1.65, 89.82 0.28, 150 0 M150 0 C174.8 -0.98, 178.15 7.88, 182 32 M150 0 C169.05 4.24, 181.02 7.02, 182 32 M182 32 C187.73 71.63, 186.5 110.61, 182 144 M182 32 C180.8 64.67, 181.21 99.86, 182 144 M182 144 C181.41 164.32, 175.28 178.44, 150 176 M182 144 C180.55 168.41, 174.94 174.27, 150 176 M150 176 C112.35 177.44, 78.25 175.15, 32 176 M150 176 C122.88 174.77, 94.86 177.7, 32 176 M32 176 C8.08 178.04, 1.17 164.82, 0 144 M32 176 C12.41 173.14, -1.22 162.44, 0 144 M0 144 C-1.87 107.16, -5.09 65.92, 0 32 M0 144 C-1.28 104.39, -0.32 61.58, 0 32 M0 32 C2.92 11.49, 6.87 2.26, 32 0 M0 32 C-4.28 9.26, 6.81 -4.15, 32 0" stroke="#1e1e1e" stroke-width="4" fill="none"></path></g><g transform="translate(872.4092436911674 170.33333333333258) rotate(0 76.25797271728516 35)"><text x="76.25797271728516" y="0" font-family="Virgil, Segoe UI Emoji" font-size="28px" fill="#1e1e1e" text-anchor="middle" style="white-space: pre;" direction="ltr" dominant-baseline="text-before-edge">App 2</text><text x="76.25797271728516" y="35" font-family="Virgil, Segoe UI Emoji" font-size="28px" fill="#1e1e1e" text-anchor="middle" style="white-space: pre;" direction="ltr" dominant-baseline="text-before-edge">Instance N</text></g><g stroke-linecap="round" transform="translate(1549.6672164084512 122.25) rotate(0 91 88)"><path d="M32 0 C60.41 -4.84, 92.86 0.7, 150 0 C165.87 2.86, 187.17 13.32, 182 32 C183 68.46, 186.21 92.36, 182 144 C180.36 168.45, 168.68 175.62, 150 176 C110.52 174.57, 63.91 181.71, 32 176 C11.43 171.59, -3.12 163.02, 0 144 C1.8 98.28, -2.26 61.89, 0 32 C3.41 11.18, 14.19 1.61, 32 0" stroke="none" stroke-width="0" fill="#b2f2bb"></path><path d="M32 0 C59.86 3.67, 88.48 -2.35, 150 0 M32 0 C66.6 1.64, 95.8 0.73, 150 0 M150 0 C169.35 3.69, 181.15 7.5, 182 32 M150 0 C173.55 4.35, 186.48 14.82, 182 32 M182 32 C183.67 63.42, 186.32 104.69, 182 144 M182 32 C183.28 54.57, 185.55 79.37, 182 144 M182 144 C180.74 168.01, 174.47 174.49, 150 176 M182 144 C182.47 165.16, 167.43 174.81, 150 176 M150 176 C102 178.07, 59.89 178.79, 32 176 M150 176 C123.97 178.33, 101.12 177.05, 32 176 M32 176 C12.18 173.52, -1.06 162.82, 0 144 M32 176 C12.35 178.61, -0.53 164.64, 0 144 M0 144 C4.96 107.85, 5.71 69.24, 0 32 M0 144 C1.89 100.15, -1.47 56.61, 0 32 M0 32 C-3.72 9.45, 7.32 -3.61, 32 0 M0 32 C-2.32 7.26, 14.1 1.91, 32 0" stroke="#1e1e1e" stroke-width="4" fill="none"></path></g><g transform="translate(1564.409243691166 175.25) rotate(0 76.25797271728516 35)"><text x="76.25797271728516" y="0" font-family="Virgil, Segoe UI Emoji" font-size="28px" fill="#1e1e1e" text-anchor="middle" style="white-space: pre;" direction="ltr" dominant-baseline="text-before-edge">App 3</text><text x="76.25797271728516" y="35" font-family="Virgil, Segoe UI Emoji" font-size="28px" fill="#1e1e1e" text-anchor="middle" style="white-space: pre;" direction="ltr" dominant-baseline="text-before-edge">Instance N</text></g><g stroke-linecap="round"><g transform="translate(11.795989346876922 222.2318147992105) rotate(0 68.75 0)"><path d="M-1.8 -0.6 C20.63 -0.61, 113.37 -2.51, 136.99 -2.53 M2.42 -3.4 C24.22 -2.93, 111.65 -1.17, 134.48 -0.27" stroke="#1e1e1e" stroke-width="4" fill="none"></path></g><g transform="translate(11.795989346876922 222.2318147992105) rotate(0 68.75 0)"><path d="M110.32 7.25 C118.19 6.45, 128.66 -0.25, 133.09 -1.26 M111.24 8.55 C121.05 5.61, 129.54 2.21, 134.63 -0.18" stroke="#1e1e1e" stroke-width="4" fill="none"></path></g><g transform="translate(11.795989346876922 222.2318147992105) rotate(0 68.75 0)"><path d="M110.81 -9.85 C118.34 -4.04, 128.62 -4.14, 133.09 -1.26 M111.73 -8.54 C121.31 -4.78, 129.61 -1.47, 134.63 -0.18" stroke="#1e1e1e" stroke-width="4" fill="none"></path></g></g><mask></mask><g mask="url(#mask-Rl4exeDdnZO7yNfga4D9S)" stroke-linecap="round"><g transform="translate(371.06232018850733 203.56181014693857) rotate(0 233.54166666666674 2.0209233727846367)"><path d="M-0.51 -2.53 C78.05 -1.87, 392.03 2.59, 469.51 3.35 M-4.23 2.28 C74.34 3.41, 389.59 6.3, 468.59 6.61" stroke="#1e1e1e" stroke-width="4" fill="none"></path></g><g transform="translate(371.06232018850733 203.56181014693857) rotate(0 233.54166666666674 2.0209233727846367)"><path d="M443.24 16.73 C450.12 11.14, 454.77 10.09, 470.43 6.18 M446.01 15.9 C450.35 13.52, 455.54 11.15, 467.61 7.36" stroke="#1e1e1e" stroke-width="4" fill="none"></path></g><g transform="translate(371.06232018850733 203.56181014693857) rotate(0 233.54166666666674 2.0209233727846367)"><path d="M443.36 -0.37 C450.18 -1.93, 454.8 1.06, 470.43 6.18 M446.13 -1.2 C450.53 0.19, 455.69 1.6, 467.61 7.36" stroke="#1e1e1e" stroke-width="4" fill="none"></path></g></g><mask id="mask-Rl4exeDdnZO7yNfga4D9S"><rect x="0" y="0" fill="#fff" width="938.1456535218408" height="307.60365689250784"></rect><rect x="526.4840146261704" y="188.0827335197232" fill="#000" width="156.2399444580078" height="35" opacity="1"></rect></mask><g transform="translate(526.4840146261704 188.0827335197232) rotate(0 77.22109037440237 17.52147858399894)"><text x="78.1199722290039" y="0" font-family="Virgil, Segoe UI Emoji" font-size="28px" fill="#e03131" text-anchor="middle" style="white-space: pre;" direction="ltr" dominant-baseline="text-before-edge">Do request</text></g><g mask="url(#mask-0r5PMf1XEsJLssLjWKsMq)" stroke-linecap="round"><g transform="translate(1057.4824051515884 222.19500869749072) rotate(0 232.49999999999932 -7.530728262863704)"><path d="M2.43 -0.69 C79.56 -3.1, 385.44 -15.05, 462.31 -17.02 M0.3 -3.53 C78.31 -5.41, 390.46 -12.27, 467.25 -14.45" stroke="#1e1e1e" stroke-width="4" fill="none"></path></g><g transform="translate(1057.4824051515884 222.19500869749072) rotate(0 232.49999999999932 -7.530728262863704)"><path d="M443.48 -7.24 C449.22 -9.09, 459.02 -11.09, 465.66 -13.48 M444.13 -4.72 C453.22 -9.05, 461.27 -11.99, 467.75 -15.39" stroke="#1e1e1e" stroke-width="4" fill="none"></path></g><g transform="translate(1057.4824051515884 222.19500869749072) rotate(0 232.49999999999932 -7.530728262863704)"><path d="M443.06 -24.34 C448.76 -21.37, 458.68 -18.55, 465.66 -13.48 M443.71 -21.82 C453.13 -19.4, 461.35 -15.59, 467.75 -15.39" stroke="#1e1e1e" stroke-width="4" fill="none"></path></g></g><mask id="mask-0r5PMf1XEsJLssLjWKsMq"><rect x="0" y="0" fill="#fff" width="1622.482405151587" height="337.25646522321813"></rect><rect x="1211.8624329225836" y="197.16428043462702" fill="#000" width="156.2399444580078" height="35" opacity="1"></rect></mask><g transform="translate(1211.862432922584 197.16428043462702) rotate(0 79.394078470468 16.178990686312318)"><text x="78.1199722290039" y="0" font-family="Virgil, Segoe UI Emoji" font-size="28px" fill="#e03131" text-anchor="middle" style="white-space: pre;" direction="ltr" dominant-baseline="text-before-edge">Do request</text></g><g stroke-linecap="round"><g transform="translate(839.1490718182549 256.70882917887593) rotate(0 -234.99999999999977 2.8845814605188025)"><path d="M-2.69 -1.95 C-81.66 -0.45, -393.4 7.43, -471.39 8.35 M1.04 3.16 C-77.21 4, -386.78 4.36, -465.74 4.74" stroke="#1e1e1e" stroke-width="4" fill="none"></path></g><g transform="translate(839.1490718182549 256.70882917887593) rotate(0 -234.99999999999977 2.8845814605188025)"><path d="M-443.67 -4.87 C-449.52 -1.2, -462.03 3.53, -463.85 6.69 M-442.12 -3.79 C-452.4 0.37, -460.08 2.05, -465.04 4.13" stroke="#1e1e1e" stroke-width="4" fill="none"></path></g><g transform="translate(839.1490718182549 256.70882917887593) rotate(0 -234.99999999999977 2.8845814605188025)"><path d="M-443.62 12.23 C-449.45 9.29, -461.98 7.4, -463.85 6.69 M-442.07 13.31 C-452.4 10.8, -460.09 5.8, -465.04 4.13" stroke="#1e1e1e" stroke-width="4" fill="none"></path></g></g><mask></mask><g stroke-linecap="round"><g transform="translate(1546.5461625681055 252.26991121138417) rotate(0 -238.33333333333235 1.4785804628729693)"><path d="M-1.39 2.58 C-80.48 3.03, -398.27 0.23, -477.26 0.74 M3.05 1.51 C-76.22 2.42, -399.92 3.16, -479.82 3.16" stroke="#1e1e1e" stroke-width="4" fill="none"></path></g><g transform="translate(1546.5461625681055 252.26991121138417) rotate(0 -238.33333333333235 1.4785804628729693)"><path d="M-454.5 -5.85 C-462.77 -2.82, -464.08 -0.09, -478.02 3.47 M-457.33 -4.68 C-464.28 -3.26, -472.51 0.16, -479.97 2.91" stroke="#1e1e1e" stroke-width="4" fill="none"></path></g><g transform="translate(1546.5461625681055 252.26991121138417) rotate(0 -238.33333333333235 1.4785804628729693)"><path d="M-454.47 11.25 C-462.63 10.79, -463.95 10.04, -478.02 3.47 M-457.3 12.42 C-464.28 7.7, -472.53 4.96, -479.97 2.91" stroke="#1e1e1e" stroke-width="4" fill="none"></path></g></g><mask></mask><g stroke-linecap="round" transform="translate(161.05808375823108 479.3749999999991) rotate(0 126.66666666666652 22.5)"><path d="M11.25 0 C77.9 1.18, 139.3 0.17, 242.08 0 M11.25 0 C92.2 0.73, 175.08 3.87, 242.08 0 M242.08 0 C247.32 0.13, 255.16 7.18, 253.33 11.25 M242.08 0 C250.59 0.19, 251.96 4.02, 253.33 11.25 M253.33 11.25 C249.63 20.01, 252.37 26.74, 253.33 33.75 M253.33 11.25 C255.5 17.77, 255.53 21.97, 253.33 33.75 M253.33 33.75 C257.24 41.21, 247.11 46.61, 242.08 45 M253.33 33.75 C250.6 38.61, 245.15 42.03, 242.08 45 M242.08 45 C178.72 45.79, 113.87 48.58, 11.25 45 M242.08 45 C156.11 48.39, 68.92 46.86, 11.25 45 M11.25 45 C7.69 44.92, -3.67 37.85, 0 33.75 M11.25 45 C1.31 40.41, -1.46 39.46, 0 33.75 M0 33.75 C-0.07 27.68, 2.97 24.71, 0 11.25 M0 33.75 C0.32 26.14, -2.03 15.6, 0 11.25 M0 11.25 C-2.86 1.67, 1.18 -0.75, 11.25 0 M0 11.25 C-4.45 0.81, 7.99 4.4, 11.25 0" stroke="#1e1e1e" stroke-width="4" fill="none"></path></g><g transform="translate(178.49680700448744 484.3749999999991) rotate(0 109.22794342041016 17.5)"><text x="109.22794342041016" y="0" font-family="Virgil, Segoe UI Emoji" font-size="28px" fill="#1e1e1e" text-anchor="middle" style="white-space: pre;" direction="ltr" dominant-baseline="text-before-edge">Instrumentation</text></g><g mask="url(#mask-ozVg4D8nkGLbb4eOAQomA)" stroke-linecap="round"><g transform="translate(255.53690229449148 478.3749999999991) rotate(0 3.0502739531980296 -83.66666666666629)"><path d="M2.63 -0.98 C3.22 -29.3, 2.49 -140.29, 3.32 -168.31 M0.62 -3.98 C2.04 -32.05, 7.21 -138.05, 8.21 -165.22" stroke="#e03131" stroke-width="4" fill="none"></path></g><g transform="translate(255.53690229449148 478.3749999999991) rotate(0 3.0502739531980296 -83.66666666666629)"><path d="M15.02 -143.36 C12.7 -147.19, 9.91 -154.56, 7.08 -166.62 M15.93 -142.07 C13.43 -148.44, 11.93 -157.53, 7.39 -165.72" stroke="#e03131" stroke-width="4" fill="none"></path></g><g transform="translate(255.53690229449148 478.3749999999991) rotate(0 3.0502739531980296 -83.66666666666629)"><path d="M-2.06 -144.11 C0.6 -147.88, 2.8 -155.03, 7.08 -166.62 M-1.15 -142.82 C1.86 -149.03, 5.87 -157.89, 7.39 -165.72" stroke="#e03131" stroke-width="4" fill="none"></path></g></g><mask id="mask-ozVg4D8nkGLbb4eOAQomA"><rect x="0" y="0" fill="#fff" width="361.63745020088754" height="745.7083333333317"></rect><rect x="119.4412259303067" y="359.7083333333326" fill="#000" width="278.2919006347656" height="70" opacity="1"></rect></mask><g transform="translate(119.4412259303067 359.7083333333326) rotate(0 140.5072352612019 34.018063784018295)"><text x="139.1459503173828" y="0" font-family="Virgil, Segoe UI Emoji" font-size="28px" fill="#e03131" text-anchor="middle" style="white-space: pre;" direction="ltr" dominant-baseline="text-before-edge">Makes energy data </text><text x="139.1459503173828" y="35" font-family="Virgil, Segoe UI Emoji" font-size="28px" fill="#e03131" text-anchor="middle" style="white-space: pre;" direction="ltr" dominant-baseline="text-before-edge">available</text></g><g stroke-linecap="round" transform="translate(824.8080837582306 477.4999999999991) rotate(0 126.66666666666652 22.5)"><path d="M11.25 0 C66.76 2.52, 123.97 2.58, 242.08 0 M11.25 0 C60.84 0.63, 108.76 -2.11, 242.08 0 M242.08 0 C245.98 3.5, 249.53 5.07, 253.33 11.25 M242.08 0 C249.47 0.47, 253.23 5.33, 253.33 11.25 M253.33 11.25 C256.49 21.87, 252.03 26.29, 253.33 33.75 M253.33 11.25 C252.53 20.78, 251.89 28.47, 253.33 33.75 M253.33 33.75 C257.03 43.25, 247.55 48.03, 242.08 45 M253.33 33.75 C257.15 38.08, 247.75 45.75, 242.08 45 M242.08 45 C194.14 44.35, 140.46 45.76, 11.25 45 M242.08 45 C162.37 41.53, 85.21 42.75, 11.25 45 M11.25 45 C5.81 44.44, -3.8 44.14, 0 33.75 M11.25 45 C4.73 44.69, -3.68 45.31, 0 33.75 M0 33.75 C2.23 28.49, -2.77 14.51, 0 11.25 M0 33.75 C1.3 24.28, -0.8 19.77, 0 11.25 M0 11.25 C-3.73 2.39, 7.36 3.97, 11.25 0 M0 11.25 C-0.26 6.73, 7.83 -0.29, 11.25 0" stroke="#1e1e1e" stroke-width="4" fill="none"></path></g><g transform="translate(842.246807004487 482.4999999999991) rotate(0 109.22794342041016 17.5)"><text x="109.22794342041016" y="0" font-family="Virgil, Segoe UI Emoji" font-size="28px" fill="#1e1e1e" text-anchor="middle" style="white-space: pre;" direction="ltr" dominant-baseline="text-before-edge">Instrumentation</text></g><g mask="url(#mask-ozBMLrDrTvw3ZYBa1qaQR)" stroke-linecap="round"><g transform="translate(960.536902294491 482.7499999999991) rotate(0 2.4252739531980296 -90.54166666666629)"><path d="M-0.76 -2.5 C0.38 -32.53, 4.84 -151.12, 6.04 -180.48 M4.03 2.31 C4.97 -28.59, 4.2 -154.3, 4.44 -185.16" stroke="#e03131" stroke-width="4" fill="none"></path></g><g transform="translate(960.536902294491 482.7499999999991) rotate(0 2.4252739531980296 -90.54166666666629)"><path d="M11.2 -160.81 C11.13 -166.92, 10.13 -174.14, 2.96 -186.96 M12.96 -161.56 C9.88 -170.4, 6.55 -180.2, 3.84 -184.33" stroke="#e03131" stroke-width="4" fill="none"></path></g><g transform="translate(960.536902294491 482.7499999999991) rotate(0 2.4252739531980296 -90.54166666666629)"><path d="M-5.9 -160.82 C-1.34 -166.88, 2.29 -174.09, 2.96 -186.96 M-4.14 -161.56 C-0.6 -170.46, 2.71 -180.26, 3.84 -184.33" stroke="#e03131" stroke-width="4" fill="none"></path></g></g><mask id="mask-ozBMLrDrTvw3ZYBa1qaQR"><rect x="0" y="0" fill="#fff" width="1065.387450200887" height="763.8333333333317"></rect><rect x="823.8162259303058" y="357.2083333333326" fill="#000" width="278.2919006347656" height="70" opacity="1"></rect></mask><g transform="translate(823.8162259303062 357.2083333333326) rotate(0 139.36014628969133 34.12062703490278)"><text x="139.1459503173828" y="0" font-family="Virgil, Segoe UI Emoji" font-size="28px" fill="#e03131" text-anchor="middle" style="white-space: pre;" direction="ltr" dominant-baseline="text-before-edge">Makes energy data </text><text x="139.1459503173828" y="35" font-family="Virgil, Segoe UI Emoji" font-size="28px" fill="#e03131" text-anchor="middle" style="white-space: pre;" direction="ltr" dominant-baseline="text-before-edge">available</text></g><g stroke-linecap="round" transform="translate(1526.0580837582302 487.4999999999991) rotate(0 126.66666666666652 22.5)"><path d="M11.25 0 C56.81 -0.21, 102.94 1.9, 242.08 0 M11.25 0 C102.4 0.45, 192.6 0.3, 242.08 0 M242.08 0 C246.27 0.02, 256.51 0.03, 253.33 11.25 M242.08 0 C248.41 3.96, 253.5 1.5, 253.33 11.25 M253.33 11.25 C251.36 20.11, 249.52 23.83, 253.33 33.75 M253.33 11.25 C251.46 17, 253.93 25.77, 253.33 33.75 M253.33 33.75 C252.09 37.4, 251.98 46.45, 242.08 45 M253.33 33.75 C251.14 38.79, 252.32 43.99, 242.08 45 M242.08 45 C185.09 45.23, 133.69 45.65, 11.25 45 M242.08 45 C163.22 44.61, 82.12 45.94, 11.25 45 M11.25 45 C3.93 46.59, -2.76 44.15, 0 33.75 M11.25 45 C6.13 43.97, -0.44 40.37, 0 33.75 M0 33.75 C1.38 25.37, 0.86 21.16, 0 11.25 M0 33.75 C0.04 27.1, 1.52 19.3, 0 11.25 M0 11.25 C-1.62 7.15, 1.03 3.72, 11.25 0 M0 11.25 C3.81 5.64, 1.08 4.17, 11.25 0" stroke="#1e1e1e" stroke-width="4" fill="none"></path></g><g transform="translate(1543.496807004487 492.4999999999991) rotate(0 109.22794342041016 17.5)"><text x="109.22794342041016" y="0" font-family="Virgil, Segoe UI Emoji" font-size="28px" fill="#1e1e1e" text-anchor="middle" style="white-space: pre;" direction="ltr" dominant-baseline="text-before-edge">Instrumentation</text></g><g mask="url(#mask-zGI-hdP-kp75QibfHewYt)" stroke-linecap="round"><g transform="translate(1620.5369022944906 486.4999999999991) rotate(0 3.0502739531980296 -83.66666666666629)"><path d="M0.98 2.63 C2.47 -25.03, 7.24 -139.63, 8.14 -168.16 M-1.93 1.6 C-0.56 -25.46, 5.9 -137.04, 7.01 -164.97" stroke="#e03131" stroke-width="4" fill="none"></path></g><g transform="translate(1620.5369022944906 486.4999999999991) rotate(0 3.0502739531980296 -83.66666666666629)"><path d="M16.26 -139.62 C11.96 -147.36, 9.71 -154.79, 6.01 -166.63 M14.12 -140.22 C12.01 -148.82, 8.95 -155.59, 6.95 -165.46" stroke="#e03131" stroke-width="4" fill="none"></path></g><g transform="translate(1620.5369022944906 486.4999999999991) rotate(0 3.0502739531980296 -83.66666666666629)"><path d="M-0.82 -140.48 C-0.46 -148.04, 1.96 -155.24, 6.01 -166.63 M-2.96 -141.08 C0.07 -149.26, 2.14 -155.77, 6.95 -165.46" stroke="#e03131" stroke-width="4" fill="none"></path></g></g><mask id="mask-zGI-hdP-kp75QibfHewYt"><rect x="0" y="0" fill="#fff" width="1726.6374502008866" height="753.8333333333317"></rect><rect x="1484.4412259303062" y="367.8333333333326" fill="#000" width="278.2919006347656" height="70" opacity="1"></rect></mask><g transform="translate(1484.4412259303062 367.8333333333326) rotate(0 139.20387632530128 35.905611575022476)"><text x="139.1459503173828" y="0" font-family="Virgil, Segoe UI Emoji" font-size="28px" fill="#e03131" text-anchor="middle" style="white-space: pre;" direction="ltr" dominant-baseline="text-before-edge">Makes energy data </text><text x="139.1459503173828" y="35" font-family="Virgil, Segoe UI Emoji" font-size="28px" fill="#e03131" text-anchor="middle" style="white-space: pre;" direction="ltr" dominant-baseline="text-before-edge">available</text></g><g transform="translate(517.3080837582311 272.2916666666665) rotate(0 97.39794921875 52.5)"><text x="0" y="0" font-family="Virgil, Segoe UI Emoji" font-size="28px" fill="#e03131" text-anchor="start" style="white-space: pre;" direction="ltr" dominant-baseline="text-before-edge">response</text><text x="0" y="35" font-family="Virgil, Segoe UI Emoji" font-size="28px" fill="#e03131" text-anchor="start" style="white-space: pre;" direction="ltr" dominant-baseline="text-before-edge">{....</text><text x="0" y="70" font-family="Virgil, Segoe UI Emoji" font-size="28px" fill="#e03131" text-anchor="start" style="white-space: pre;" direction="ltr" dominant-baseline="text-before-edge">energy=0.3Wh}</text></g><g transform="translate(1221.160134539481 274.7916666666665) rotate(0 97.39794921875 52.5)"><text x="0" y="0" font-family="Virgil, Segoe UI Emoji" font-size="28px" fill="#e03131" text-anchor="start" style="white-space: pre;" direction="ltr" dominant-baseline="text-before-edge">response</text><text x="0" y="35" font-family="Virgil, Segoe UI Emoji" font-size="28px" fill="#e03131" text-anchor="start" style="white-space: pre;" direction="ltr" dominant-baseline="text-before-edge">{....</text><text x="0" y="70" font-family="Virgil, Segoe UI Emoji" font-size="28px" fill="#e03131" text-anchor="start" style="white-space: pre;" direction="ltr" dominant-baseline="text-before-edge">energy=0.3Wh}</text></g><g transform="translate(164.8080837582297 86.45833333333076) rotate(0 90.6359634399414 17.5)"><text x="0" y="0" font-family="Virgil, Segoe UI Emoji" font-size="28px" fill="#1971c2" text-anchor="start" style="white-space: pre;" direction="ltr" dominant-baseline="text-before-edge">Docker (K8s)</text></g><g transform="translate(859.1721203182883 76.45833333333076) rotate(0 90.6359634399414 17.5)"><text x="0" y="0" font-family="Virgil, Segoe UI Emoji" font-size="28px" fill="#1971c2" text-anchor="start" style="white-space: pre;" direction="ltr" dominant-baseline="text-before-edge">Docker (K8s)</text></g><g transform="translate(1531.6721203182879 83.95833333333076) rotate(0 90.6359634399414 17.5)"><text x="0" y="0" font-family="Virgil, Segoe UI Emoji" font-size="28px" fill="#1971c2" text-anchor="start" style="white-space: pre;" direction="ltr" dominant-baseline="text-before-edge">Docker (K8s)</text></g></svg>