<svg version="1.1" xmlns="http://www.w3.org/2000/svg" viewBox="0 0 807.40261332194 354.1666666666665" width="1614.80522664388" height="708.333333333333">
  <!-- svg-source:excalidraw -->
  
  <defs>
    <style class="style-fonts">
      @font-face {
        font-family: "Virgil";
        src: url("https://excalidraw.com/Virgil.woff2");
      }
      @font-face {
        font-family: "Cascadia";
        src: url("https://excalidraw.com/Cascadia.woff2");
      }
      @font-face {
        font-family: "Assistant";
        src: url("https://excalidraw.com/Assistant-Regular.woff2");
      }
    </style>
    
  </defs>
  <g stroke-linecap="round" transform="translate(320 12.500000000000227) rotate(0 63.33333333333326 62.499999999999886)"><path d="M51.7 -1.21 C60.9 -3.64, 72.89 -0.31, 82.81 3.42 C92.73 7.15, 104.23 14.45, 111.23 21.18 C118.23 27.91, 122.75 34.47, 124.8 43.81 C126.86 53.15, 125.76 67.72, 123.56 77.23 C121.35 86.74, 117.82 93.54, 111.57 100.85 C105.32 108.16, 95.36 116.77, 86.07 121.08 C76.77 125.38, 65.34 127.91, 55.8 126.66 C46.26 125.41, 36.46 118.83, 28.83 113.58 C21.2 108.34, 14.73 103.18, 10.02 95.2 C5.31 87.22, 0.91 75.42, 0.57 65.71 C0.24 55.99, 3.65 45.75, 8.03 36.91 C12.41 28.07, 14.4 18.23, 26.88 12.66 C39.36 7.09, 69.83 2.7, 82.91 3.49 C95.98 4.27, 105.43 16.51, 105.32 17.38 M82.3 0.59 C91.11 1.89, 98.03 9.74, 104.66 16.67 C111.28 23.61, 118.09 32.51, 122.04 42.18 C126 51.85, 129.25 65.53, 128.37 74.7 C127.5 83.86, 122.9 89.61, 116.79 97.15 C110.67 104.69, 101.31 115.47, 91.67 119.95 C82.03 124.42, 69.1 124.94, 58.95 124 C48.79 123.07, 39.11 118.68, 30.74 114.35 C22.37 110.01, 13.77 105.37, 8.73 98.01 C3.7 90.65, 1.41 80.06, 0.53 70.18 C-0.35 60.3, -0.12 47.88, 3.43 38.74 C6.99 29.59, 13.68 21.21, 21.84 15.31 C30 9.41, 42.89 5.65, 52.4 3.35 C61.91 1.04, 74.3 1.6, 78.9 1.46 C83.49 1.33, 80.22 1.28, 79.99 2.55" stroke="none" stroke-width="0" fill="#f08c00"></path><path d="M57 -0.59 C66.81 -2.6, 81.05 0.24, 90 4.33 C98.95 8.43, 104.57 15.99, 110.72 23.96 C116.86 31.92, 124.61 42.9, 126.88 52.12 C129.14 61.35, 127.01 70.01, 124.31 79.32 C121.62 88.63, 117.33 100.87, 110.71 108.01 C104.09 115.15, 94.12 119.74, 84.6 122.16 C75.08 124.58, 63.35 124.31, 53.61 122.52 C43.87 120.73, 34.28 116.7, 26.18 111.4 C18.09 106.1, 9.6 99.07, 5.04 90.73 C0.49 82.38, -1.68 71.17, -1.18 61.34 C-0.67 51.5, 2.88 40.54, 8.1 31.72 C13.32 22.9, 16.07 12.47, 30.15 8.4 C44.23 4.34, 78.03 3.36, 92.56 7.32 C107.1 11.28, 117.81 31.48, 117.34 32.17 M73.34 2.89 C83.51 4.09, 96.88 8.93, 104.47 14.37 C112.06 19.8, 114.79 27.4, 118.91 35.49 C123.02 43.58, 128.94 53.34, 129.16 62.9 C129.38 72.46, 125.46 84.11, 120.21 92.85 C114.97 101.58, 106.67 110.27, 97.7 115.33 C88.73 120.39, 76.85 122.78, 66.38 123.21 C55.91 123.63, 44.09 121.85, 34.88 117.89 C25.68 113.92, 16.84 106.27, 11.15 99.42 C5.46 92.57, 2.18 85.93, 0.74 76.78 C-0.71 67.64, -0.69 54.68, 2.47 44.56 C5.63 34.45, 12.57 22.6, 19.7 16.08 C26.84 9.55, 36.19 7.98, 45.29 5.42 C54.4 2.86, 69.47 1.29, 74.33 0.71 C79.2 0.14, 74.62 0.66, 74.47 1.98" stroke="#1e1e1e" stroke-width="4" fill="none"></path></g><g stroke-linecap="round" transform="translate(11.666666666666742 10) rotate(0 63.33333333333326 62.499999999999886)"><path d="M39.62 6.22 C47.89 2.01, 58.34 0.62, 68.4 1.17 C78.45 1.71, 91.23 4.18, 99.94 9.51 C108.65 14.84, 116.12 24.21, 120.66 33.17 C125.2 42.12, 127.4 53.4, 127.18 63.23 C126.96 73.07, 124.11 83.98, 119.34 92.19 C114.58 100.4, 106.56 106.99, 98.59 112.48 C90.62 117.97, 80.81 123.55, 71.5 125.13 C62.19 126.71, 51.74 125.27, 42.73 121.97 C33.73 118.66, 24.29 112.82, 17.46 105.29 C10.63 97.76, 4.47 86.38, 1.75 76.77 C-0.97 67.16, -0.88 56.7, 1.13 47.63 C3.15 38.56, 5.03 30.26, 13.84 22.35 C22.64 14.44, 44.52 3.92, 53.98 0.19 C63.44 -3.54, 70.46 -1.36, 70.57 -0.02 M86.59 6.09 C96.12 9.28, 105.09 15.98, 111.87 23.29 C118.65 30.61, 125.56 40.98, 127.28 49.99 C129.01 59.01, 124.56 68.44, 122.21 77.4 C119.86 86.37, 119.3 97.04, 113.19 103.8 C107.09 110.57, 94.89 115.03, 85.57 118.01 C76.26 120.99, 67.35 122.66, 57.31 121.68 C47.27 120.7, 33.13 117.18, 25.33 112.14 C17.52 107.1, 15.08 99.18, 10.47 91.46 C5.87 83.75, -1.48 75.2, -2.33 65.85 C-3.17 56.5, 0.54 44.62, 5.43 35.38 C10.31 26.13, 19.01 16.13, 27.01 10.35 C35.02 4.58, 43.26 1.99, 53.46 0.73 C63.65 -0.53, 82.84 2.27, 88.18 2.81 C93.52 3.34, 86.54 2.51, 85.5 3.96" stroke="none" stroke-width="0" fill="#2f9e44"></path><path d="M60.12 0.22 C69.29 -1.81, 79.6 -0.11, 88.51 3.44 C97.42 7, 107.74 13.84, 113.58 21.53 C119.43 29.23, 121.85 39.47, 123.59 49.62 C125.32 59.77, 126.24 72.9, 124 82.43 C121.75 91.96, 117.29 100.49, 110.11 106.8 C102.93 113.11, 90.23 117.48, 80.91 120.28 C71.59 123.08, 63.82 125.23, 54.19 123.58 C44.56 121.94, 31.06 116.57, 23.14 110.43 C15.22 104.29, 10.21 95.3, 6.69 86.74 C3.16 78.18, 1.88 68.12, 1.99 59.07 C2.11 50.02, 2.38 40.64, 7.38 32.43 C12.38 24.23, 19.21 14.46, 31.99 9.84 C44.77 5.23, 71.95 3.6, 84.08 4.74 C96.22 5.88, 105.28 15.94, 104.83 16.7 M81.87 1.75 C91.58 3.48, 99.89 9.37, 106.97 16.18 C114.06 22.98, 121.53 33.87, 124.39 42.58 C127.26 51.29, 125.89 59.31, 124.16 68.46 C122.43 77.61, 119.52 88.74, 114.03 97.47 C108.54 106.21, 99.48 115.8, 91.2 120.86 C82.92 125.93, 74.55 128.24, 64.35 127.87 C54.15 127.49, 38.79 124.03, 29.99 118.61 C21.2 113.2, 16.66 103.8, 11.56 95.39 C6.46 86.98, 0.95 77.65, -0.6 68.14 C-2.15 58.63, -1.89 47.13, 2.27 38.33 C6.42 29.54, 16.04 21.77, 24.32 15.36 C32.6 8.96, 42.62 2.37, 51.96 -0.1 C61.29 -2.56, 75.59 -0.27, 80.34 0.57 C85.09 1.4, 80.53 4.03, 80.48 4.93" stroke="#1e1e1e" stroke-width="4" fill="none"></path></g><g stroke-linecap="round" transform="translate(618.3333333333333 21.666666666666742) rotate(0 63.33333333333326 62.499999999999886)"><path d="M46.31 4.28 C54.62 1.16, 65.28 0.02, 74.65 1.66 C84.03 3.31, 94.84 7.8, 102.56 14.14 C110.28 20.48, 116.88 30.92, 120.99 39.69 C125.09 48.47, 127.56 57.48, 127.19 66.78 C126.83 76.08, 123.82 87.12, 118.79 95.51 C113.76 103.89, 105.59 112.46, 97.02 117.11 C88.45 121.76, 77.3 123.29, 67.36 123.4 C57.43 123.51, 46.57 121.74, 37.42 117.78 C28.26 113.81, 18.54 106.93, 12.45 99.61 C6.36 92.28, 2.61 83.45, 0.9 73.84 C-0.81 64.24, -1.19 51.2, 2.2 41.99 C5.58 32.77, 11.05 25.72, 21.22 18.56 C31.39 11.39, 53.13 1.56, 63.23 -1 C73.34 -3.56, 81.92 2.1, 81.84 3.19 M114.59 22.5 C121.48 29.09, 125.09 42.61, 126.24 52.14 C127.39 61.66, 124.41 71.05, 121.51 79.65 C118.62 88.25, 115.48 97, 108.88 103.72 C102.28 110.43, 91.49 116.59, 81.9 119.94 C72.31 123.29, 60.7 125.45, 51.34 123.81 C41.99 122.17, 33.19 116.3, 25.77 110.11 C18.36 103.93, 11.18 94.97, 6.85 86.68 C2.51 78.38, -0.63 69.56, -0.25 60.34 C0.13 51.11, 4.65 40, 9.13 31.32 C13.61 22.65, 18.44 13.11, 26.64 8.31 C34.83 3.51, 47.82 2.7, 58.31 2.5 C68.79 2.3, 80.34 3.79, 89.55 7.1 C98.76 10.42, 109.69 19.85, 113.57 22.4 C117.45 24.95, 114.34 21.21, 112.84 22.39" stroke="none" stroke-width="0" fill="#e03131"></path><path d="M42.61 4.6 C51.47 0.68, 62.14 -0.38, 71.86 0.76 C81.59 1.9, 92.87 5.98, 100.96 11.42 C109.06 16.87, 116.5 24.63, 120.46 33.41 C124.42 42.19, 125.12 54.59, 124.73 64.1 C124.35 73.62, 122.52 82.4, 118.14 90.51 C113.76 98.62, 106.55 106.92, 98.45 112.77 C90.34 118.63, 79.37 124.17, 69.53 125.62 C59.68 127.06, 48.35 125.24, 39.37 121.45 C30.39 117.66, 21.67 110.37, 15.65 102.87 C9.62 95.37, 5.85 85.64, 3.22 76.44 C0.59 67.25, -2.03 56.82, -0.13 47.71 C1.76 38.6, 1.13 29.09, 14.6 21.79 C28.08 14.48, 64.19 3.24, 80.7 3.9 C97.21 4.56, 113.91 25.11, 113.65 25.76 M44.81 4.24 C54.08 1.13, 69.42 0.42, 79.02 2.09 C88.63 3.76, 94.97 7.59, 102.45 14.28 C109.93 20.97, 119.7 32.7, 123.9 42.24 C128.1 51.79, 129.42 62.13, 127.64 71.56 C125.87 80.98, 118.57 90.77, 113.23 98.81 C107.89 106.84, 103.56 115.16, 95.6 119.77 C87.64 124.37, 75.39 126.61, 65.47 126.43 C55.55 126.24, 44.56 123.03, 36.06 118.68 C27.56 114.32, 20.47 108.21, 14.46 100.29 C8.45 92.38, 1.75 81.24, -0.02 71.18 C-1.78 61.13, 0.76 49.31, 3.86 39.95 C6.97 30.6, 11.74 20.91, 18.59 15.04 C25.43 9.18, 40.57 6.56, 44.94 4.77 C49.32 2.98, 43.7 3.25, 44.84 4.3" stroke="#1e1e1e" stroke-width="4" fill="none"></path></g><g transform="translate(10 167.50000000000023) rotate(0 74.0159683227539 45)"><text x="74.0159683227539" y="31.536" font-family="Virgil, Segoe UI Emoji" font-size="36px" fill="#1e1e1e" text-anchor="middle" style="white-space: pre;" direction="ltr" dominant-baseline="alphabetic">Meeting </text><text x="74.0159683227539" y="76.536" font-family="Virgil, Segoe UI Emoji" font-size="36px" fill="#1e1e1e" text-anchor="middle" style="white-space: pre;" direction="ltr" dominant-baseline="alphabetic">NFRs</text></g><g transform="translate(270.95871225992823 164.16666666666652) rotate(0 120.70795440673828 90)"><text x="120.70795440673828" y="31.536" font-family="Virgil, Segoe UI Emoji" font-size="36px" fill="#1e1e1e" text-anchor="middle" style="white-space: pre;" direction="ltr" dominant-baseline="alphabetic">Slightly </text><text x="120.70795440673828" y="76.536" font-family="Virgil, Segoe UI Emoji" font-size="36px" fill="#1e1e1e" text-anchor="middle" style="white-space: pre;" direction="ltr" dominant-baseline="alphabetic">exceeding, non</text><text x="120.70795440673828" y="121.536" font-family="Virgil, Segoe UI Emoji" font-size="36px" fill="#1e1e1e" text-anchor="middle" style="white-space: pre;" direction="ltr" dominant-baseline="alphabetic">urgent </text><text x="120.70795440673828" y="166.536" font-family="Virgil, Segoe UI Emoji" font-size="36px" fill="#1e1e1e" text-anchor="middle" style="white-space: pre;" direction="ltr" dominant-baseline="alphabetic"></text></g><g transform="translate(575.9307200113931 180.83333333333326) rotate(0 110.73594665527344 67.5)"><text x="110.73594665527344" y="31.536" font-family="Virgil, Segoe UI Emoji" font-size="36px" fill="#1e1e1e" text-anchor="middle" style="white-space: pre;" direction="ltr" dominant-baseline="alphabetic">Significantly </text><text x="110.73594665527344" y="76.536" font-family="Virgil, Segoe UI Emoji" font-size="36px" fill="#1e1e1e" text-anchor="middle" style="white-space: pre;" direction="ltr" dominant-baseline="alphabetic">exceeding, </text><text x="110.73594665527344" y="121.536" font-family="Virgil, Segoe UI Emoji" font-size="36px" fill="#1e1e1e" text-anchor="middle" style="white-space: pre;" direction="ltr" dominant-baseline="alphabetic">needs action</text></g></svg>