<svg version="1.1" xmlns="http://www.w3.org/2000/svg" viewBox="0 0 1121.5 896" width="2243" height="1792">
  <!-- svg-source:excalidraw -->
  
  <defs>
    <style class="style-fonts">
      @font-face {
        font-family: "Virgil";
        src: url("https://excalidraw.com/Virgil.woff2");
      }
      @font-face {
        font-family: "Cascadia";
        src: url("https://excalidraw.com/Cascadia.woff2");
      }
      @font-face {
        font-family: "Assistant";
        src: url("https://excalidraw.com/Assistant-Regular.woff2");
      }
    </style>
    
  </defs>
  <g stroke-linecap="round" transform="translate(554 10) rotate(0 58.5 63.5)"><path d="M103.9 22.94 C110.17 29.21, 114.2 38.78, 116.36 48.2 C118.51 57.61, 119.38 69.7, 116.84 79.43 C114.3 89.15, 107.2 99.5, 101.11 106.57 C95.02 113.64, 88.74 118.46, 80.3 121.86 C71.87 125.26, 59.6 128.01, 50.52 126.98 C41.44 125.94, 33.08 121.55, 25.84 115.66 C18.6 109.78, 11.61 100.63, 7.1 91.67 C2.59 82.71, -1.09 71.69, -1.21 61.91 C-1.33 52.13, 1.81 41.4, 6.36 32.99 C10.9 24.57, 18.52 16.95, 26.08 11.42 C33.65 5.9, 42.46 0.82, 51.76 -0.17 C61.05 -1.15, 72.55 0.83, 81.86 5.51 C91.18 10.19, 103.11 22.88, 107.66 27.93 C112.21 32.98, 110.08 35.12, 109.18 35.81 M30.15 11.35 C37.02 6.26, 46.86 1.74, 55.62 0.82 C64.38 -0.09, 74.6 1.9, 82.72 5.85 C90.85 9.8, 99.24 16.62, 104.39 24.54 C109.55 32.46, 112.15 43.2, 113.65 53.38 C115.14 63.55, 115.39 76.16, 113.36 85.6 C111.34 95.05, 108.12 103.97, 101.49 110.05 C94.86 116.13, 82.39 119.04, 73.57 122.1 C64.75 125.17, 57.13 129.59, 48.57 128.43 C40.02 127.28, 29.63 122.02, 22.25 115.17 C14.87 108.33, 7.74 96.62, 4.31 87.38 C0.88 78.13, 1.03 69.51, 1.69 59.71 C2.36 49.9, 3.36 36.86, 8.32 28.54 C13.29 20.22, 28.43 13.13, 31.47 9.78 C34.52 6.43, 27.02 7.32, 26.6 8.43" stroke="none" stroke-width="0" fill="#b2f2bb"></path><path d="M29.75 7 C37.15 2.12, 48.83 0.68, 58.01 0.56 C67.19 0.43, 76.72 1.54, 84.83 6.24 C92.93 10.94, 101.32 20.42, 106.65 28.76 C111.99 37.1, 115.78 46.54, 116.81 56.31 C117.84 66.08, 115.77 78.44, 112.83 87.4 C109.9 96.36, 105.77 103.76, 99.21 110.08 C92.66 116.39, 82.76 122.64, 73.51 125.27 C64.27 127.9, 52.44 128.22, 43.75 125.86 C35.05 123.51, 28.32 118.02, 21.35 111.14 C14.39 104.26, 5.12 93.97, 1.95 84.59 C-1.22 75.22, 1.01 64.27, 2.31 54.89 C3.62 45.51, 1.29 37.13, 9.77 28.33 C18.25 19.53, 42.75 6.4, 53.19 2.1 C63.62 -2.2, 72.29 1.77, 72.39 2.54 M20.52 17.23 C26.36 10.16, 34.85 2.46, 43.08 -0.02 C51.3 -2.5, 60.81 0.11, 69.87 2.36 C78.92 4.62, 90.52 7.7, 97.41 13.5 C104.29 19.31, 107.48 27.44, 111.18 37.18 C114.87 46.91, 119.87 61.83, 119.58 71.9 C119.28 81.97, 115.22 90.15, 109.4 97.59 C103.58 105.03, 93.44 111.43, 84.66 116.54 C75.88 121.66, 65.2 127.37, 56.73 128.28 C48.26 129.2, 41.58 127, 33.85 122.03 C26.13 117.07, 16.36 106.69, 10.38 98.49 C4.4 90.3, -0.81 82.42, -2.04 72.86 C-3.27 63.3, -0.14 50.28, 3.01 41.16 C6.16 32.04, 14.24 21.91, 16.85 18.15 C19.45 14.4, 17.26 18.38, 18.66 18.62" stroke="#1e1e1e" stroke-width="4" fill="none"></path></g><g transform="translate(584.7842700852543 48.598719394654154) rotate(0 27.84998321533203 25)"><text x="27.84998321533203" y="0" font-family="Virgil, Segoe UI Emoji" font-size="20px" fill="#1e1e1e" text-anchor="middle" style="white-space: pre;" direction="ltr" dominant-baseline="text-before-edge">Exec </text><text x="27.84998321533203" y="25" font-family="Virgil, Segoe UI Emoji" font-size="20px" fill="#1e1e1e" text-anchor="middle" style="white-space: pre;" direction="ltr" dominant-baseline="text-before-edge">level</text></g><g stroke-linecap="round" transform="translate(357.5 247.5) rotate(0 64 63.5)"><path d="M44.69 3.1 C53.58 0.06, 66.08 1.05, 76.12 2.91 C86.15 4.77, 97.1 8.24, 104.92 14.28 C112.74 20.32, 118.9 29.94, 123.02 39.16 C127.13 48.39, 130.37 59.68, 129.61 69.64 C128.84 79.59, 123.99 91.07, 118.43 98.9 C112.86 106.73, 104.54 111.74, 96.22 116.62 C87.9 121.49, 78.43 127.35, 68.52 128.16 C58.6 128.97, 45.67 125.95, 36.71 121.47 C27.75 117, 20.57 109.12, 14.76 101.3 C8.96 93.48, 3.76 84.25, 1.9 74.56 C0.04 64.87, 0.38 52.88, 3.58 43.16 C6.79 33.43, 6.73 22.55, 21.14 16.22 C35.55 9.88, 73.67 1.74, 90.03 5.15 C106.39 8.56, 119.95 35.46, 119.3 36.67 M96.91 7.07 C105.42 10.21, 112.85 18.58, 118.36 26.81 C123.86 35.05, 129.41 46.11, 129.94 56.49 C130.48 66.87, 126.2 79.54, 121.58 89.11 C116.95 98.69, 109.43 107.55, 102.18 113.94 C94.93 120.33, 87 125.45, 78.06 127.45 C69.13 129.46, 58.37 128.92, 48.57 125.96 C38.77 123, 26.87 116.33, 19.26 109.69 C11.66 103.04, 5.67 95.3, 2.94 86.09 C0.2 76.87, 0.93 64.47, 2.85 54.4 C4.78 44.34, 9.29 33.66, 14.49 25.71 C19.7 17.75, 25.19 10.71, 34.08 6.67 C42.96 2.64, 57.86 1.23, 67.81 1.5 C77.75 1.76, 88.83 7.17, 93.74 8.25 C98.65 9.33, 97.24 7.37, 97.27 7.99" stroke="none" stroke-width="0" fill="#b2f2bb"></path><path d="M32.54 8.81 C40.01 3.02, 49.46 0.93, 59 0.58 C68.54 0.23, 80.22 2.93, 89.77 6.71 C99.31 10.5, 109.97 15.57, 116.24 23.29 C122.52 31.01, 125.9 42.9, 127.42 53.05 C128.95 63.19, 128.6 74.76, 125.4 84.14 C122.21 93.53, 115.13 102.48, 108.26 109.37 C101.39 116.27, 93.41 123, 84.2 125.5 C74.98 128, 63.21 126.71, 52.95 124.36 C42.7 122.02, 30.41 117.55, 22.66 111.44 C14.91 105.32, 10.35 96.49, 6.48 87.67 C2.6 78.86, -1.44 68.07, -0.6 58.56 C0.24 49.05, 2.96 40.4, 11.53 30.61 C20.11 20.82, 40.2 4.83, 50.85 -0.17 C61.49 -5.17, 75.21 -0.81, 75.4 0.61 M31.16 6.05 C39.55 0.4, 53.82 -1.83, 63.79 -2.02 C73.76 -2.2, 81.9 -0.07, 90.97 4.94 C100.04 9.94, 112.09 19.78, 118.2 28.02 C124.31 36.27, 126.67 44.79, 127.64 54.4 C128.6 64, 127.31 75.94, 123.99 85.67 C120.66 95.39, 114.45 105.89, 107.68 112.76 C100.91 119.62, 93.04 124.96, 83.36 126.86 C73.68 128.76, 59.47 126.97, 49.6 124.15 C39.73 121.33, 31.92 115.61, 24.13 109.92 C16.35 104.22, 6.38 99.07, 2.87 89.96 C-0.65 80.86, 1.69 65.92, 3.05 55.28 C4.4 44.63, 6.09 34.36, 10.98 26.09 C15.88 17.83, 28.14 8.51, 32.44 5.69 C36.74 2.87, 35.95 7.47, 36.78 9.17" stroke="#1e1e1e" stroke-width="4" fill="none"></path></g><g transform="translate(383.2552062872637 286.09871939465415) rotate(0 38.489959716796875 25)"><text x="38.489959716796875" y="0" font-family="Virgil, Segoe UI Emoji" font-size="20px" fill="#1e1e1e" text-anchor="middle" style="white-space: pre;" direction="ltr" dominant-baseline="text-before-edge">Product</text><text x="38.489959716796875" y="25" font-family="Virgil, Segoe UI Emoji" font-size="20px" fill="#1e1e1e" text-anchor="middle" style="white-space: pre;" direction="ltr" dominant-baseline="text-before-edge">team</text></g><g stroke-linecap="round" transform="translate(631.5 238.5) rotate(0 58.5 63.5)"><path d="M52.41 -0.92 C60.77 -2.84, 72.96 -0.67, 81.8 3.41 C90.64 7.49, 100.04 15.35, 105.45 23.57 C110.86 31.79, 112.46 42.75, 114.24 52.71 C116.02 62.68, 118.75 74.3, 116.14 83.35 C113.53 92.4, 104.92 100.56, 98.58 107.01 C92.24 113.47, 86.31 119.02, 78.12 122.1 C69.94 125.19, 58.83 126.58, 49.48 125.53 C40.13 124.47, 29.59 121.48, 22.02 115.78 C14.44 110.08, 7.84 100.59, 4.04 91.33 C0.24 82.08, -1.35 69.94, -0.81 60.24 C-0.27 50.54, 2.86 41.85, 7.28 33.14 C11.71 24.43, 13.28 12.97, 25.75 7.96 C38.21 2.94, 69.58 0.87, 82.09 3.04 C94.61 5.21, 101.54 19.93, 100.83 20.97 M99.78 18.86 C106.61 25.21, 112.49 34.42, 115.07 43.38 C117.64 52.34, 116.89 63.19, 115.24 72.64 C113.58 82.1, 109.98 91.72, 105.13 100.11 C100.28 108.5, 93.82 118.28, 86.15 122.98 C78.48 127.69, 68.04 128.71, 59.09 128.33 C50.13 127.95, 40.22 125.23, 32.4 120.71 C24.57 116.19, 17.88 109.72, 12.14 101.2 C6.39 92.67, -0.59 80.13, -2.07 69.58 C-3.56 59.04, -0.83 47.24, 3.21 37.93 C7.25 28.62, 15.17 19.9, 22.18 13.71 C29.19 7.53, 36.39 2.96, 45.28 0.83 C54.16 -1.29, 66.87 -1.47, 75.49 0.97 C84.12 3.4, 92.98 12.68, 97.01 15.46 C101.04 18.25, 100 16.73, 99.67 17.68" stroke="none" stroke-width="0" fill="#b2f2bb"></path><path d="M36.23 3.25 C43.96 -1.48, 57.5 -2.77, 66.72 -1.14 C75.94 0.48, 84.47 6.86, 91.55 12.98 C98.62 19.1, 105.18 27.37, 109.17 35.6 C113.15 43.83, 115.24 52.63, 115.45 62.37 C115.66 72.11, 114.27 85.06, 110.42 94.06 C106.58 103.06, 99.57 110.76, 92.39 116.35 C85.2 121.94, 76.43 126.61, 67.3 127.62 C58.17 128.64, 46.39 125.98, 37.59 122.43 C28.8 118.87, 20.37 113.73, 14.52 106.29 C8.66 98.85, 4.3 87.19, 2.46 77.8 C0.61 68.41, 1.48 59.09, 3.45 49.95 C5.42 40.82, 6.68 31.07, 14.26 22.98 C21.85 14.89, 40.77 4.88, 48.94 1.39 C57.12 -2.1, 63 1.33, 63.32 2.04 M39.31 3.17 C47.06 -1.52, 57.42 -0.03, 65.94 1.08 C74.46 2.2, 83.21 4.82, 90.45 9.84 C97.68 14.87, 104.61 22.37, 109.35 31.23 C114.08 40.1, 118.2 53.1, 118.86 63.04 C119.52 72.98, 117.3 81.99, 113.29 90.85 C109.27 99.72, 102.92 110.55, 94.76 116.22 C86.6 121.88, 74.06 123.13, 64.32 124.82 C54.58 126.51, 44.3 128.87, 36.32 126.35 C28.35 123.83, 21.9 117.19, 16.46 109.71 C11.02 102.22, 5.71 91.47, 3.69 81.47 C1.67 71.46, 3.15 59.07, 4.34 49.65 C5.53 40.23, 5.73 32.6, 10.83 24.95 C15.92 17.31, 30.64 7.1, 34.94 3.76 C39.24 0.42, 36.29 4.25, 36.63 4.93" stroke="#1e1e1e" stroke-width="4" fill="none"></path></g><g transform="translate(655.7042758835942 289.59871939465415) rotate(0 34.42997741699219 12.5)"><text x="34.42997741699219" y="0" font-family="Virgil, Segoe UI Emoji" font-size="20px" fill="#1e1e1e" text-anchor="middle" style="white-space: pre;" direction="ltr" dominant-baseline="text-before-edge">Finance</text></g><g stroke-linecap="round" transform="translate(858.5 239.5) rotate(0 81.5 60.5)"><path d="M147.77 27.48 C155.37 33.41, 160.94 42.42, 163.1 51.06 C165.27 59.7, 164.83 70.75, 160.76 79.32 C156.69 87.89, 147.18 96.13, 138.68 102.48 C130.19 108.83, 120.32 114.1, 109.77 117.41 C99.23 120.72, 87.29 123.39, 75.43 122.34 C63.57 121.3, 49.08 115.66, 38.62 111.15 C28.16 106.64, 18.74 102.28, 12.68 95.27 C6.62 88.27, 3.63 77.83, 2.27 69.15 C0.91 60.47, 1.09 51.28, 4.53 43.19 C7.97 35.11, 14.75 27.47, 22.89 20.62 C31.04 13.76, 42.6 5.75, 53.41 2.07 C64.22 -1.61, 75.88 -2.54, 87.75 -1.48 C99.62 -0.42, 112.1 -1.94, 124.65 8.41 C137.2 18.77, 159.16 46.28, 163.06 60.66 C166.96 75.04, 149.24 94.52, 148.03 94.67 M87.58 0.9 C98.55 -0.59, 110.35 0.66, 119.84 4.39 C129.34 8.12, 137.9 15.82, 144.53 23.28 C151.16 30.75, 156.74 40.34, 159.64 49.16 C162.53 57.99, 164.51 67.81, 161.91 76.22 C159.31 84.62, 151.82 93.33, 144.04 99.6 C136.25 105.87, 126.03 109.92, 115.2 113.86 C104.37 117.81, 91.4 122.95, 79.06 123.26 C66.72 123.57, 51.64 120.19, 41.17 115.73 C30.71 111.27, 23.23 103.59, 16.29 96.49 C9.36 89.39, 1.6 81.5, -0.43 73.12 C-2.47 64.75, 0.52 55.45, 4.1 46.25 C7.68 37.05, 13.02 24.65, 21.04 17.95 C29.06 11.25, 41.81 9.27, 52.22 6.05 C62.63 2.83, 78.3 -0.17, 83.5 -1.37 C88.7 -2.58, 83.36 -2.87, 83.43 -1.18" stroke="none" stroke-width="0" fill="#b2f2bb"></path><path d="M145.55 23 C153.83 28.59, 159.39 37.28, 162.07 46.26 C164.76 55.24, 164.73 67.95, 161.66 76.9 C158.59 85.84, 151.1 93.34, 143.64 99.91 C136.17 106.49, 127.25 112.67, 116.88 116.34 C106.5 120, 93.3 122.38, 81.4 121.9 C69.5 121.41, 55.96 117.27, 45.49 113.42 C35.02 109.57, 26.14 105.28, 18.56 98.8 C10.99 92.31, 3.06 83.19, 0.04 74.49 C-2.97 65.8, -2.72 55.08, 0.48 46.62 C3.68 38.16, 11.53 30.58, 19.25 23.72 C26.97 16.86, 36.08 9.5, 46.78 5.46 C57.49 1.42, 71.44 -0.68, 83.49 -0.53 C95.54 -0.38, 107.43 0.2, 119.1 6.39 C130.78 12.58, 146.61 29.7, 153.54 36.6 C160.47 43.5, 161.58 47.8, 160.69 47.79 M135.46 16.52 C145 20.87, 152.94 26.74, 157.33 34.49 C161.72 42.24, 162.42 54.08, 161.82 63.01 C161.21 71.93, 158.44 80.31, 153.7 88.04 C148.95 95.77, 142.46 103.89, 133.35 109.4 C124.25 114.92, 111.17 119.08, 99.06 121.13 C86.94 123.19, 72.35 124.26, 60.66 121.7 C48.97 119.15, 38.25 111.8, 28.94 105.8 C19.62 99.79, 9.84 93.62, 4.77 85.66 C-0.3 77.7, -1.99 67.19, -1.48 58.01 C-0.98 48.82, 2.25 38.16, 7.8 30.53 C13.35 22.91, 21.73 16.7, 31.82 12.26 C41.92 7.82, 57.12 5.87, 68.37 3.88 C79.63 1.9, 87.97 -0.97, 99.37 0.35 C110.76 1.67, 131.36 9.13, 136.76 11.8 C142.15 14.47, 132.75 15.38, 131.76 16.37" stroke="#1e1e1e" stroke-width="4" fill="none"></path></g><g transform="translate(890.710847076949 275.2200397382139) rotate(0 49.159950256347656 25)"><text x="49.159950256347656" y="0" font-family="Virgil, Segoe UI Emoji" font-size="20px" fill="#1e1e1e" text-anchor="middle" style="white-space: pre;" direction="ltr" dominant-baseline="text-before-edge">Internal </text><text x="49.159950256347656" y="25" font-family="Virgil, Segoe UI Emoji" font-size="20px" fill="#1e1e1e" text-anchor="middle" style="white-space: pre;" direction="ltr" dominant-baseline="text-before-edge">technology</text></g><g stroke-linecap="round"><g transform="translate(561 131) rotate(0 -47 56)"><path d="M-2.18 2.44 C-17.95 21.42, -79.55 93.68, -94.8 112.22 M1.83 1.3 C-14.36 20.93, -81.28 98, -97.48 115.97" stroke="#1e1e1e" stroke-width="4" fill="none"></path></g><g transform="translate(561 131) rotate(0 -47 56)"><path d="M-86.62 92.12 C-91.02 99.68, -92.63 104.96, -95.94 115.28 M-88.34 91.91 C-92.14 100.68, -93.86 108.05, -97.37 116.24" stroke="#1e1e1e" stroke-width="4" fill="none"></path></g><g transform="translate(561 131) rotate(0 -47 56)"><path d="M-73.79 103.42 C-81.88 107.56, -87.26 109.53, -95.94 115.28 M-75.51 103.21 C-83.7 108.09, -89.85 111.57, -97.37 116.24" stroke="#1e1e1e" stroke-width="4" fill="none"></path></g></g><mask></mask><g stroke-linecap="round"><g transform="translate(624.8211490403119 157.365324880034) rotate(0 17.5 35)"><path d="M0.65 -2.78 C6.48 8.63, 31.3 57.08, 36.76 69.06 M-2.44 1.89 C3.01 13.64, 29.95 60.54, 35.48 72.19" stroke="#1e1e1e" stroke-width="4" fill="none"></path></g><g transform="translate(624.8211490403119 157.365324880034) rotate(0 17.5 35)"><path d="M14.93 56.7 C23.05 60.36, 29.85 67.27, 35.3 71.64 M16.88 56.29 C21.33 59.33, 26.4 63.7, 35.6 71.36" stroke="#1e1e1e" stroke-width="4" fill="none"></path></g><g transform="translate(624.8211490403119 157.365324880034) rotate(0 17.5 35)"><path d="M30.04 48.68 C32.67 55.31, 33.96 65.13, 35.3 71.64 M31.99 48.28 C32.87 53.3, 34.31 59.59, 35.6 71.36" stroke="#1e1e1e" stroke-width="4" fill="none"></path></g></g><mask></mask><g stroke-linecap="round"><g transform="translate(687.8399391851563 118.29568668149409) rotate(0 107 50.5)"><path d="M1.3 -0.11 C37.12 16.7, 177.64 83.49, 213.04 100.53 M-1.44 -2.64 C34.09 14.64, 174.76 87.27, 210.28 103.91" stroke="#1e1e1e" stroke-width="4" fill="none"></path></g><g transform="translate(687.8399391851563 118.29568668149409) rotate(0 107 50.5)"><path d="M185.36 100.45 C190.89 101.45, 197.81 102.53, 211.58 104.13 M185.59 101.44 C194.7 102.65, 204.78 103.02, 209.7 103.34" stroke="#1e1e1e" stroke-width="4" fill="none"></path></g><g transform="translate(687.8399391851563 118.29568668149409) rotate(0 107 50.5)"><path d="M192.95 85.13 C196.69 89.73, 201.85 94.38, 211.58 104.13 M193.18 86.12 C199.34 93.06, 206.55 99.22, 209.7 103.34" stroke="#1e1e1e" stroke-width="4" fill="none"></path></g></g><mask></mask><g stroke-linecap="round" transform="translate(10 534.5) rotate(0 64 63.5)"><path d="M51.44 2.7 C60.39 -0.34, 72.14 -0.58, 81.56 2.25 C90.97 5.08, 100.62 12.51, 107.93 19.69 C115.25 26.86, 122.56 36.39, 125.44 45.31 C128.32 54.23, 127.25 63.95, 125.24 73.21 C123.23 82.48, 119.47 92.92, 113.38 100.92 C107.29 108.92, 97.62 117.06, 88.7 121.21 C79.77 125.35, 69.65 126.56, 59.84 125.8 C50.03 125.05, 38.44 121.55, 29.83 116.67 C21.22 111.78, 13.3 104.85, 8.19 96.5 C3.08 88.14, -0.52 76.01, -0.82 66.55 C-1.12 57.09, 1.91 48.6, 6.38 39.74 C10.85 30.88, 13.76 19.59, 25.99 13.41 C38.23 7.22, 66.97 2.58, 79.8 2.6 C92.62 2.62, 103.25 12.8, 102.93 13.52 M46.83 0.81 C56.07 -3.56, 65.88 -3.65, 75.5 -1.47 C85.13 0.72, 96.67 7.39, 104.59 13.92 C112.5 20.45, 119.04 29, 123.01 37.69 C126.98 46.37, 128.99 55.89, 128.39 66.05 C127.78 76.21, 124.22 89.87, 119.4 98.63 C114.58 107.39, 108.1 113.9, 99.48 118.62 C90.87 123.33, 77.79 126.37, 67.73 126.94 C57.68 127.51, 47.69 126.03, 39.15 122.03 C30.62 118.03, 22.35 110.33, 16.52 102.93 C10.69 95.54, 6.24 87.01, 4.16 77.67 C2.08 68.33, 1.65 56.99, 4.04 46.88 C6.43 36.77, 12.22 24.6, 18.48 17.02 C24.74 9.43, 37.13 3.09, 41.61 1.38 C46.09 -0.34, 44.24 5.59, 45.38 6.73" stroke="none" stroke-width="0" fill="#b2f2bb"></path><path d="M14.79 19.88 C20.51 12.27, 34.2 8.47, 43.44 5.14 C52.68 1.82, 60.72 -1.04, 70.24 -0.07 C79.76 0.89, 92.41 5.13, 100.57 10.94 C108.73 16.74, 114.37 25.81, 119.18 34.76 C124 43.71, 129.29 54.77, 129.45 64.65 C129.61 74.53, 125.12 85.43, 120.15 94.03 C115.18 102.63, 107.46 110.52, 99.63 116.24 C91.8 121.96, 83.16 127.29, 73.15 128.37 C63.13 129.44, 49.15 126.5, 39.55 122.67 C29.95 118.85, 21.49 112.71, 15.53 105.41 C9.57 98.11, 6.13 88.66, 3.78 78.88 C1.43 69.11, -4.05 58.54, 1.41 46.75 C6.86 34.97, 27.04 15.72, 36.52 8.18 C46 0.64, 57.84 1.11, 58.28 1.53 M106.5 14.55 C113.53 20.91, 118.35 34.43, 121.76 43.47 C125.16 52.52, 128.05 59.84, 126.93 68.83 C125.81 77.82, 120.6 88.55, 115.03 97.42 C109.47 106.28, 102.18 117.33, 93.56 122.04 C84.93 126.76, 73.47 125.84, 63.29 125.72 C53.12 125.59, 40.93 125.49, 32.5 121.28 C24.08 117.07, 17.72 108.66, 12.76 100.47 C7.8 92.28, 4.46 82.24, 2.73 72.13 C1 62.02, -0.8 49.36, 2.35 39.83 C5.51 30.31, 14 21.64, 21.64 14.98 C29.28 8.32, 38.21 2.21, 48.2 -0.12 C58.19 -2.45, 71.61 -1.17, 81.57 1 C91.53 3.17, 104.08 10.59, 107.96 12.9 C111.83 15.22, 106.12 13.75, 104.81 14.88" stroke="#1e1e1e" stroke-width="4" fill="none"></path></g><g transform="translate(45.6751968268145 585.5987193946542) rotate(0 28.569969177246094 12.5)"><text x="28.569969177246094" y="0" font-family="Virgil, Segoe UI Emoji" font-size="20px" fill="#1e1e1e" text-anchor="middle" style="white-space: pre;" direction="ltr" dominant-baseline="text-before-edge">Mobile</text></g><g stroke-linecap="round" transform="translate(244 530.5) rotate(0 82 63.5)"><path d="M55.3 3.73 C65.75 0.05, 81.98 -0.42, 93.96 0.5 C105.93 1.43, 117.17 4.07, 127.15 9.28 C137.13 14.48, 147.46 23.8, 153.84 31.73 C160.23 39.67, 164.33 48.15, 165.46 56.9 C166.59 65.64, 164.97 75.22, 160.62 84.2 C156.26 93.17, 148.01 104.33, 139.33 110.74 C130.66 117.16, 119.93 120.08, 108.59 122.7 C97.24 125.32, 82.92 127.66, 71.28 126.44 C59.65 125.23, 48.79 120.41, 38.79 115.41 C28.78 110.41, 17.37 104.39, 11.24 96.42 C5.1 88.45, 2.79 77.03, 1.96 67.57 C1.12 58.11, 2.12 48.02, 6.22 39.67 C10.31 31.31, 12.04 23.67, 26.53 17.44 C41.01 11.2, 75.77 2.77, 93.13 2.25 C110.5 1.74, 130.76 13.56, 130.72 14.36 M61.97 -0.18 C73.03 -3.37, 88.51 -3.25, 100.7 -0.81 C112.88 1.63, 126.02 8.07, 135.08 14.45 C144.13 20.83, 150.64 29.19, 155.02 37.45 C159.4 45.71, 160.85 55.02, 161.36 64.02 C161.88 73.02, 162.98 82.76, 158.11 91.47 C153.24 100.18, 142.12 110.55, 132.14 116.28 C122.15 122, 109.32 124.23, 98.21 125.82 C87.11 127.41, 77.27 127.88, 65.51 125.84 C53.75 123.79, 37.46 119.15, 27.66 113.55 C17.87 107.95, 11.13 100.93, 6.73 92.26 C2.33 83.59, 1.25 70.76, 1.25 61.52 C1.26 52.29, 1.84 44.56, 6.79 36.86 C11.73 29.16, 20.88 21.3, 30.92 15.34 C40.95 9.38, 61.77 3.29, 67 1.1 C72.22 -1.08, 62.48 0.9, 62.26 2.22" stroke="none" stroke-width="0" fill="#b2f2bb"></path><path d="M137.77 17.41 C146.98 22.62, 155.78 33.67, 160.37 42.63 C164.95 51.59, 166.72 61.94, 165.27 71.18 C163.83 80.42, 158.2 90.18, 151.7 98.05 C145.19 105.93, 136.16 113.61, 126.25 118.43 C116.34 123.25, 104.21 125.9, 92.22 126.98 C80.23 128.06, 65.83 127.65, 54.31 124.91 C42.79 122.18, 31.59 117.13, 23.07 110.58 C14.55 104.03, 6.69 94.61, 3.19 85.61 C-0.31 76.62, 0.81 66.15, 2.06 56.62 C3.32 47.09, 4.83 36.32, 10.73 28.46 C16.64 20.59, 26.93 14.09, 37.49 9.41 C48.05 4.73, 62.6 1.22, 74.1 0.38 C85.61 -0.46, 94 -0.75, 106.53 4.35 C119.07 9.45, 140.67 24.86, 149.34 30.98 C158.02 37.1, 159.25 40.83, 158.58 41.07 M121.79 7.83 C132.37 11.98, 143.27 22.07, 150.02 29.56 C156.78 37.05, 160.47 43.88, 162.34 52.75 C164.22 61.63, 164.81 74.45, 161.28 82.79 C157.75 91.13, 148.8 96.7, 141.17 102.8 C133.54 108.9, 126.1 115.82, 115.48 119.39 C104.86 122.97, 89.31 123.91, 77.45 124.25 C65.59 124.58, 54.35 125.44, 44.34 121.4 C34.33 117.36, 24.47 108.13, 17.37 100.03 C10.27 91.93, 4.14 81.52, 1.72 72.8 C-0.7 64.09, -0.75 55.9, 2.85 47.73 C6.46 39.56, 15.76 31.01, 23.33 23.8 C30.89 16.59, 37.91 8.55, 48.25 4.47 C58.59 0.39, 73.14 -1.27, 85.35 -0.66 C97.56 -0.05, 115.15 6.12, 121.52 8.12 C127.89 10.13, 123.83 10.97, 123.57 11.39" stroke="#1e1e1e" stroke-width="4" fill="none"></path></g><g transform="translate(276.2572875828391 581.5987193946542) rotate(0 49.75995635986328 12.5)"><text x="49.75995635986328" y="0" font-family="Virgil, Segoe UI Emoji" font-size="20px" fill="#1e1e1e" text-anchor="middle" style="white-space: pre;" direction="ltr" dominant-baseline="text-before-edge">Catalogue</text></g><g stroke-linecap="round" transform="translate(507 539.5) rotate(0 82 63.5)"><path d="M148.27 26.54 C156.08 33.04, 161.43 42.49, 163.79 51.78 C166.14 61.06, 166.13 72.95, 162.4 82.24 C158.67 91.54, 149.37 100.85, 141.41 107.55 C133.45 114.24, 125.21 119.44, 114.65 122.43 C104.08 125.42, 90.03 126.31, 78.01 125.5 C66 124.7, 53.01 121.91, 42.55 117.63 C32.1 113.35, 22.37 106.98, 15.3 99.84 C8.23 92.71, 2.19 84.15, 0.15 74.81 C-1.9 65.47, -0.55 53.04, 3.04 43.82 C6.63 34.61, 13.55 25.73, 21.69 19.52 C29.83 13.31, 41.08 10.08, 51.88 6.54 C62.67 3.01, 74.64 -1.62, 86.44 -1.69 C98.24 -1.76, 110.69 -0.88, 122.67 6.13 C134.66 13.15, 152.2 32.58, 158.34 40.38 C164.48 48.18, 160.78 53.08, 159.52 52.92 M130.07 14.91 C139.2 19.44, 145.85 24.15, 151.93 31.95 C158.02 39.75, 165.48 52.37, 166.57 61.71 C167.66 71.05, 164.03 79.49, 158.49 87.99 C152.95 96.5, 142.7 106.65, 133.32 112.74 C123.94 118.82, 113.5 122.17, 102.21 124.52 C90.92 126.86, 77.19 127.91, 65.58 126.8 C53.96 125.68, 41.78 123.28, 32.49 117.84 C23.21 112.39, 15.67 102.88, 9.89 94.12 C4.11 85.36, -2.06 74.53, -2.17 65.29 C-2.28 56.05, 3.85 46.96, 9.22 38.69 C14.6 30.41, 21.89 22.13, 30.06 15.66 C38.24 9.19, 47.43 2.52, 58.3 -0.14 C69.17 -2.8, 83.06 -2.52, 95.3 -0.3 C107.54 1.92, 126.52 11.3, 131.76 13.2 C136.99 15.1, 127.36 10.55, 126.73 11.09" stroke="none" stroke-width="0" fill="#b2f2bb"></path><path d="M147.65 27.59 C155.35 33.68, 161.9 41.12, 163.82 49.95 C165.75 58.79, 162.53 71.43, 159.2 80.59 C155.88 89.76, 151.25 97.87, 143.88 104.94 C136.51 112, 125.92 119.14, 114.97 123 C104.02 126.87, 89.86 128.4, 78.2 128.13 C66.55 127.86, 55.15 125.82, 45.02 121.39 C34.89 116.96, 24.79 109.37, 17.43 101.55 C10.06 93.74, 3.53 83.71, 0.83 74.5 C-1.87 65.3, -1.78 54.74, 1.24 46.32 C4.26 37.9, 10.68 31.04, 18.93 23.99 C27.18 16.93, 39.73 7.81, 50.75 4.02 C61.77 0.23, 73.33 0.94, 85.04 1.26 C96.76 1.59, 108.54 -0.89, 121.05 5.97 C133.56 12.83, 153.06 32.81, 160.11 42.45 C167.15 52.08, 164.96 63.64, 163.32 63.8 M21.16 18.58 C28.08 10.72, 39.97 4.48, 51.48 0.98 C62.98 -2.52, 77.65 -4.07, 90.21 -2.42 C102.78 -0.77, 116.34 5.99, 126.88 10.89 C137.42 15.79, 147.54 19.6, 153.46 26.98 C159.38 34.35, 160.93 45.62, 162.41 55.16 C163.89 64.69, 166.22 74.94, 162.32 84.19 C158.41 93.43, 147.38 103.77, 138.99 110.64 C130.59 117.51, 122.39 123.17, 111.95 125.4 C101.51 127.63, 88.28 125.47, 76.33 124 C64.39 122.53, 50.64 121.34, 40.28 116.57 C29.92 111.79, 20.91 102.49, 14.17 95.36 C7.44 88.23, 1.51 82.84, -0.14 73.77 C-1.78 64.71, 0.34 50.23, 4.31 40.96 C8.28 31.69, 20.63 22.12, 23.69 18.16 C26.76 14.19, 21.61 16.7, 22.72 17.17" stroke="#1e1e1e" stroke-width="4" fill="none"></path></g><g transform="translate(538.4972854466087 565.5987193946542) rotate(0 50.51995849609375 37.5)"><text x="50.51995849609375" y="0" font-family="Virgil, Segoe UI Emoji" font-size="20px" fill="#1e1e1e" text-anchor="middle" style="white-space: pre;" direction="ltr" dominant-baseline="text-before-edge">Payments </text><text x="50.51995849609375" y="25" font-family="Virgil, Segoe UI Emoji" font-size="20px" fill="#1e1e1e" text-anchor="middle" style="white-space: pre;" direction="ltr" dominant-baseline="text-before-edge">and </text><text x="50.51995849609375" y="50" font-family="Virgil, Segoe UI Emoji" font-size="20px" fill="#1e1e1e" text-anchor="middle" style="white-space: pre;" direction="ltr" dominant-baseline="text-before-edge">Accounts</text></g><g stroke-linecap="round"><g transform="translate(713.8399391851563 388.2956866814941) rotate(0 41 29.5)"><path d="M-1.65 -1.36 C11.65 8.37, 65.33 50.45, 79.31 60.91" stroke="#1e1e1e" stroke-width="4.5" fill="none" stroke-dasharray="8 12"></path></g><g transform="translate(713.8399391851563 388.2956866814941) rotate(0 41 29.5)"><path d="M54.5 51.47 C63.61 55.85, 70.66 57.91, 77.96 60.24" stroke="#1e1e1e" stroke-width="4.5" fill="none"></path></g><g transform="translate(713.8399391851563 388.2956866814941) rotate(0 41 29.5)"><path d="M64.91 37.91 C71.21 46.04, 75.34 51.92, 77.96 60.24" stroke="#1e1e1e" stroke-width="4.5" fill="none"></path></g></g><mask></mask><g stroke-linecap="round"><g transform="translate(978.6964511571077 368.2265273585915) rotate(0 41 29.5)"><path d="M2.44 2.29 C15.56 11.89, 66.08 49.24, 79.39 58.47" stroke="#1e1e1e" stroke-width="4.5" fill="none" stroke-dasharray="8 12"></path></g><g transform="translate(978.6964511571077 368.2265273585915) rotate(0 41 29.5)"><path d="M56.96 49.83 C62.77 53.87, 70 55.77, 78.47 58.88" stroke="#1e1e1e" stroke-width="4.5" fill="none"></path></g><g transform="translate(978.6964511571077 368.2265273585915) rotate(0 41 29.5)"><path d="M66.95 35.95 C69.56 44.58, 73.56 50.98, 78.47 58.88" stroke="#1e1e1e" stroke-width="4.5" fill="none"></path></g></g><mask></mask><g stroke-linecap="round"><g transform="translate(346.82114904031187 338.365324880034) rotate(0 -120 94.5)"><path d="M1.14 -2.12 C-38.97 30.02, -197.74 159.63, -238.1 191.12 M-1.68 2.9 C-42.23 34.43, -199.03 156.29, -239.31 187.26" stroke="#1e1e1e" stroke-width="4" fill="none"></path></g><g transform="translate(346.82114904031187 338.365324880034) rotate(0 -120 94.5)"><path d="M-227.47 167.48 C-229.82 173.75, -238.16 181.86, -240.13 186.99 M-226.94 165.79 C-228.8 171.28, -232.67 176.87, -240.17 187.18" stroke="#1e1e1e" stroke-width="4" fill="none"></path></g><g transform="translate(346.82114904031187 338.365324880034) rotate(0 -120 94.5)"><path d="M-217.01 181 C-223.38 182.01, -235.83 184.81, -240.13 186.99 M-216.47 179.31 C-221.23 181.04, -227.97 182.91, -240.17 187.18" stroke="#1e1e1e" stroke-width="4" fill="none"></path></g></g><mask></mask><g stroke-linecap="round"><g transform="translate(406.08242240972686 399.50144088119237) rotate(0 -29 58)"><path d="M-0.13 0.46 C-10.09 20.23, -48.74 98.4, -58.72 117.29 M-3.64 -1.76 C-14.14 17.28, -52.92 93.4, -61.34 112.98" stroke="#1e1e1e" stroke-width="4" fill="none"></path></g><g transform="translate(406.08242240972686 399.50144088119237) rotate(0 -29 58)"><path d="M-58.64 87.58 C-58.96 95.11, -62.25 103.46, -63.19 113.99 M-58.94 87.87 C-60.51 94.1, -60.55 101, -60.9 113.6" stroke="#1e1e1e" stroke-width="4" fill="none"></path></g><g transform="translate(406.08242240972686 399.50144088119237) rotate(0 -29 58)"><path d="M-43.2 94.93 C-48.71 99.97, -57.22 105.84, -63.19 113.99 M-43.5 95.22 C-48.73 99.55, -52.47 104.68, -60.9 113.6" stroke="#1e1e1e" stroke-width="4" fill="none"></path></g></g><mask></mask><g stroke-linecap="round"><g transform="translate(468.7342354664961 380.2341631080958) rotate(0 53.5 73.5)"><path d="M-1.08 0.15 C17.14 24.43, 89.05 120.97, 107.21 145.56 M3.54 -2.24 C21.58 22.41, 87.91 122.84, 105.09 148.4" stroke="#1e1e1e" stroke-width="4" fill="none"></path></g><g transform="translate(468.7342354664961 380.2341631080958) rotate(0 53.5 73.5)"><path d="M85.05 133.75 C88.47 137.69, 94.53 139.2, 103.15 149.54 M85.45 132.73 C92.62 139.56, 98.59 144.09, 104.39 148.61" stroke="#1e1e1e" stroke-width="4" fill="none"></path></g><g transform="translate(468.7342354664961 380.2341631080958) rotate(0 53.5 73.5)"><path d="M99.28 124.27 C99.47 130.29, 102.32 133.95, 103.15 149.54 M99.68 123.24 C102.01 133.3, 103.13 141.07, 104.39 148.61" stroke="#1e1e1e" stroke-width="4" fill="none"></path></g></g><mask></mask><g stroke-linecap="round" transform="translate(365.5 755) rotate(0 102 63.5)"><path d="M181.62 22.33 C191.09 28.04, 194.65 37.48, 198.34 45.51 C202.03 53.54, 205.68 61.78, 203.76 70.52 C201.85 79.26, 194.19 90.27, 186.86 97.96 C179.54 105.65, 171.07 111.88, 159.8 116.66 C148.54 121.44, 133.35 125.09, 119.28 126.62 C105.21 128.16, 88.57 128.14, 75.38 125.87 C62.2 123.59, 50.71 118.39, 40.17 112.95 C29.63 107.51, 18.7 100.59, 12.15 93.21 C5.6 85.83, 1.58 76.92, 0.88 68.65 C0.18 60.38, 3.37 52.01, 7.94 43.6 C12.51 35.2, 18.91 24.49, 28.3 18.2 C37.68 11.9, 51.66 9.07, 64.25 5.83 C76.84 2.6, 89.94 -1.24, 103.85 -1.22 C117.77 -1.19, 131.21 -3.58, 147.73 5.97 C164.26 15.52, 195.73 41.81, 203 56.09 C210.28 70.37, 193.15 91.84, 191.38 91.67 M70.97 1.14 C82.33 -1.29, 98.24 2.05, 111.84 3.25 C125.44 4.46, 140.02 3.94, 152.56 8.36 C165.1 12.77, 178.67 22.16, 187.07 29.74 C195.46 37.32, 200.17 45.55, 202.92 53.84 C205.67 62.13, 207.02 71.26, 203.56 79.46 C200.11 87.66, 191.27 96.93, 182.21 103.05 C173.15 109.18, 161.1 112.23, 149.19 116.2 C137.29 120.17, 124.71 126.14, 110.78 126.9 C96.85 127.66, 78.93 123.27, 65.61 120.75 C52.3 118.22, 40.41 116.73, 30.87 111.76 C21.33 106.79, 13.7 98.82, 8.36 90.93 C3.03 83.04, -1.54 73.32, -1.16 64.42 C-0.78 55.52, 4.98 45.51, 10.64 37.54 C16.3 29.57, 22.12 22.07, 32.81 16.62 C43.51 11.17, 67.79 7.33, 74.8 4.84 C81.81 2.36, 74.74 0.57, 74.89 1.7" stroke="none" stroke-width="0" fill="#b2f2bb"></path><path d="M86.06 2.41 C99.02 0.25, 116.38 -0.66, 129.85 1.5 C143.31 3.66, 155.95 9.8, 166.84 15.36 C177.73 20.92, 188.8 27.54, 195.18 34.87 C201.56 42.2, 204.72 50.59, 205.14 59.36 C205.56 68.13, 202.79 79.35, 197.68 87.51 C192.57 95.67, 184.84 102.21, 174.49 108.33 C164.13 114.46, 148.6 121.31, 135.55 124.24 C122.49 127.18, 109.48 126.8, 96.16 125.93 C82.84 125.06, 68.03 122.93, 55.64 119.03 C43.25 115.14, 30.5 109.25, 21.8 102.54 C13.11 95.83, 6.57 87.34, 3.49 78.78 C0.42 70.22, 0.77 59.35, 3.36 51.2 C5.95 43.05, 11.46 36.91, 19.05 29.89 C26.63 22.87, 34.24 14.05, 48.88 9.06 C63.52 4.08, 93.71 0.73, 106.89 -0.02 C120.08 -0.77, 128.02 3.52, 127.98 4.57 M24.24 23.98 C31.24 16.95, 40.09 8.97, 52.02 4.93 C63.95 0.88, 82.12 -0.33, 95.81 -0.29 C109.5 -0.25, 121.73 2.11, 134.17 5.15 C146.6 8.19, 160.23 12.56, 170.44 17.95 C180.65 23.33, 189.87 29, 195.44 37.46 C201.01 45.91, 204.37 60, 203.85 68.7 C203.34 77.4, 198.13 82, 192.35 89.66 C186.57 97.33, 180.03 108.66, 169.17 114.7 C158.31 120.73, 140.63 124.28, 127.18 125.9 C113.73 127.51, 101.9 126.15, 88.48 124.37 C75.05 122.59, 58.57 119.57, 46.63 115.2 C34.68 110.84, 24.25 104.69, 16.8 98.17 C9.35 91.64, 4.53 83.96, 1.93 76.06 C-0.67 68.16, -1.64 59.25, 1.19 50.77 C4.02 42.29, 14.94 29.86, 18.91 25.19 C22.88 20.52, 23.1 22.14, 25.02 22.75" stroke="#1e1e1e" stroke-width="4" fill="none"></path></g><g transform="translate(405.18518217151177 793.5987193946542) rotate(0 62.18992614746094 25)"><text x="62.18992614746094" y="0" font-family="Virgil, Segoe UI Emoji" font-size="20px" fill="#1e1e1e" text-anchor="middle" style="white-space: pre;" direction="ltr" dominant-baseline="text-before-edge">Subscriptions</text><text x="62.18992614746094" y="25" font-family="Virgil, Segoe UI Emoji" font-size="20px" fill="#1e1e1e" text-anchor="middle" style="white-space: pre;" direction="ltr" dominant-baseline="text-before-edge">service</text></g><g stroke-linecap="round" transform="translate(662.5 750) rotate(0 82 63.5)"><path d="M146.27 22.33 C154.29 28.47, 156.92 38.69, 159.73 47.35 C162.54 56, 165.46 65.05, 163.13 74.26 C160.79 83.48, 152.89 94.94, 145.74 102.65 C138.59 110.35, 130.55 116.36, 120.21 120.51 C109.86 124.66, 95.96 127.28, 83.66 127.54 C71.36 127.81, 56.97 126.08, 46.4 122.1 C35.83 118.13, 27.49 110.88, 20.23 103.7 C12.96 96.53, 5.8 87.73, 2.82 79.05 C-0.16 70.37, -0.28 60.32, 2.32 51.64 C4.93 42.97, 11.48 34.64, 18.47 27.01 C25.46 19.37, 33.95 10.13, 44.27 5.85 C54.59 1.56, 68.77 1.53, 80.38 1.29 C91.99 1.05, 99.92 -5, 113.95 4.43 C127.97 13.85, 158.34 42.67, 164.51 57.84 C170.67 73.02, 152.52 95.13, 150.94 95.47 M55.46 1.45 C65.75 -2.57, 77.44 -3.04, 88.48 -1.29 C99.52 0.47, 111.7 7.08, 121.72 11.98 C131.73 16.88, 141.4 20.44, 148.56 28.1 C155.72 35.76, 162.7 48.33, 164.7 57.95 C166.7 67.58, 164.15 77.31, 160.55 85.86 C156.95 94.4, 151.66 102.82, 143.1 109.23 C134.54 115.64, 121.01 121.89, 109.17 124.32 C97.33 126.75, 83.63 124.86, 72.03 123.79 C60.43 122.72, 49.87 122.64, 39.58 117.91 C29.3 113.17, 17.02 102.76, 10.31 95.36 C3.59 87.96, 0.25 81.7, -0.71 73.5 C-1.67 65.31, 0.77 54.89, 4.55 46.21 C8.33 37.54, 13.6 28.36, 21.96 21.48 C30.32 14.59, 49.73 7.45, 54.71 4.91 C59.69 2.37, 51.14 5.05, 51.84 6.23" stroke="none" stroke-width="0" fill="#b2f2bb"></path><path d="M144.29 23.16 C152.76 29.27, 159.9 38.54, 163.14 47.04 C166.37 55.55, 166.13 65.02, 163.7 74.2 C161.26 83.39, 155.63 94.63, 148.51 102.14 C141.4 109.66, 131.99 114.94, 121 119.28 C110 123.62, 94.51 127.97, 82.57 128.19 C70.62 128.4, 59.69 124.64, 49.33 120.59 C38.98 116.54, 28.26 110.79, 20.44 103.88 C12.62 96.97, 5.53 88, 2.43 79.15 C-0.67 70.31, -0.81 60.03, 1.83 50.8 C4.47 41.57, 10.88 30.79, 18.27 23.78 C25.65 16.76, 35.69 12.81, 46.14 8.72 C56.59 4.63, 69.62 -0.21, 80.97 -0.78 C92.32 -1.34, 102.41 -0.04, 114.24 5.34 C126.06 10.71, 145.05 25.8, 151.93 31.47 C158.8 37.13, 156.94 39.28, 155.46 39.31 M19.54 17.94 C25.99 10.87, 41.73 6.74, 52.65 3.99 C63.58 1.25, 73.81 0.7, 85.09 1.45 C96.37 2.2, 109.77 4.53, 120.33 8.5 C130.89 12.47, 141.36 17.22, 148.47 25.27 C155.57 33.32, 161.2 47.62, 162.98 56.79 C164.76 65.97, 162.33 71.62, 159.15 80.33 C155.98 89.05, 152.26 101.83, 143.96 109.09 C135.65 116.35, 120.52 121.27, 109.34 123.89 C98.16 126.52, 88.43 126.07, 76.87 124.83 C65.31 123.59, 50.47 120.83, 39.96 116.46 C29.45 112.09, 20.23 105.58, 13.79 98.62 C7.36 91.66, 3.36 83.22, 1.35 74.72 C-0.67 66.22, -1.22 56.54, 1.72 47.63 C4.65 38.72, 15.14 26.05, 18.96 21.26 C22.79 16.47, 23.09 18.23, 24.67 18.91" stroke="#1e1e1e" stroke-width="4" fill="none"></path></g><g transform="translate(700.6772857517844 788.5987193946542) rotate(0 43.83995819091797 25)"><text x="43.83995819091797" y="0" font-family="Virgil, Segoe UI Emoji" font-size="20px" fill="#1e1e1e" text-anchor="middle" style="white-space: pre;" direction="ltr" dominant-baseline="text-before-edge">Card </text><text x="43.83995819091797" y="25" font-family="Virgil, Segoe UI Emoji" font-size="20px" fill="#1e1e1e" text-anchor="middle" style="white-space: pre;" direction="ltr" dominant-baseline="text-before-edge">payments</text></g><g stroke-linecap="round" transform="translate(925.5 759) rotate(0 93 63.5)"><path d="M16.05 29.28 C21.62 21.88, 32.14 15.38, 42.28 10.77 C52.41 6.15, 64.2 3.07, 76.88 1.56 C89.56 0.05, 105.85 -0.42, 118.36 1.7 C130.87 3.81, 142.25 8.59, 151.95 14.24 C161.65 19.9, 170.63 27.63, 176.57 35.63 C182.5 43.63, 187.13 53.96, 187.58 62.23 C188.03 70.5, 184.05 77.34, 179.27 85.25 C174.48 93.17, 168.06 103.68, 158.89 109.73 C149.72 115.78, 135.93 118.77, 124.25 121.55 C112.57 124.32, 101.1 126.58, 88.8 126.38 C76.5 126.18, 61.89 124.01, 50.44 120.35 C38.99 116.69, 28.11 111.4, 20.11 104.4 C12.11 97.4, 5.69 86.65, 2.44 78.35 C-0.82 70.06, -5.14 65.85, 0.57 54.65 C6.29 43.45, 25.43 20.01, 36.72 11.15 C48 2.3, 66.79 0.74, 68.28 1.51 M69.38 4.52 C80.71 1.28, 97.33 1.13, 109.48 2.27 C121.64 3.41, 132.42 7.42, 142.3 11.34 C152.19 15.27, 161.69 18.8, 168.79 25.83 C175.9 32.85, 183.09 44.96, 184.95 53.49 C186.81 62.02, 183.45 68.37, 179.97 76.99 C176.5 85.62, 171.44 97.6, 164.09 105.23 C156.73 112.86, 147.03 118.77, 135.85 122.75 C124.67 126.73, 109.48 128.9, 97 129.09 C84.51 129.27, 72.93 127.11, 60.93 123.88 C48.93 120.64, 33.71 115.58, 24.99 109.69 C16.28 103.81, 12.5 97.16, 8.66 88.56 C4.83 79.97, 1.71 66.62, 1.99 58.14 C2.26 49.67, 5.06 44.73, 10.31 37.7 C15.56 30.66, 23.62 22.07, 33.48 15.93 C43.35 9.8, 63.66 3.44, 69.5 0.88 C75.33 -1.68, 67.84 -0.95, 68.5 0.58" stroke="none" stroke-width="0" fill="#b2f2bb"></path><path d="M129.14 3.13 C140.62 5.48, 152.07 13.68, 160.81 20.03 C169.55 26.39, 177.74 33.08, 181.57 41.28 C185.41 49.47, 184.78 60.68, 183.8 69.2 C182.82 77.72, 181.13 85.14, 175.69 92.41 C170.24 99.69, 161.22 107.46, 151.13 112.85 C141.05 118.24, 127.53 122.63, 115.19 124.75 C102.85 126.86, 89.13 127.26, 77.07 125.54 C65.02 123.82, 53.02 118.91, 42.85 114.43 C32.69 109.95, 22.81 105.82, 16.07 98.66 C9.32 91.5, 4.64 80.28, 2.39 71.47 C0.14 62.67, -0.66 53.76, 2.58 45.82 C5.82 37.87, 13.66 30.41, 21.84 23.81 C30.01 17.21, 40.61 10.52, 51.64 6.23 C62.67 1.95, 72.37 -3.14, 88.02 -1.92 C103.68 -0.69, 133.26 9.69, 145.57 13.58 C157.87 17.46, 162.74 20.73, 161.84 21.39 M76.94 0.72 C88.87 -2.03, 104.32 -2.8, 116.87 -0.01 C129.43 2.78, 142.55 11.88, 152.25 17.47 C161.96 23.07, 169.18 25.89, 175.09 33.54 C180.99 41.18, 187.4 54.25, 187.67 63.37 C187.93 72.49, 181.48 80.99, 176.68 88.25 C171.88 95.5, 167.62 101.45, 158.87 106.9 C150.12 112.35, 136.23 117.74, 124.18 120.94 C112.13 124.15, 98.87 126.05, 86.55 126.12 C74.23 126.2, 61.65 124.81, 50.26 121.39 C38.87 117.98, 26.56 112.52, 18.19 105.64 C9.83 98.76, 2.61 89.3, 0.08 80.11 C-2.45 70.93, 0.31 59.04, 3 50.52 C5.69 41.99, 9.29 35.41, 16.22 28.95 C23.14 22.48, 33.56 16.67, 44.54 11.73 C55.53 6.79, 76.49 0.62, 82.11 -0.69 C87.73 -1.99, 78.59 3.07, 78.25 3.9" stroke="#1e1e1e" stroke-width="4" fill="none"></path></g><g transform="translate(961.7991126846118 797.5987193946542) rotate(0 56.93995666503906 25)"><text x="56.93995666503906" y="0" font-family="Virgil, Segoe UI Emoji" font-size="20px" fill="#1e1e1e" text-anchor="middle" style="white-space: pre;" direction="ltr" dominant-baseline="text-before-edge">Account </text><text x="56.93995666503906" y="25" font-family="Virgil, Segoe UI Emoji" font-size="20px" fill="#1e1e1e" text-anchor="middle" style="white-space: pre;" direction="ltr" dominant-baseline="text-before-edge">management</text></g><g stroke-linecap="round"><g transform="translate(59.16842672675739 671.2265273585915) rotate(0 -23 41.5)"><path d="M1.35 -2.09 C-5.98 12.22, -38.93 69.35, -46.37 83.98" stroke="#1e1e1e" stroke-width="4.5" fill="none" stroke-dasharray="8 12"></path></g><g transform="translate(59.16842672675739 671.2265273585915) rotate(0 -23 41.5)"><path d="M-44.11 59 C-42.89 66.56, -42.5 68.34, -46.95 85.1" stroke="#1e1e1e" stroke-width="4.5" fill="none"></path></g><g transform="translate(59.16842672675739 671.2265273585915) rotate(0 -23 41.5)"><path d="M-29.1 67.19 C-31.06 73.06, -33.9 73.09, -46.95 85.1" stroke="#1e1e1e" stroke-width="4.5" fill="none"></path></g></g><mask></mask><g stroke-linecap="round"><g transform="translate(269.50852804333044 674.0571795687081) rotate(0 -23 41.5)"><path d="M2.11 -0.52 C-6.32 13.08, -40.83 68.2, -48.62 81.75" stroke="#1e1e1e" stroke-width="4.5" fill="none" stroke-dasharray="8 12"></path></g><g transform="translate(269.50852804333044 674.0571795687081) rotate(0 -23 41.5)"><path d="M-44.16 55.35 C-46.46 67.34, -48.96 73.68, -47.83 80.49" stroke="#1e1e1e" stroke-width="4.5" fill="none"></path></g><g transform="translate(269.50852804333044 674.0571795687081) rotate(0 -23 41.5)"><path d="M-29.52 64.19 C-37.25 73.02, -45.17 76.08, -47.83 80.49" stroke="#1e1e1e" stroke-width="4.5" fill="none"></path></g></g><mask></mask><g stroke-linecap="round"><g transform="translate(528.7342354664961 672.2341631080958) rotate(0 -28.5 42)"><path d="M1.73 0.28 C-7.51 13.72, -46.54 68.3, -56.29 81.81 M-0.78 -2.04 C-10.25 11.58, -48.52 70.08, -58.14 84.25" stroke="#1e1e1e" stroke-width="4" fill="none"></path></g><g transform="translate(528.7342354664961 672.2341631080958) rotate(0 -28.5 42)"><path d="M-52.05 60.46 C-55.3 66.7, -57.24 72.65, -56.75 84.54 M-51.46 58.95 C-54.17 67.15, -56.57 75.75, -57.39 85.11" stroke="#1e1e1e" stroke-width="4" fill="none"></path></g><g transform="translate(528.7342354664961 672.2341631080958) rotate(0 -28.5 42)"><path d="M-37.81 69.93 C-44.94 73.7, -50.72 77.1, -56.75 84.54 M-37.22 68.42 C-44.56 73.53, -51.59 79.04, -57.39 85.11" stroke="#1e1e1e" stroke-width="4" fill="none"></path></g></g><mask></mask><g stroke-linecap="round"><g transform="translate(649.2055569130953 660.8972117377816) rotate(0 26.5 40.5)"><path d="M-1.24 2.05 C7.59 15.81, 46.48 66.71, 55.75 79.95 M3.28 0.7 C11.73 15.08, 46.66 68.98, 55 83.01" stroke="#1e1e1e" stroke-width="4" fill="none"></path></g><g transform="translate(649.2055569130953 660.8972117377816) rotate(0 26.5 40.5)"><path d="M36.78 69.56 C42.28 74.83, 51.25 81.56, 55.61 81.28 M36.17 67.17 C41.64 71.78, 48.63 78.08, 54.75 83.6" stroke="#1e1e1e" stroke-width="4" fill="none"></path></g><g transform="translate(649.2055569130953 660.8972117377816) rotate(0 26.5 40.5)"><path d="M51.29 60.52 C50.92 69.32, 54.09 79.67, 55.61 81.28 M50.68 58.13 C51.5 65.59, 53.77 74.82, 54.75 83.6" stroke="#1e1e1e" stroke-width="4" fill="none"></path></g></g><mask></mask><g stroke-linecap="round"><g transform="translate(688.7470157369971 625.1428779424728) rotate(0 136.5 59)"><path d="M-1.15 0.1 C44.51 19.11, 225.82 96.45, 271.26 115.78 M3.42 -2.32 C50.24 16.82, 232.48 98.13, 276.72 118.2" stroke="#1e1e1e" stroke-width="4" fill="none"></path></g><g transform="translate(688.7470157369971 625.1428779424728) rotate(0 136.5 59)"><path d="M251.86 115.15 C255.26 115.79, 260.52 117.48, 277.45 117.71 M250.95 116.1 C260.23 117.89, 268.49 116.83, 277.55 117.59" stroke="#1e1e1e" stroke-width="4" fill="none"></path></g><g transform="translate(688.7470157369971 625.1428779424728) rotate(0 136.5 59)"><path d="M258.86 99.55 C260.94 103.32, 264.78 108.17, 277.45 117.71 M257.95 100.49 C264.83 107.56, 270.74 111.74, 277.55 117.59" stroke="#1e1e1e" stroke-width="4" fill="none"></path></g></g><mask></mask><g transform="translate(452 156) rotate(0 23.389991760253906 12.5)"><text x="0" y="0" font-family="Virgil, Segoe UI Emoji" font-size="20px" fill="#1e1e1e" text-anchor="start" style="white-space: pre;" direction="ltr" dominant-baseline="text-before-edge">20%</text></g><g transform="translate(574.6100082397461 191.5) rotate(0 15.569992065429688 12.5)"><text x="0" y="0" font-family="Virgil, Segoe UI Emoji" font-size="20px" fill="#1e1e1e" text-anchor="start" style="white-space: pre;" direction="ltr" dominant-baseline="text-before-edge">5%</text></g><g transform="translate(821.6100082397461 141.5) rotate(0 18.979995727539062 12.5)"><text x="0" y="0" font-family="Virgil, Segoe UI Emoji" font-size="20px" fill="#1e1e1e" text-anchor="start" style="white-space: pre;" direction="ltr" dominant-baseline="text-before-edge">10%</text></g><g transform="translate(170.6100082397461 399.5) rotate(0 16.269996643066406 12.5)"><text x="0" y="0" font-family="Virgil, Segoe UI Emoji" font-size="20px" fill="#1e1e1e" text-anchor="start" style="white-space: pre;" direction="ltr" dominant-baseline="text-before-edge">0%</text></g><g transform="translate(325.7300033569336 426.5) rotate(0 23.079994201660156 12.5)"><text x="0" y="0" font-family="Virgil, Segoe UI Emoji" font-size="20px" fill="#1e1e1e" text-anchor="start" style="white-space: pre;" direction="ltr" dominant-baseline="text-before-edge">30%</text></g><g transform="translate(475.92000579833984 460.5) rotate(0 18.979995727539062 12.5)"><text x="0" y="0" font-family="Virgil, Segoe UI Emoji" font-size="20px" fill="#1e1e1e" text-anchor="start" style="white-space: pre;" direction="ltr" dominant-baseline="text-before-edge">10%</text></g><g transform="translate(456.02000427246094 675.5) rotate(0 18.979995727539062 12.5)"><text x="0" y="0" font-family="Virgil, Segoe UI Emoji" font-size="20px" fill="#1e1e1e" text-anchor="start" style="white-space: pre;" direction="ltr" dominant-baseline="text-before-edge">10%</text></g><g transform="translate(602.0200042724609 689.5) rotate(0 23.389991760253906 12.5)"><text x="0" y="0" font-family="Virgil, Segoe UI Emoji" font-size="20px" fill="#1e1e1e" text-anchor="start" style="white-space: pre;" direction="ltr" dominant-baseline="text-before-edge">20%</text></g><g transform="translate(885.0200042724609 660.5) rotate(0 18.979995727539062 12.5)"><text x="0" y="0" font-family="Virgil, Segoe UI Emoji" font-size="20px" fill="#1e1e1e" text-anchor="start" style="white-space: pre;" direction="ltr" dominant-baseline="text-before-edge">10%</text></g></svg>